<svg width="202" height="32" viewBox="0 0 202 32" fill="none" xmlns="http://www.w3.org/2000/svg">
<rect width="202" height="32" rx="16" fill="black"/>
<path d="M50.2461 12.042L45.5352 22H42.2041L48.9893 9.20312H51.1162L50.2461 12.042ZM51.0547 22L49.7539 11.7344L49.8242 9.20312H51.8281L54.1924 22H51.0547ZM51.7402 17.2275L51.3184 19.6094H44.9287L45.3506 17.2275H51.7402ZM60.7139 19.6533L62.6475 8.5H65.5566L63.2188 22H60.626L60.7139 19.6533ZM55.458 17.4297L55.4756 17.2363C55.5459 16.6562 55.6777 16.0703 55.8711 15.4785C56.0645 14.8867 56.3281 14.3477 56.6621 13.8613C57.002 13.375 57.4209 12.9883 57.9189 12.7012C58.4229 12.4141 59.0205 12.2822 59.7119 12.3057C60.2979 12.3291 60.7783 12.5049 61.1533 12.833C61.5283 13.1611 61.8184 13.5771 62.0234 14.0811C62.2285 14.5791 62.3691 15.1035 62.4453 15.6543C62.5215 16.2051 62.5537 16.7119 62.542 17.1748L62.5156 17.4121C62.4277 17.9102 62.2754 18.4404 62.0586 19.0029C61.8477 19.5596 61.5693 20.084 61.2236 20.5762C60.8838 21.0625 60.4795 21.458 60.0107 21.7627C59.542 22.0615 59.0117 22.2021 58.4199 22.1846C57.7754 22.167 57.248 22.0117 56.8379 21.7188C56.4277 21.4258 56.1113 21.0449 55.8887 20.5762C55.6719 20.1074 55.5312 19.5977 55.4668 19.0469C55.4082 18.4961 55.4053 17.957 55.458 17.4297ZM58.376 17.2275L58.3584 17.4121C58.3408 17.623 58.3262 17.8662 58.3145 18.1416C58.3027 18.417 58.3174 18.6865 58.3584 18.9502C58.4053 19.2139 58.502 19.4365 58.6484 19.6182C58.8008 19.7939 59.0264 19.8906 59.3252 19.9082C59.7588 19.9258 60.1133 19.8232 60.3887 19.6006C60.6699 19.3779 60.8838 19.0938 61.0303 18.748C61.1826 18.3965 61.2793 18.0361 61.3203 17.667L61.3994 16.9639C61.4287 16.7236 61.4434 16.4688 61.4434 16.1992C61.4492 15.9297 61.4199 15.6748 61.3555 15.4346C61.291 15.1943 61.1738 14.9951 61.0039 14.8369C60.834 14.6787 60.5879 14.5967 60.2656 14.5908C59.9258 14.5791 59.6387 14.6582 59.4043 14.8281C59.1758 14.998 58.9912 15.2207 58.8506 15.4961C58.7158 15.7656 58.6104 16.0557 58.5342 16.3662C58.4639 16.6709 58.4111 16.958 58.376 17.2275ZM70.54 19.6533L72.4736 8.5H75.3828L73.0449 22H70.4521L70.54 19.6533ZM65.2842 17.4297L65.3018 17.2363C65.3721 16.6562 65.5039 16.0703 65.6973 15.4785C65.8906 14.8867 66.1543 14.3477 66.4883 13.8613C66.8281 13.375 67.2471 12.9883 67.7451 12.7012C68.249 12.4141 68.8467 12.2822 69.5381 12.3057C70.124 12.3291 70.6045 12.5049 70.9795 12.833C71.3545 13.1611 71.6445 13.5771 71.8496 14.0811C72.0547 14.5791 72.1953 15.1035 72.2715 15.6543C72.3477 16.2051 72.3799 16.7119 72.3682 17.1748L72.3418 17.4121C72.2539 17.9102 72.1016 18.4404 71.8848 19.0029C71.6738 19.5596 71.3955 20.084 71.0498 20.5762C70.71 21.0625 70.3057 21.458 69.8369 21.7627C69.3682 22.0615 68.8379 22.2021 68.2461 22.1846C67.6016 22.167 67.0742 22.0117 66.6641 21.7188C66.2539 21.4258 65.9375 21.0449 65.7148 20.5762C65.498 20.1074 65.3574 19.5977 65.293 19.0469C65.2344 18.4961 65.2314 17.957 65.2842 17.4297ZM68.2021 17.2275L68.1846 17.4121C68.167 17.623 68.1523 17.8662 68.1406 18.1416C68.1289 18.417 68.1436 18.6865 68.1846 18.9502C68.2314 19.2139 68.3281 19.4365 68.4746 19.6182C68.627 19.7939 68.8525 19.8906 69.1514 19.9082C69.585 19.9258 69.9395 19.8232 70.2148 19.6006C70.4961 19.3779 70.71 19.0938 70.8564 18.748C71.0088 18.3965 71.1055 18.0361 71.1465 17.667L71.2256 16.9639C71.2549 16.7236 71.2695 16.4688 71.2695 16.1992C71.2754 15.9297 71.2461 15.6748 71.1816 15.4346C71.1172 15.1943 71 14.9951 70.8301 14.8369C70.6602 14.6787 70.4141 14.5967 70.0918 14.5908C69.752 14.5791 69.4648 14.6582 69.2305 14.8281C69.002 14.998 68.8174 15.2207 68.6768 15.4961C68.542 15.7656 68.4365 16.0557 68.3604 16.3662C68.29 16.6709 68.2373 16.958 68.2021 17.2275ZM83.2139 14.6787L81.9395 22H79.0479L80.7002 12.4902H83.3984L83.2139 14.6787ZM82.4932 16.9199L81.8955 16.9551C81.9482 16.3867 82.0654 15.8242 82.2471 15.2676C82.4287 14.7051 82.6807 14.1982 83.0029 13.7471C83.3311 13.2959 83.7354 12.9414 84.2158 12.6836C84.7021 12.4199 85.2734 12.2939 85.9297 12.3057C86.4629 12.3232 86.8994 12.4375 87.2393 12.6484C87.585 12.8594 87.8486 13.1406 88.0303 13.4922C88.2119 13.8379 88.3262 14.2305 88.373 14.6699C88.4258 15.1035 88.4287 15.5518 88.3818 16.0146L87.3799 22H84.4707L85.4814 15.9883C85.5107 15.7129 85.502 15.4697 85.4551 15.2588C85.4141 15.0479 85.3145 14.8838 85.1562 14.7666C85.0039 14.6494 84.7754 14.5879 84.4707 14.582C84.1309 14.5762 83.8438 14.6406 83.6094 14.7754C83.3809 14.9102 83.1904 15.0947 83.0381 15.3291C82.8916 15.5576 82.7744 15.8125 82.6865 16.0938C82.6045 16.3691 82.54 16.6445 82.4932 16.9199ZM93.6729 22.1758C93.0166 22.1641 92.4189 22.0439 91.8799 21.8154C91.3408 21.5811 90.8838 21.2588 90.5088 20.8486C90.1338 20.4385 89.8555 19.958 89.6738 19.4072C89.498 18.8506 89.4336 18.2441 89.4805 17.5879L89.5156 17.2451C89.5859 16.5537 89.75 15.9092 90.0078 15.3115C90.2656 14.708 90.6113 14.1807 91.0449 13.7295C91.4785 13.2725 91.9883 12.918 92.5742 12.666C93.166 12.4141 93.8281 12.2969 94.5605 12.3145C95.2227 12.3262 95.7939 12.458 96.2744 12.71C96.7607 12.9619 97.1562 13.3047 97.4609 13.7383C97.7656 14.166 97.9766 14.6582 98.0938 15.2148C98.2168 15.7656 98.2461 16.3516 98.1816 16.9727L98.0146 18.1768H90.4561L90.7549 16.3223L95.4131 16.3311L95.4658 16.0762C95.5068 15.8008 95.4951 15.5518 95.4307 15.3291C95.3662 15.1064 95.2461 14.9307 95.0703 14.8018C94.8945 14.667 94.6572 14.5938 94.3584 14.582C93.9951 14.5762 93.6934 14.6553 93.4531 14.8193C93.2188 14.9834 93.0283 15.2002 92.8818 15.4697C92.7412 15.7393 92.6328 16.0322 92.5566 16.3486C92.4805 16.6592 92.4248 16.958 92.3896 17.2451L92.3545 17.5791C92.3311 17.8662 92.3398 18.1445 92.3809 18.4141C92.4219 18.6836 92.5039 18.9268 92.627 19.1436C92.7559 19.3604 92.9287 19.5361 93.1455 19.6709C93.3623 19.7998 93.6348 19.8701 93.9629 19.8818C94.4023 19.8936 94.8125 19.8115 95.1934 19.6357C95.5742 19.46 95.917 19.2197 96.2217 18.915L97.4258 20.5146C97.1621 20.9131 96.8223 21.2354 96.4062 21.4814C95.9902 21.7217 95.542 21.8975 95.0615 22.0088C94.5869 22.126 94.124 22.1816 93.6729 22.1758ZM101.812 19.0293L104.615 12.4902H106.496L105.23 15.9619L102.532 22H101.021L101.812 19.0293ZM102.269 12.4902L102.172 19.2666L101.812 22H100.089L99.5527 12.4902H102.269ZM106.865 18.8359L109.01 12.4902H111.84L108.025 22H106.215L106.865 18.8359ZM106.637 12.4902L107.217 19.3105L106.997 22H105.573L104.976 15.7334L104.94 12.4902H106.637ZM120.84 19.6094L121.455 15.6543C121.479 15.4434 121.476 15.2412 121.446 15.0479C121.423 14.8545 121.35 14.6963 121.227 14.5732C121.109 14.4443 120.925 14.377 120.673 14.3711C120.444 14.3652 120.251 14.4062 120.093 14.4941C119.935 14.582 119.809 14.7051 119.715 14.8633C119.621 15.0215 119.554 15.2031 119.513 15.4082L116.612 15.4258C116.636 14.875 116.782 14.4004 117.052 14.002C117.321 13.6035 117.667 13.2783 118.089 13.0264C118.511 12.7744 118.971 12.5898 119.469 12.4727C119.973 12.3555 120.468 12.3027 120.954 12.3145C121.622 12.3262 122.226 12.4668 122.765 12.7363C123.31 13 123.729 13.3838 124.021 13.8877C124.32 14.3857 124.435 14.9922 124.364 15.707L123.74 19.6094C123.688 19.9609 123.641 20.3359 123.6 20.7344C123.559 21.127 123.617 21.4932 123.775 21.833L123.767 22L120.945 22.0088C120.816 21.6279 120.752 21.2324 120.752 20.8223C120.752 20.4121 120.781 20.0078 120.84 19.6094ZM121.78 16.1904L121.517 17.7725L120.383 17.7637C120.16 17.7695 119.946 17.8076 119.741 17.8779C119.542 17.9424 119.363 18.0361 119.205 18.1592C119.047 18.2822 118.915 18.4346 118.81 18.6162C118.71 18.7979 118.646 19.0059 118.616 19.2402C118.593 19.3984 118.604 19.542 118.651 19.6709C118.704 19.7939 118.783 19.8936 118.889 19.9697C119 20.0459 119.138 20.0869 119.302 20.0928C119.554 20.0986 119.797 20.0518 120.031 19.9521C120.266 19.8525 120.468 19.7119 120.638 19.5303C120.813 19.3486 120.934 19.1377 120.998 18.8975L121.508 20.1367C121.355 20.4414 121.18 20.7197 120.98 20.9717C120.787 21.2236 120.567 21.4434 120.321 21.6309C120.081 21.8125 119.812 21.9531 119.513 22.0527C119.214 22.1523 118.883 22.1992 118.52 22.1934C117.998 22.1816 117.518 22.0557 117.078 21.8154C116.639 21.5752 116.29 21.2471 116.032 20.8311C115.774 20.415 115.654 19.9346 115.672 19.3896C115.695 18.7568 115.851 18.2324 116.138 17.8164C116.425 17.4004 116.797 17.0752 117.254 16.8408C117.717 16.6006 118.218 16.4307 118.757 16.3311C119.302 16.2314 119.841 16.1816 120.374 16.1816L121.78 16.1904ZM129.189 19.8994C129.465 19.9053 129.702 19.8555 129.901 19.75C130.101 19.6387 130.259 19.4863 130.376 19.293C130.499 19.0938 130.578 18.8652 130.613 18.6074L133.329 18.5986C133.294 19.3486 133.074 19.9932 132.67 20.5322C132.271 21.0713 131.759 21.4844 131.132 21.7715C130.505 22.0586 129.831 22.1934 129.11 22.1758C128.419 22.1641 127.824 22.0293 127.326 21.7715C126.828 21.5078 126.424 21.1562 126.113 20.7168C125.803 20.2715 125.583 19.7617 125.454 19.1875C125.331 18.6133 125.299 18.0068 125.357 17.3682L125.384 17.1572C125.454 16.4893 125.612 15.8594 125.858 15.2676C126.11 14.6758 126.444 14.1572 126.86 13.7119C127.276 13.2607 127.769 12.9121 128.337 12.666C128.911 12.4141 129.556 12.2969 130.271 12.3145C131.032 12.3262 131.68 12.4961 132.213 12.8242C132.752 13.1523 133.159 13.6006 133.435 14.1689C133.71 14.7373 133.839 15.3936 133.821 16.1377L131.105 16.1289C131.117 15.877 131.094 15.6367 131.035 15.4082C130.982 15.1738 130.877 14.9834 130.719 14.8369C130.561 14.6846 130.332 14.6025 130.033 14.5908C129.688 14.5791 129.406 14.6553 129.189 14.8193C128.973 14.9834 128.8 15.2002 128.671 15.4697C128.548 15.7334 128.457 16.0176 128.398 16.3223C128.34 16.6211 128.296 16.9023 128.267 17.166L128.258 17.3682C128.234 17.5791 128.211 17.8281 128.188 18.1152C128.17 18.3965 128.179 18.6719 128.214 18.9414C128.255 19.2109 128.349 19.4365 128.495 19.6182C128.642 19.7939 128.873 19.8877 129.189 19.8994ZM140.51 12.4902L140.149 14.5469H134.577L134.938 12.4902H140.51ZM136.511 10.126H139.402L137.891 18.915C137.867 19.1201 137.867 19.29 137.891 19.4248C137.914 19.5537 137.976 19.6533 138.075 19.7236C138.181 19.7881 138.342 19.8262 138.559 19.8379C138.682 19.8438 138.805 19.8408 138.928 19.8291C139.051 19.8174 139.174 19.8057 139.297 19.7939L139.095 21.9385C138.843 22.0205 138.585 22.0791 138.321 22.1143C138.063 22.1494 137.8 22.167 137.53 22.167C136.933 22.1553 136.432 22.0352 136.027 21.8066C135.629 21.5723 135.339 21.2412 135.157 20.8135C134.981 20.3799 134.92 19.8643 134.973 19.2666L136.511 10.126ZM144.693 12.4902L143.05 22H140.149L141.802 12.4902H144.693ZM142.057 10.0908C142.045 9.63379 142.197 9.27051 142.514 9.00098C142.836 8.73145 143.214 8.59375 143.647 8.58789C144.063 8.58203 144.433 8.70508 144.755 8.95703C145.077 9.20312 145.241 9.5459 145.247 9.98535C145.259 10.4424 145.104 10.8057 144.781 11.0752C144.465 11.3447 144.09 11.4824 143.656 11.4883C143.24 11.4941 142.871 11.374 142.549 11.1279C142.232 10.876 142.068 10.5303 142.057 10.0908ZM148.534 19.8555L151.479 12.4902H154.599L150.09 22H148.253L148.534 19.8555ZM148.604 12.4902L149.237 20.1104L148.921 22H147.154L145.625 12.4902H148.604ZM158.51 12.4902L156.866 22H153.966L155.618 12.4902H158.51ZM155.873 10.0908C155.861 9.63379 156.014 9.27051 156.33 9.00098C156.652 8.73145 157.03 8.59375 157.464 8.58789C157.88 8.58203 158.249 8.70508 158.571 8.95703C158.894 9.20312 159.058 9.5459 159.063 9.98535C159.075 10.4424 158.92 10.8057 158.598 11.0752C158.281 11.3447 157.906 11.4824 157.473 11.4883C157.057 11.4941 156.688 11.374 156.365 11.1279C156.049 10.876 155.885 10.5303 155.873 10.0908ZM165.137 12.4902L164.776 14.5469H159.204L159.564 12.4902H165.137ZM161.138 10.126H164.029L162.518 18.915C162.494 19.1201 162.494 19.29 162.518 19.4248C162.541 19.5537 162.603 19.6533 162.702 19.7236C162.808 19.7881 162.969 19.8262 163.186 19.8379C163.309 19.8438 163.432 19.8408 163.555 19.8291C163.678 19.8174 163.801 19.8057 163.924 19.7939L163.722 21.9385C163.47 22.0205 163.212 22.0791 162.948 22.1143C162.69 22.1494 162.427 22.167 162.157 22.167C161.56 22.1553 161.059 22.0352 160.654 21.8066C160.256 21.5723 159.966 21.2412 159.784 20.8135C159.608 20.3799 159.547 19.8643 159.6 19.2666L161.138 10.126ZM167.668 20.7432L171.447 12.4902H174.638L169.065 23.4238C168.896 23.7871 168.702 24.1182 168.485 24.417C168.274 24.7158 168.034 24.9736 167.765 25.1904C167.495 25.4072 167.19 25.5742 166.851 25.6914C166.511 25.8086 166.127 25.8672 165.699 25.8672C165.477 25.8672 165.26 25.8467 165.049 25.8057C164.838 25.7705 164.627 25.7266 164.416 25.6738L164.636 23.5469C164.694 23.5527 164.753 23.5557 164.812 23.5557C164.87 23.5615 164.926 23.5645 164.979 23.5645C165.225 23.5645 165.444 23.5381 165.638 23.4854C165.837 23.4385 166.013 23.3535 166.165 23.2305C166.323 23.1074 166.461 22.9375 166.578 22.7207L167.668 20.7432ZM168.468 12.4902L169.153 19.293L168.934 22.2812H167.053L165.471 12.4902H168.468Z" fill="white"/>
<path fill-rule="evenodd" clip-rule="evenodd" d="M17.2428 10H14.8286V14.4571H10V16.6856H14.8286V21.1427H17.2428V16.6856H22.0712V14.4571H17.2428V10Z" fill="white"/>
</svg>
