<svg width="161" height="35" viewBox="0 0 161 35" fill="none" xmlns="http://www.w3.org/2000/svg">
<path d="M5.01938 12.2109L8.62875 3.625H11.6991L6.19125 15H4.19907L5.01938 12.2109ZM4.26157 3.625L5.21469 12.4531L5.18344 15H3.27719L1.35532 3.625H4.26157ZM14.4122 6.54688L12.9513 15H10.3731L11.8419 6.54688H14.4122ZM12.0684 4.41406C12.058 4.00781 12.1934 3.6849 12.4747 3.44531C12.7611 3.20573 13.0971 3.08333 13.4825 3.07812C13.8523 3.07292 14.1804 3.18229 14.4669 3.40625C14.7533 3.625 14.8992 3.92969 14.9044 4.32031C14.9148 4.72656 14.7768 5.04948 14.4903 5.28906C14.2091 5.52865 13.8757 5.65104 13.4903 5.65625C13.1205 5.66146 12.7924 5.55469 12.5059 5.33594C12.2247 5.11198 12.0789 4.80469 12.0684 4.41406ZM18.4456 15.1562C17.8623 15.1458 17.331 15.0391 16.8519 14.8359C16.3727 14.6276 15.9665 14.3411 15.6331 13.9766C15.2998 13.612 15.0524 13.1849 14.8909 12.6953C14.7347 12.2005 14.6774 11.6615 14.7191 11.0781L14.7503 10.7734C14.8128 10.1589 14.9586 9.58594 15.1878 9.05469C15.417 8.51823 15.7243 8.04948 16.1097 7.64844C16.4951 7.24219 16.9482 6.92708 17.4691 6.70312C17.9951 6.47917 18.5836 6.375 19.2347 6.39062C19.8232 6.40104 20.331 6.51823 20.7581 6.74219C21.1904 6.96615 21.542 7.27083 21.8128 7.65625C22.0836 8.03646 22.2711 8.47396 22.3753 8.96875C22.4847 9.45833 22.5107 9.97917 22.4534 10.5312L22.305 11.6016H15.5863L15.8519 9.95312L19.9925 9.96094L20.0394 9.73438C20.0758 9.48958 20.0654 9.26823 20.0081 9.07031C19.9508 8.8724 19.8441 8.71615 19.6878 8.60156C19.5316 8.48177 19.3206 8.41667 19.055 8.40625C18.7321 8.40104 18.4639 8.47135 18.2503 8.61719C18.042 8.76302 17.8727 8.95573 17.7425 9.19531C17.6175 9.4349 17.5211 9.69531 17.4534 9.97656C17.3857 10.2526 17.3363 10.5182 17.305 10.7734L17.2738 11.0703C17.2529 11.3255 17.2607 11.5729 17.2972 11.8125C17.3336 12.0521 17.4066 12.2682 17.5159 12.4609C17.6305 12.6536 17.7842 12.8099 17.9769 12.9297C18.1696 13.0443 18.4118 13.1068 18.7034 13.1172C19.0941 13.1276 19.4586 13.0547 19.7972 12.8984C20.1357 12.7422 20.4404 12.5286 20.7113 12.2578L21.7816 13.6797C21.5472 14.0339 21.2451 14.3203 20.8753 14.5391C20.5055 14.7526 20.1071 14.9089 19.68 15.0078C19.2581 15.112 18.8467 15.1615 18.4456 15.1562ZM25.44 12.3594L27.9322 6.54688H29.6041L28.4791 9.63281L26.0806 15H24.7369L25.44 12.3594ZM25.8463 6.54688L25.7603 12.5703L25.44 15H23.9088L23.4322 6.54688H25.8463ZM29.9322 12.1875L31.8384 6.54688H34.3541L30.9634 15H29.3541L29.9322 12.1875ZM29.7291 6.54688L30.2447 12.6094L30.0494 15H28.7838L28.2525 9.42969L28.2213 6.54688H29.7291ZM43.5772 6.14844L39.3897 15H36.4288L42.46 3.625H44.3506L43.5772 6.14844ZM44.2959 15L43.1397 5.875L43.2022 3.625H44.9834L47.085 15H44.2959ZM44.9053 10.7578L44.5303 12.875H38.8506L39.2256 10.7578H44.9053ZM52.3606 3L50.2825 15H47.7044L49.7825 3H52.3606ZM56.3863 3L54.3081 15H51.73L53.8081 3H56.3863ZM65.6719 11.9219C65.7188 11.6771 65.7005 11.4688 65.6172 11.2969C65.5391 11.125 65.4193 10.9792 65.2578 10.8594C65.1016 10.7396 64.9219 10.638 64.7188 10.5547C64.5208 10.4661 64.3281 10.3854 64.1406 10.3125C63.7344 10.151 63.3333 9.96875 62.9375 9.76562C62.5417 9.55729 62.1823 9.3125 61.8594 9.03125C61.5365 8.75 61.2839 8.42188 61.1016 8.04688C60.9245 7.67188 60.849 7.23177 60.875 6.72656C60.9115 6.14844 61.0755 5.65104 61.3672 5.23438C61.6589 4.81771 62.0313 4.47917 62.4844 4.21875C62.9427 3.95312 63.4349 3.76042 63.9609 3.64062C64.4922 3.51562 65.0104 3.45833 65.5156 3.46875C66.2344 3.47917 66.875 3.625 67.4375 3.90625C68.0052 4.1875 68.4505 4.59115 68.7734 5.11719C69.0964 5.63802 69.2526 6.26823 69.2422 7.00781H66.5938C66.6042 6.71615 66.5651 6.46354 66.4766 6.25C66.3932 6.03125 66.2552 5.86198 66.0625 5.74219C65.8698 5.61719 65.6198 5.55208 65.3125 5.54688C65.0573 5.54167 64.8021 5.58333 64.5469 5.67188C64.2917 5.75521 64.0703 5.88542 63.8828 6.0625C63.6953 6.23958 63.5755 6.46875 63.5234 6.75C63.487 6.96354 63.5208 7.15104 63.625 7.3125C63.7292 7.46875 63.8724 7.60417 64.0547 7.71875C64.237 7.82812 64.4271 7.92188 64.625 8C64.8281 8.07812 65.0052 8.14583 65.1563 8.20312C65.5833 8.36458 65.9922 8.55469 66.3828 8.77344C66.7786 8.98698 67.1276 9.23958 67.4297 9.53125C67.737 9.82292 67.9714 10.1641 68.1328 10.5547C68.2995 10.9401 68.3672 11.388 68.3359 11.8984C68.2943 12.487 68.138 12.9896 67.8672 13.4062C67.5964 13.8229 67.2474 14.1615 66.8203 14.4219C66.3932 14.6823 65.9245 14.8724 65.4141 14.9922C64.9036 15.112 64.3854 15.1693 63.8594 15.1641C63.2708 15.1536 62.7214 15.0651 62.2109 14.8984C61.7005 14.7266 61.2552 14.4792 60.875 14.1562C60.4948 13.8281 60.2005 13.4271 59.9922 12.9531C59.7839 12.474 59.6849 11.9245 59.6953 11.3047L62.375 11.3125C62.3594 11.6042 62.3776 11.862 62.4297 12.0859C62.487 12.3047 62.5807 12.4896 62.7109 12.6406C62.8464 12.7865 63.0208 12.8984 63.2344 12.9766C63.4479 13.0495 63.7057 13.0859 64.0078 13.0859C64.263 13.0859 64.5078 13.0469 64.7422 12.9688C64.9818 12.8854 65.1849 12.7578 65.3516 12.5859C65.5182 12.4141 65.625 12.1927 65.6719 11.9219ZM74.6116 6.54688L74.2913 8.375H69.3381L69.6584 6.54688H74.6116ZM71.0569 4.44531H73.6272L72.2834 12.2578C72.2626 12.4401 72.2626 12.5911 72.2834 12.7109C72.3043 12.8255 72.359 12.9141 72.4475 12.9766C72.5413 13.0339 72.6845 13.0677 72.8772 13.0781C72.9866 13.0833 73.0959 13.0807 73.2053 13.0703C73.3147 13.0599 73.4241 13.0495 73.5334 13.0391L73.3538 14.9453C73.1298 15.0182 72.9006 15.0703 72.6663 15.1016C72.4371 15.1328 72.2027 15.1484 71.9631 15.1484C71.4319 15.138 70.9866 15.0312 70.6272 14.8281C70.273 14.6198 70.0152 14.3255 69.8538 13.9453C69.6975 13.5599 69.6428 13.1016 69.6897 12.5703L71.0569 4.44531ZM77.5825 8.78125L76.5044 15H73.9341L75.4028 6.54688H77.7934L77.5825 8.78125ZM80.3481 6.47656L80.0122 8.92969C79.8768 8.90885 79.7414 8.89062 79.6059 8.875C79.4705 8.85938 79.3325 8.84896 79.1919 8.84375C78.9054 8.83854 78.645 8.8724 78.4106 8.94531C78.1815 9.01302 77.9809 9.11979 77.8091 9.26562C77.6424 9.40625 77.5044 9.58333 77.395 9.79688C77.2856 10.0104 77.2049 10.2578 77.1528 10.5391L76.7231 10.2266C76.7752 9.83073 76.8585 9.41146 76.9731 8.96875C77.0929 8.52083 77.2596 8.09896 77.4731 7.70312C77.6867 7.30729 77.9627 6.98698 78.3013 6.74219C78.6398 6.49219 79.0565 6.36719 79.5513 6.36719C79.6867 6.36719 79.8195 6.3776 79.9497 6.39844C80.0799 6.41927 80.2127 6.44531 80.3481 6.47656ZM83.9753 12.875L84.5222 9.35938C84.543 9.17188 84.5404 8.99219 84.5144 8.82031C84.4935 8.64844 84.4284 8.50781 84.3191 8.39844C84.2149 8.28385 84.0508 8.22396 83.8269 8.21875C83.6238 8.21354 83.4519 8.25 83.3113 8.32812C83.1706 8.40625 83.0587 8.51562 82.9753 8.65625C82.892 8.79688 82.8321 8.95833 82.7956 9.14062L80.2175 9.15625C80.2383 8.66667 80.3685 8.24479 80.6081 7.89062C80.8477 7.53646 81.155 7.2474 81.53 7.02344C81.905 6.79948 82.3139 6.63542 82.7566 6.53125C83.2045 6.42708 83.6446 6.38021 84.0769 6.39062C84.6706 6.40104 85.2071 6.52604 85.6863 6.76562C86.1706 7 86.543 7.34115 86.8034 7.78906C87.0691 8.23177 87.1706 8.77083 87.1081 9.40625L86.5534 12.875C86.5066 13.1875 86.4649 13.5208 86.4284 13.875C86.392 14.224 86.4441 14.5495 86.5847 14.8516L86.5769 15L84.0691 15.0078C83.9545 14.6693 83.8972 14.3177 83.8972 13.9531C83.8972 13.5885 83.9232 13.2292 83.9753 12.875ZM84.8113 9.83594L84.5769 11.2422L83.5691 11.2344C83.3712 11.2396 83.181 11.2734 82.9988 11.3359C82.8217 11.3932 82.6628 11.4766 82.5222 11.5859C82.3816 11.6953 82.2644 11.8307 82.1706 11.9922C82.0821 12.1536 82.0248 12.3385 81.9988 12.5469C81.9779 12.6875 81.9883 12.8151 82.03 12.9297C82.0769 13.0391 82.1472 13.1276 82.2409 13.1953C82.3399 13.263 82.4623 13.2995 82.6081 13.3047C82.8321 13.3099 83.0482 13.2682 83.2566 13.1797C83.4649 13.0911 83.6446 12.9661 83.7956 12.8047C83.9519 12.6432 84.0587 12.4557 84.1159 12.2422L84.5691 13.3438C84.4337 13.6146 84.2774 13.862 84.1003 14.0859C83.9284 14.3099 83.7331 14.5052 83.5144 14.6719C83.3008 14.8333 83.0613 14.9583 82.7956 15.0469C82.53 15.1354 82.2357 15.1771 81.9128 15.1719C81.4493 15.1615 81.0222 15.0495 80.6316 14.8359C80.2409 14.6224 79.931 14.3307 79.7019 13.9609C79.4727 13.5911 79.3659 13.1641 79.3816 12.6797C79.4024 12.1172 79.5404 11.651 79.7956 11.2812C80.0508 10.9115 80.3816 10.6224 80.7878 10.4141C81.1993 10.2005 81.6446 10.0495 82.1238 9.96094C82.6081 9.8724 83.0873 9.82812 83.5613 9.82812L84.8113 9.83594ZM93.1416 6.54688L92.8213 8.375H87.8681L88.1884 6.54688H93.1416ZM89.5869 4.44531H92.1572L90.8134 12.2578C90.7926 12.4401 90.7926 12.5911 90.8134 12.7109C90.8343 12.8255 90.889 12.9141 90.9775 12.9766C91.0713 13.0339 91.2145 13.0677 91.4072 13.0781C91.5166 13.0833 91.6259 13.0807 91.7353 13.0703C91.8447 13.0599 91.9541 13.0495 92.0634 13.0391L91.8838 14.9453C91.6598 15.0182 91.4306 15.0703 91.1963 15.1016C90.9671 15.1328 90.7327 15.1484 90.4931 15.1484C89.9619 15.138 89.5166 15.0312 89.1572 14.8281C88.803 14.6198 88.5452 14.3255 88.3838 13.9453C88.2275 13.5599 88.1728 13.1016 88.2197 12.5703L89.5869 4.44531ZM96.6281 15.1562C96.0448 15.1458 95.5135 15.0391 95.0344 14.8359C94.5552 14.6276 94.149 14.3411 93.8156 13.9766C93.4823 13.612 93.2349 13.1849 93.0734 12.6953C92.9172 12.2005 92.8599 11.6615 92.9016 11.0781L92.9328 10.7734C92.9953 10.1589 93.1411 9.58594 93.3703 9.05469C93.5995 8.51823 93.9068 8.04948 94.2922 7.64844C94.6776 7.24219 95.1307 6.92708 95.6516 6.70312C96.1776 6.47917 96.7661 6.375 97.4172 6.39062C98.0057 6.40104 98.5135 6.51823 98.9406 6.74219C99.3729 6.96615 99.7245 7.27083 99.9953 7.65625C100.266 8.03646 100.454 8.47396 100.558 8.96875C100.667 9.45833 100.693 9.97917 100.636 10.5312L100.488 11.6016H93.7688L94.0344 9.95312L98.175 9.96094L98.2219 9.73438C98.2583 9.48958 98.2479 9.26823 98.1906 9.07031C98.1333 8.8724 98.0266 8.71615 97.8703 8.60156C97.7141 8.48177 97.5031 8.41667 97.2375 8.40625C96.9146 8.40104 96.6464 8.47135 96.4328 8.61719C96.2245 8.76302 96.0552 8.95573 95.925 9.19531C95.8 9.4349 95.7036 9.69531 95.6359 9.97656C95.5682 10.2526 95.5188 10.5182 95.4875 10.7734L95.4563 11.0703C95.4354 11.3255 95.4432 11.5729 95.4797 11.8125C95.5161 12.0521 95.5891 12.2682 95.6984 12.4609C95.813 12.6536 95.9667 12.8099 96.1594 12.9297C96.3521 13.0443 96.5943 13.1068 96.8859 13.1172C97.2766 13.1276 97.6411 13.0547 97.9797 12.8984C98.3182 12.7422 98.6229 12.5286 98.8938 12.2578L99.9641 13.6797C99.7297 14.0339 99.4276 14.3203 99.0578 14.5391C98.688 14.7526 98.2896 14.9089 97.8625 15.0078C97.4406 15.112 97.0292 15.1615 96.6281 15.1562ZM107.271 6.54688H109.63L108.248 14.6641C108.138 15.4766 107.862 16.1562 107.419 16.7031C106.982 17.2552 106.43 17.6693 105.763 17.9453C105.096 18.2214 104.367 18.349 103.576 18.3281C103.201 18.3229 102.831 18.2708 102.466 18.1719C102.107 18.0729 101.766 17.9271 101.443 17.7344C101.12 17.5469 100.833 17.3099 100.583 17.0234L101.802 15.5078C102.026 15.7891 102.287 16.0052 102.583 16.1562C102.886 16.3073 103.216 16.3854 103.576 16.3906C103.945 16.401 104.274 16.3359 104.56 16.1953C104.852 16.0547 105.091 15.8542 105.279 15.5938C105.466 15.3333 105.594 15.0208 105.662 14.6562L106.724 8.41406L107.271 6.54688ZM101.099 10.9297L101.123 10.7656C101.185 10.2344 101.31 9.70573 101.498 9.17969C101.685 8.65365 101.938 8.17708 102.255 7.75C102.578 7.32292 102.969 6.98698 103.427 6.74219C103.891 6.49219 104.43 6.375 105.044 6.39062C105.612 6.40625 106.065 6.55208 106.404 6.82812C106.748 7.10417 107.005 7.45833 107.177 7.89062C107.349 8.32292 107.461 8.78906 107.513 9.28906C107.565 9.78385 107.583 10.2604 107.568 10.7188L107.552 10.9219C107.469 11.375 107.331 11.8516 107.138 12.3516C106.951 12.8516 106.706 13.3177 106.404 13.75C106.107 14.1823 105.748 14.5312 105.326 14.7969C104.909 15.0573 104.43 15.1797 103.888 15.1641C103.32 15.1536 102.846 15.0208 102.466 14.7656C102.086 14.5052 101.787 14.1693 101.568 13.7578C101.354 13.3411 101.211 12.888 101.138 12.3984C101.065 11.9036 101.052 11.4141 101.099 10.9297ZM103.693 10.7656L103.677 10.9297C103.656 11.1328 103.646 11.3594 103.646 11.6094C103.651 11.8542 103.685 12.0911 103.748 12.3203C103.81 12.5495 103.917 12.7396 104.068 12.8906C104.219 13.0417 104.43 13.1224 104.701 13.1328C105.102 13.1536 105.432 13.0703 105.693 12.8828C105.953 12.6953 106.154 12.4479 106.294 12.1406C106.435 11.8281 106.526 11.4974 106.568 11.1484L106.638 10.5234C106.664 10.2891 106.677 10.0521 106.677 9.8125C106.682 9.56771 106.651 9.34115 106.583 9.13281C106.521 8.92448 106.409 8.75521 106.248 8.625C106.086 8.48958 105.854 8.41927 105.552 8.41406C105.245 8.40365 104.979 8.47396 104.755 8.625C104.537 8.77083 104.354 8.96354 104.208 9.20312C104.063 9.44271 103.948 9.70052 103.865 9.97656C103.781 10.2526 103.724 10.5156 103.693 10.7656ZM113.547 6.54688L112.086 15H109.508L110.976 6.54688H113.547ZM111.203 4.41406C111.192 4.00781 111.328 3.6849 111.609 3.44531C111.896 3.20573 112.231 3.08333 112.617 3.07812C112.987 3.07292 113.315 3.18229 113.601 3.40625C113.888 3.625 114.034 3.92969 114.039 4.32031C114.049 4.72656 113.911 5.04948 113.625 5.28906C113.343 5.52865 113.01 5.65104 112.625 5.65625C112.255 5.66146 111.927 5.55469 111.64 5.33594C111.359 5.11198 111.213 4.80469 111.203 4.41406ZM117.58 15.1562C116.997 15.1458 116.465 15.0391 115.986 14.8359C115.507 14.6276 115.101 14.3411 114.768 13.9766C114.434 13.612 114.187 13.1849 114.025 12.6953C113.869 12.2005 113.812 11.6615 113.853 11.0781L113.885 10.7734C113.947 10.1589 114.093 9.58594 114.322 9.05469C114.551 8.51823 114.859 8.04948 115.244 7.64844C115.629 7.24219 116.083 6.92708 116.603 6.70312C117.129 6.47917 117.718 6.375 118.369 6.39062C118.958 6.40104 119.465 6.51823 119.893 6.74219C120.325 6.96615 120.676 7.27083 120.947 7.65625C121.218 8.03646 121.406 8.47396 121.51 8.96875C121.619 9.45833 121.645 9.97917 121.588 10.5312L121.439 11.6016H114.721L114.986 9.95312L119.127 9.96094L119.174 9.73438C119.21 9.48958 119.2 9.26823 119.143 9.07031C119.085 8.8724 118.978 8.71615 118.822 8.60156C118.666 8.48177 118.455 8.41667 118.189 8.40625C117.866 8.40104 117.598 8.47135 117.385 8.61719C117.176 8.76302 117.007 8.95573 116.877 9.19531C116.752 9.4349 116.656 9.69531 116.588 9.97656C116.52 10.2526 116.471 10.5182 116.439 10.7734L116.408 11.0703C116.387 11.3255 116.395 11.5729 116.432 11.8125C116.468 12.0521 116.541 12.2682 116.65 12.4609C116.765 12.6536 116.919 12.8099 117.111 12.9297C117.304 13.0443 117.546 13.1068 117.838 13.1172C118.228 13.1276 118.593 13.0547 118.932 12.8984C119.27 12.7422 119.575 12.5286 119.846 12.2578L120.916 13.6797C120.682 14.0339 120.379 14.3203 120.01 14.5391C119.64 14.7526 119.241 14.9089 118.814 15.0078C118.393 15.112 117.981 15.1615 117.58 15.1562ZM126.395 12.5781C126.436 12.3594 126.371 12.1927 126.199 12.0781C126.033 11.9583 125.832 11.8698 125.598 11.8125C125.369 11.75 125.184 11.7005 125.043 11.6641C124.725 11.5807 124.41 11.474 124.098 11.3438C123.785 11.2083 123.501 11.0417 123.246 10.8438C122.996 10.6406 122.796 10.3984 122.645 10.1172C122.499 9.83073 122.434 9.4974 122.449 9.11719C122.465 8.64844 122.582 8.24219 122.801 7.89844C123.025 7.55469 123.314 7.27083 123.668 7.04688C124.022 6.81771 124.408 6.64844 124.824 6.53906C125.246 6.42969 125.666 6.38021 126.082 6.39062C126.655 6.39583 127.194 6.4974 127.699 6.69531C128.21 6.89323 128.624 7.19531 128.942 7.60156C129.264 8.00781 129.429 8.52344 129.434 9.14844L126.879 9.14062C126.884 8.9375 126.858 8.76042 126.801 8.60938C126.749 8.45833 126.658 8.34375 126.528 8.26562C126.397 8.18229 126.22 8.14062 125.996 8.14062C125.83 8.14062 125.666 8.17448 125.504 8.24219C125.343 8.3099 125.202 8.40625 125.082 8.53125C124.968 8.65625 124.895 8.80729 124.863 8.98438C124.832 9.13542 124.853 9.26302 124.926 9.36719C124.999 9.46615 125.098 9.54688 125.223 9.60938C125.348 9.67188 125.478 9.72396 125.613 9.76562C125.754 9.80208 125.879 9.83073 125.988 9.85156C126.462 9.96615 126.921 10.1198 127.363 10.3125C127.811 10.5 128.176 10.7682 128.457 11.1172C128.744 11.4609 128.879 11.9193 128.863 12.4922C128.848 12.9766 128.718 13.3906 128.473 13.7344C128.228 14.0729 127.913 14.349 127.528 14.5625C127.147 14.7708 126.736 14.9219 126.293 15.0156C125.856 15.1146 125.431 15.1615 125.02 15.1562C124.447 15.1458 123.905 15.0312 123.395 14.8125C122.884 14.5885 122.468 14.2656 122.145 13.8438C121.827 13.4167 121.66 12.8932 121.645 12.2734L124.02 12.2812C124.025 12.526 124.069 12.7318 124.153 12.8984C124.241 13.0599 124.369 13.1849 124.535 13.2734C124.702 13.3568 124.908 13.3984 125.153 13.3984C125.335 13.3984 125.512 13.3724 125.684 13.3203C125.861 13.263 126.012 13.1745 126.137 13.0547C126.267 12.9297 126.353 12.7708 126.395 12.5781ZM45.8149 29.9858C45.8471 29.7495 45.8238 29.5526 45.745 29.395C45.6663 29.2339 45.5517 29.0996 45.4013 28.9922C45.2509 28.8812 45.0826 28.7899 44.8964 28.7183C44.7102 28.6431 44.524 28.5732 44.3378 28.5088C44.0693 28.4157 43.8043 28.3065 43.5429 28.1812C43.2851 28.0558 43.0523 27.9054 42.8447 27.73C42.637 27.5509 42.474 27.3397 42.3559 27.0962C42.2413 26.8527 42.1965 26.568 42.2216 26.2422C42.2502 25.8805 42.3523 25.5636 42.5278 25.2915C42.7032 25.0158 42.927 24.7866 43.1991 24.604C43.4713 24.4214 43.7703 24.2853 44.0961 24.1958C44.422 24.1063 44.7514 24.0651 45.0844 24.0723C45.5463 24.083 45.9599 24.1868 46.3251 24.3838C46.6904 24.5771 46.975 24.8493 47.1791 25.2002C47.3832 25.5511 47.4727 25.9647 47.4477 26.4409L46.4379 26.4355C46.463 26.124 46.4236 25.8573 46.3197 25.6353C46.2159 25.4097 46.0548 25.236 45.8363 25.1143C45.6215 24.9925 45.3565 24.9281 45.0414 24.9209C44.755 24.9137 44.481 24.9567 44.2197 25.0498C43.9618 25.1429 43.7434 25.2879 43.5644 25.4849C43.3853 25.6782 43.2761 25.9271 43.2367 26.2314C43.2081 26.4427 43.2367 26.6235 43.3227 26.7739C43.4086 26.9243 43.5268 27.0514 43.6772 27.1553C43.8311 27.2591 43.9976 27.3468 44.1767 27.4185C44.3593 27.4901 44.533 27.5527 44.6977 27.6064C44.9841 27.7031 45.2599 27.8177 45.5248 27.9502C45.7934 28.0791 46.0297 28.2367 46.2338 28.4229C46.4415 28.6055 46.599 28.8239 46.7065 29.0781C46.8175 29.3324 46.8586 29.6313 46.83 29.9751C46.7978 30.3475 46.6921 30.6698 46.5131 30.9419C46.3341 31.214 46.1049 31.4378 45.8256 31.6133C45.5463 31.7852 45.2402 31.9123 44.9072 31.9946C44.5741 32.077 44.2393 32.1146 43.9028 32.1074C43.5518 32.1038 43.2188 32.0483 42.9037 31.9409C42.5922 31.8299 42.3165 31.6724 42.0766 31.4683C41.8367 31.2642 41.6523 31.0171 41.5234 30.7271C41.3945 30.4334 41.339 30.1004 41.3569 29.728L42.3613 29.7334C42.3433 29.984 42.3702 30.2043 42.4418 30.394C42.5134 30.5838 42.6209 30.7432 42.7641 30.8721C42.9109 30.9974 43.0846 31.0941 43.2851 31.1621C43.4856 31.2266 43.7058 31.2606 43.9457 31.2642C44.2286 31.2713 44.5043 31.2319 44.7729 31.146C45.045 31.0601 45.276 30.9222 45.4657 30.7324C45.6555 30.5426 45.7719 30.2938 45.8149 29.9858ZM48.9909 30.9204L51.2467 26.1885H51.9181L51.6066 27.1929L49.3185 32H48.6632L48.9909 30.9204ZM48.8351 26.1885L49.238 31.0815L49.1574 32H48.5236L47.8952 26.1885H48.8351ZM52.466 30.9312L54.4479 26.1885H55.4469L52.8044 32H52.1222L52.466 30.9312ZM52.0309 26.1885L52.6432 30.9473L52.611 32H52.0148L51.3381 27.0693L51.3756 26.1885H52.0309ZM57.2265 26.1885L56.2167 32H55.2445L56.2543 26.1885H57.2265ZM56.4477 24.6631C56.4477 24.4948 56.4996 24.3551 56.6034 24.2441C56.7108 24.1296 56.8487 24.0705 57.017 24.0669C57.1853 24.0633 57.3231 24.1152 57.4306 24.2227C57.5416 24.3301 57.5953 24.4661 57.5917 24.6309C57.5917 24.7956 57.5362 24.9334 57.4252 25.0444C57.3178 25.1519 57.1817 25.2074 57.017 25.2109C56.8523 25.2145 56.7162 25.1662 56.6088 25.0659C56.5014 24.9621 56.4477 24.8278 56.4477 24.6631ZM59.3014 27.3647L58.109 34.2344H57.1315L58.528 26.1885H59.4196L59.3014 27.3647ZM62.798 29.0137L62.7872 29.1265C62.7407 29.4774 62.6548 29.8319 62.5294 30.1899C62.4077 30.5444 62.2412 30.8685 62.0299 31.1621C61.8187 31.4557 61.5591 31.6903 61.2511 31.8657C60.9468 32.0412 60.5887 32.1235 60.1769 32.1128C59.8152 32.1056 59.5055 32.0269 59.2477 31.8765C58.9899 31.7225 58.7822 31.5202 58.6246 31.2695C58.4671 31.0153 58.3543 30.7324 58.2863 30.4209C58.2218 30.1058 58.2003 29.7835 58.2218 29.4541L58.297 28.8579C58.3579 28.507 58.4599 28.165 58.6032 27.832C58.75 27.4954 58.9362 27.1929 59.1618 26.9243C59.3873 26.6558 59.6541 26.4463 59.9621 26.2959C60.2736 26.1419 60.6263 26.0703 61.0202 26.0811C61.4176 26.0918 61.7399 26.1885 61.987 26.3711C62.2376 26.5501 62.4274 26.7847 62.5563 27.0747C62.6888 27.3612 62.7711 27.6745 62.8034 28.0146C62.8356 28.3512 62.8338 28.6842 62.798 29.0137ZM61.8097 29.1211L61.8258 29.0029C61.8509 28.7881 61.8563 28.5607 61.8419 28.3208C61.8312 28.0809 61.7864 27.8571 61.7077 27.6494C61.6325 27.4382 61.5125 27.2645 61.3478 27.1284C61.1867 26.9924 60.9664 26.9207 60.6871 26.9136C60.4651 26.9064 60.2539 26.944 60.0534 27.0264C59.8564 27.1051 59.6774 27.2179 59.5163 27.3647C59.3551 27.508 59.2173 27.6745 59.1027 27.8643C58.9881 28.0505 58.9039 28.2474 58.8502 28.4551L58.6193 29.8569C58.6157 30.1112 58.6712 30.3475 58.7858 30.5659C58.9004 30.7808 59.0561 30.9544 59.2531 31.0869C59.4536 31.2194 59.681 31.2892 59.9352 31.2964C60.2324 31.3035 60.4902 31.2445 60.7086 31.1191C60.9306 30.9902 61.1168 30.8184 61.2672 30.6035C61.4176 30.3851 61.5376 30.147 61.6271 29.8892C61.7166 29.6278 61.7775 29.3717 61.8097 29.1211ZM65.7377 32.1074C65.3402 32.1003 64.9947 32.0215 64.7011 31.8711C64.411 31.7171 64.1729 31.5112 63.9867 31.2534C63.8041 30.992 63.6734 30.6948 63.5946 30.3618C63.5158 30.0288 63.4926 29.6797 63.5248 29.3145L63.5463 29.0835C63.5821 28.7111 63.6734 28.3459 63.8202 27.9878C63.967 27.6261 64.1622 27.3003 64.4056 27.0103C64.6527 26.7202 64.9428 26.491 65.2758 26.3228C65.6124 26.1509 65.9847 26.0703 66.393 26.0811C66.7976 26.0882 67.1342 26.1742 67.4027 26.3389C67.6713 26.5036 67.8807 26.722 68.0311 26.9941C68.1851 27.2627 68.2854 27.5653 68.3319 27.9019C68.3785 28.2349 68.382 28.5768 68.3427 28.9277L68.2836 29.3735H64.0673L64.1962 28.5625L67.4135 28.5679L67.4296 28.4819C67.4654 28.2241 67.4511 27.9753 67.3866 27.7354C67.3222 27.4954 67.204 27.2985 67.0321 27.1445C66.8638 26.987 66.6364 26.9046 66.35 26.8975C66.0528 26.8867 65.795 26.9476 65.5765 27.0801C65.3581 27.209 65.1755 27.3844 65.0287 27.6064C64.8819 27.8249 64.7655 28.0648 64.6796 28.3262C64.5972 28.584 64.5399 28.8364 64.5077 29.0835L64.4862 29.3091C64.4647 29.5382 64.4719 29.7692 64.5077 30.002C64.5435 30.2347 64.6115 30.4478 64.7118 30.6411C64.8156 30.8309 64.9589 30.9867 65.1415 31.1084C65.3241 31.2266 65.5497 31.2892 65.8182 31.2964C66.1441 31.3035 66.4359 31.2337 66.6937 31.0869C66.9551 30.9365 67.1932 30.7467 67.4081 30.5176L67.9613 30.9902C67.793 31.2373 67.5925 31.445 67.3597 31.6133C67.127 31.7816 66.8728 31.9069 66.5971 31.9893C66.3213 32.0716 66.0349 32.111 65.7377 32.1074ZM76.0697 31.1567L75.9193 32H72.1219L72.267 31.1567H76.0697ZM73.6849 24.1797L72.326 32H71.3109L72.6698 24.1797H73.6849ZM79.1329 32.1074C78.7355 32.1003 78.3899 32.0215 78.0963 31.8711C77.8063 31.7171 77.5681 31.5112 77.3819 31.2534C77.1993 30.992 77.0686 30.6948 76.9898 30.3618C76.9111 30.0288 76.8878 29.6797 76.92 29.3145L76.9415 29.0835C76.9773 28.7111 77.0686 28.3459 77.2154 27.9878C77.3622 27.6261 77.5574 27.3003 77.8009 27.0103C78.048 26.7202 78.338 26.491 78.671 26.3228C79.0076 26.1509 79.38 26.0703 79.7882 26.0811C80.1928 26.0882 80.5294 26.1742 80.798 26.3389C81.0665 26.5036 81.276 26.722 81.4264 26.9941C81.5803 27.2627 81.6806 27.5653 81.7271 27.9019C81.7737 28.2349 81.7773 28.5768 81.7379 28.9277L81.6788 29.3735H77.4625L77.5914 28.5625L80.8087 28.5679L80.8248 28.4819C80.8606 28.2241 80.8463 27.9753 80.7818 27.7354C80.7174 27.4954 80.5992 27.2985 80.4273 27.1445C80.2591 26.987 80.0317 26.9046 79.7452 26.8975C79.448 26.8867 79.1902 26.9476 78.9718 27.0801C78.7534 27.209 78.5707 27.3844 78.4239 27.6064C78.2771 27.8249 78.1607 28.0648 78.0748 28.3262C77.9924 28.584 77.9352 28.8364 77.9029 29.0835L77.8814 29.3091C77.86 29.5382 77.8671 29.7692 77.9029 30.002C77.9387 30.2347 78.0068 30.4478 78.107 30.6411C78.2109 30.8309 78.3541 30.9867 78.5367 31.1084C78.7193 31.2266 78.9449 31.2892 79.2135 31.2964C79.5393 31.3035 79.8312 31.2337 80.089 31.0869C80.3504 30.9365 80.5885 30.7467 80.8033 30.5176L81.3565 30.9902C81.1883 31.2373 80.9877 31.445 80.755 31.6133C80.5222 31.7816 80.268 31.9069 79.9923 31.9893C79.7166 32.0716 79.4301 32.111 79.1329 32.1074ZM83.5389 32H82.5667L83.6624 25.5815C83.7126 25.1912 83.8272 24.8493 84.0062 24.5557C84.1852 24.2585 84.4234 24.0275 84.7206 23.8628C85.0178 23.6981 85.3705 23.6175 85.7787 23.6211C85.8968 23.6247 86.015 23.6354 86.1331 23.6533C86.2513 23.6676 86.3677 23.6873 86.4823 23.7124L86.3641 24.5288C86.2817 24.5109 86.1958 24.4966 86.1063 24.4858C86.0204 24.4751 85.9344 24.4679 85.8485 24.4644C85.6193 24.4644 85.4206 24.5127 85.2523 24.6094C85.084 24.7025 84.9479 24.8332 84.8441 25.0015C84.7438 25.1662 84.6758 25.3577 84.64 25.5762L83.5389 32ZM85.7464 26.1885L85.6122 26.9512H82.5506L82.6903 26.1885H85.7464ZM88.9493 26.1885L88.815 26.9512H85.7589L85.8931 26.1885H88.9493ZM87.1715 24.7759H88.1383L87.1553 30.5713C87.1446 30.6966 87.1482 30.8094 87.1661 30.9097C87.184 31.0099 87.227 31.0905 87.295 31.1514C87.363 31.2087 87.4669 31.2391 87.6065 31.2427C87.6853 31.2427 87.7623 31.2373 87.8375 31.2266C87.9163 31.2122 87.995 31.1997 88.0738 31.189L88.004 32.0054C87.8894 32.0376 87.7712 32.0609 87.6495 32.0752C87.5313 32.0931 87.4132 32.1003 87.295 32.0967C86.9978 32.0931 86.7651 32.0179 86.5968 31.8711C86.4285 31.7243 86.3139 31.5345 86.253 31.3018C86.1921 31.069 86.1742 30.8201 86.1993 30.5552L87.1715 24.7759Z" fill="black"/>
<path fill-rule="evenodd" clip-rule="evenodd" d="M147.571 24.0714C148.084 24.5843 148.916 24.5843 149.429 24.0714L154.069 19.4313C154.07 19.4304 154.071 19.4295 154.071 19.4286C154.264 19.2362 154.384 18.9991 154.432 18.7508C154.512 18.3369 154.392 17.8919 154.071 17.5714C154.071 17.5714 154.071 17.5714 154.071 17.5714C154.071 17.5707 154.07 17.5699 154.069 17.5691L149.429 12.9285C148.916 12.4157 148.084 12.4157 147.571 12.9285C147.059 13.4414 147.059 14.2729 147.571 14.7857L151.286 18.5L147.571 22.2143C147.059 22.7271 147.059 23.5586 147.571 24.0714Z" fill="black"/>
<path fill-rule="evenodd" clip-rule="evenodd" d="M153.571 24.0714C154.084 24.5843 154.916 24.5843 155.429 24.0714L160.069 19.4313C160.07 19.4304 160.071 19.4295 160.071 19.4286C160.264 19.2362 160.384 18.9991 160.432 18.7508C160.512 18.3369 160.392 17.8919 160.071 17.5714C160.071 17.5714 160.071 17.5714 160.071 17.5714C160.071 17.5707 160.07 17.5699 160.069 17.5691L155.429 12.9285C154.916 12.4157 154.084 12.4157 153.571 12.9285C153.059 13.4414 153.059 14.2729 153.571 14.7857L157.286 18.5L153.571 22.2143C153.059 22.7271 153.059 23.5586 153.571 24.0714Z" fill="black"/>
</svg>
