<svg width="337" height="15" viewBox="0 0 337 15" fill="none" xmlns="http://www.w3.org/2000/svg">
<path d="M14.1313 9.58154C14.1313 9.4165 14.106 9.26839 14.0552 9.13721C14.0086 9.00179 13.9198 8.87907 13.7886 8.76904C13.6574 8.65479 13.4733 8.54264 13.2363 8.43262C12.9993 8.32259 12.6925 8.20833 12.3159 8.08984C11.897 7.95443 11.4992 7.80208 11.1226 7.63281C10.7502 7.46354 10.4201 7.26676 10.1323 7.04248C9.8488 6.81396 9.62451 6.54948 9.45947 6.24902C9.29867 5.94857 9.21826 5.59945 9.21826 5.20166C9.21826 4.81657 9.3029 4.46745 9.47217 4.1543C9.64144 3.83691 9.87842 3.56608 10.1831 3.3418C10.4878 3.11328 10.8475 2.93766 11.2622 2.81494C11.6812 2.69222 12.1403 2.63086 12.6396 2.63086C13.321 2.63086 13.9155 2.75358 14.4233 2.99902C14.9312 3.24447 15.3247 3.58089 15.604 4.0083C15.8875 4.43571 16.0293 4.92448 16.0293 5.47461H14.1377C14.1377 5.20378 14.0806 4.9668 13.9663 4.76367C13.8563 4.55632 13.687 4.39339 13.4585 4.2749C13.2342 4.15641 12.9507 4.09717 12.6079 4.09717C12.2778 4.09717 12.0028 4.14795 11.7827 4.24951C11.5627 4.34684 11.3976 4.48014 11.2876 4.64941C11.1776 4.81445 11.1226 5.00065 11.1226 5.20801C11.1226 5.36458 11.1606 5.50635 11.2368 5.6333C11.3172 5.76025 11.4357 5.87874 11.5923 5.98877C11.7489 6.0988 11.9414 6.20247 12.1699 6.2998C12.3984 6.39714 12.6629 6.49235 12.9634 6.58545C13.467 6.73779 13.9092 6.90918 14.29 7.09961C14.6751 7.29004 14.9967 7.50374 15.2549 7.74072C15.513 7.9777 15.7077 8.24642 15.8389 8.54688C15.9701 8.84733 16.0356 9.18799 16.0356 9.56885C16.0356 9.97087 15.9574 10.3306 15.8008 10.6479C15.6442 10.9653 15.4178 11.234 15.1216 11.4541C14.8254 11.6742 14.472 11.8413 14.0615 11.9556C13.651 12.0698 13.1919 12.127 12.6841 12.127C12.2271 12.127 11.7764 12.0677 11.332 11.9492C10.8877 11.8265 10.4836 11.6424 10.1196 11.397C9.75993 11.1515 9.47217 10.8384 9.25635 10.4575C9.04053 10.0767 8.93262 9.62598 8.93262 9.10547H10.8433C10.8433 9.39323 10.8877 9.63656 10.9766 9.83545C11.0654 10.0343 11.1903 10.1951 11.3511 10.3179C11.5161 10.4406 11.7108 10.5295 11.9351 10.5845C12.1636 10.6395 12.4132 10.667 12.6841 10.667C13.0142 10.667 13.285 10.6204 13.4966 10.5273C13.7124 10.4342 13.8711 10.3052 13.9727 10.1401C14.0785 9.9751 14.1313 9.7889 14.1313 9.58154Z" fill="black"/>
<path d="M61.001 2.75781H62.6133L64.9873 9.54346L67.3613 2.75781H68.9736L65.6348 12H64.3398L61.001 2.75781ZM60.1313 2.75781H61.7373L62.0293 9.37207V12H60.1313V2.75781ZM68.2373 2.75781H69.8496V12H67.9453V9.37207L68.2373 2.75781Z" fill="black"/>
<path d="M118.427 2.75781V12H116.529V2.75781H118.427ZM121.271 2.75781V4.24951H113.729V2.75781H121.271Z" fill="black"/>
<path d="M166.866 10.5337L168.707 2.75781H169.735L169.97 4.05273L168.008 12H166.904L166.866 10.5337ZM165.92 2.75781L167.443 10.5337L167.316 12H166.085L164.035 2.75781H165.92ZM171.588 10.502L173.093 2.75781H174.978L172.934 12H171.703L171.588 10.502ZM170.312 2.75781L172.166 10.5654L172.115 12H171.011L169.037 4.04639L169.291 2.75781H170.312Z" fill="black"/>
<path d="M221.927 2.75781V12H220.029V2.75781H221.927ZM224.771 2.75781V4.24951H217.229V2.75781H224.771Z" fill="black"/>
<path d="M271.662 2.75781V12H269.758V2.75781H271.662ZM275.344 6.70605V8.19141H271.142V6.70605H275.344ZM275.788 2.75781V4.24951H271.142V2.75781H275.788Z" fill="black"/>
<path d="M326.131 9.58154C326.131 9.4165 326.106 9.26839 326.055 9.13721C326.009 9.00179 325.92 8.87907 325.789 8.76904C325.657 8.65479 325.473 8.54264 325.236 8.43262C324.999 8.32259 324.693 8.20833 324.316 8.08984C323.897 7.95443 323.499 7.80208 323.123 7.63281C322.75 7.46354 322.42 7.26676 322.132 7.04248C321.849 6.81396 321.625 6.54948 321.459 6.24902C321.299 5.94857 321.218 5.59945 321.218 5.20166C321.218 4.81657 321.303 4.46745 321.472 4.1543C321.641 3.83691 321.878 3.56608 322.183 3.3418C322.488 3.11328 322.847 2.93766 323.262 2.81494C323.681 2.69222 324.14 2.63086 324.64 2.63086C325.321 2.63086 325.916 2.75358 326.423 2.99902C326.931 3.24447 327.325 3.58089 327.604 4.0083C327.888 4.43571 328.029 4.92448 328.029 5.47461H326.138C326.138 5.20378 326.081 4.9668 325.966 4.76367C325.856 4.55632 325.687 4.39339 325.458 4.2749C325.234 4.15641 324.951 4.09717 324.608 4.09717C324.278 4.09717 324.003 4.14795 323.783 4.24951C323.563 4.34684 323.398 4.48014 323.288 4.64941C323.178 4.81445 323.123 5.00065 323.123 5.20801C323.123 5.36458 323.161 5.50635 323.237 5.6333C323.317 5.76025 323.436 5.87874 323.592 5.98877C323.749 6.0988 323.941 6.20247 324.17 6.2998C324.398 6.39714 324.663 6.49235 324.963 6.58545C325.467 6.73779 325.909 6.90918 326.29 7.09961C326.675 7.29004 326.997 7.50374 327.255 7.74072C327.513 7.9777 327.708 8.24642 327.839 8.54688C327.97 8.84733 328.036 9.18799 328.036 9.56885C328.036 9.97087 327.957 10.3306 327.801 10.6479C327.644 10.9653 327.418 11.234 327.122 11.4541C326.825 11.6742 326.472 11.8413 326.062 11.9556C325.651 12.0698 325.192 12.127 324.684 12.127C324.227 12.127 323.776 12.0677 323.332 11.9492C322.888 11.8265 322.484 11.6424 322.12 11.397C321.76 11.1515 321.472 10.8384 321.256 10.4575C321.041 10.0767 320.933 9.62598 320.933 9.10547H322.843C322.843 9.39323 322.888 9.63656 322.977 9.83545C323.065 10.0343 323.19 10.1951 323.351 10.3179C323.516 10.4406 323.711 10.5295 323.935 10.5845C324.164 10.6395 324.413 10.667 324.684 10.667C325.014 10.667 325.285 10.6204 325.497 10.5273C325.712 10.4342 325.871 10.3052 325.973 10.1401C326.078 9.9751 326.131 9.7889 326.131 9.58154Z" fill="black"/>
</svg>
