<svg width="48" height="16" viewBox="0 0 48 16" fill="none" xmlns="http://www.w3.org/2000/svg">
<path d="M10.3491 7.40234L9.4507 13.3398C9.05357 13.7826 8.57505 14.1406 8.01516 14.4141C7.45526 14.6875 6.86932 14.8861 6.25734 15.0098C5.64536 15.14 5.04966 15.1986 4.47023 15.1855C3.59133 15.1725 2.8524 15 2.25344 14.668C1.66099 14.3294 1.19875 13.8737 0.866718 13.3008C0.534687 12.7214 0.316588 12.0671 0.212421 11.3379C0.114765 10.6087 0.114765 9.85352 0.212421 9.07227L0.57375 6.72852C0.677916 5.9082 0.876484 5.12695 1.16945 4.38477C1.46242 3.64258 1.84328 2.98177 2.31203 2.40234C2.78729 1.82292 3.36672 1.37044 4.05031 1.04492C4.73391 0.712891 5.52818 0.556641 6.43312 0.576172C7.44875 0.589193 8.27557 0.800781 8.91359 1.21094C9.55812 1.61458 10.0269 2.17773 10.3198 2.90039C10.6193 3.62305 10.7626 4.4694 10.7495 5.43945L7.62453 5.41992C7.64406 5.06185 7.63755 4.7168 7.605 4.38477C7.57245 4.05273 7.46177 3.7793 7.27297 3.56445C7.09068 3.3431 6.77818 3.22266 6.33547 3.20312C5.86672 3.17708 5.4826 3.27474 5.18312 3.49609C4.88365 3.71094 4.64276 4.00065 4.46047 4.36523C4.28469 4.72982 4.15122 5.12044 4.06008 5.53711C3.97544 5.95378 3.91034 6.34115 3.86477 6.69922L3.5132 9.08203C3.47414 9.40755 3.43508 9.76888 3.39602 10.166C3.35695 10.5566 3.36346 10.9342 3.41555 11.2988C3.46763 11.6569 3.60109 11.9531 3.81594 12.1875C4.03729 12.4219 4.38234 12.5423 4.85109 12.5488C5.05292 12.5553 5.22219 12.5326 5.35891 12.4805C5.50213 12.4284 5.64211 12.3633 5.77883 12.2852C5.91555 12.207 6.06854 12.1354 6.23781 12.0703L6.6968 9.75586H5.04641L5.45656 7.40234H10.3491ZM16.7927 12.2656L18.1599 4.43359H21.2947L19.4587 15H16.5486L16.7927 12.2656ZM17.3689 10.2344L18.0623 10.2246C18.0102 10.7324 17.919 11.2793 17.7888 11.8652C17.6586 12.4512 17.4633 13.0013 17.2029 13.5156C16.9425 14.0234 16.5942 14.4368 16.158 14.7559C15.7218 15.0684 15.1749 15.2181 14.5173 15.2051C13.9705 15.1986 13.5278 15.0781 13.1892 14.8438C12.8507 14.6029 12.5903 14.2904 12.408 13.9062C12.2257 13.5221 12.1117 13.1022 12.0662 12.6465C12.0206 12.1842 12.0239 11.7253 12.0759 11.2695L13.2185 4.43359H16.3435L15.1814 11.3086C15.1684 11.4193 15.1586 11.5527 15.1521 11.709C15.1521 11.8587 15.1684 12.0052 15.2009 12.1484C15.2335 12.2917 15.2921 12.4121 15.3767 12.5098C15.4614 12.6074 15.5883 12.6595 15.7576 12.666C16.1938 12.6921 16.5193 12.5684 16.7341 12.2949C16.949 12.0215 17.0987 11.6927 17.1834 11.3086C17.268 10.918 17.3298 10.5599 17.3689 10.2344ZM26.9375 4.43359L25.1113 15H21.9766L23.8125 4.43359H26.9375ZM24.1348 1.75781C24.1348 1.26953 24.3008 0.872396 24.6328 0.566406C24.9648 0.260417 25.3652 0.104167 25.834 0.0976562C26.2962 0.0911458 26.6901 0.234375 27.0156 0.527344C27.3477 0.813802 27.5137 1.19466 27.5137 1.66992C27.5137 2.15169 27.3477 2.54557 27.0156 2.85156C26.6836 3.15755 26.2832 3.3138 25.8145 3.32031C25.3522 3.32682 24.9583 3.18685 24.6328 2.90039C24.3073 2.60742 24.1413 2.22656 24.1348 1.75781ZM32.9123 12.3926L35.0608 0H38.1955L35.5979 15H32.8049L32.9123 12.3926ZM28.1955 10.2344L28.3127 9.24805C28.3843 8.66862 28.5015 8.07943 28.6643 7.48047C28.8271 6.875 29.0549 6.32487 29.3479 5.83008C29.6474 5.32878 30.038 4.93164 30.5198 4.63867C31.008 4.33919 31.607 4.20573 32.3166 4.23828C32.9026 4.26432 33.3551 4.47266 33.6741 4.86328C33.9996 5.2474 34.2307 5.7194 34.3674 6.2793C34.5041 6.83268 34.5855 7.39583 34.6116 7.96875C34.6376 8.54167 34.6441 9.02995 34.6311 9.43359L34.5334 10.1172C34.4618 10.5599 34.3414 11.0742 34.1721 11.6602C34.0093 12.2461 33.7815 12.8125 33.4885 13.3594C33.2021 13.9062 32.8472 14.3555 32.4241 14.707C32.0074 15.0586 31.5093 15.2246 30.9299 15.2051C30.2463 15.1921 29.7092 15.0293 29.3186 14.7168C28.928 14.3978 28.6415 13.9909 28.4592 13.4961C28.2834 12.9948 28.1793 12.4577 28.1467 11.8848C28.1207 11.3118 28.137 10.7617 28.1955 10.2344ZM31.428 9.24805L31.3108 10.2441C31.2978 10.4264 31.2717 10.651 31.2327 10.918C31.1936 11.1784 31.1741 11.4421 31.1741 11.709C31.1806 11.9759 31.2392 12.2005 31.3498 12.3828C31.4605 12.5651 31.6623 12.6628 31.9553 12.6758C32.3655 12.6953 32.6812 12.5814 32.9026 12.334C33.1239 12.0866 33.2769 11.7839 33.3616 11.4258C33.4527 11.0612 33.508 10.7161 33.5276 10.3906L33.6838 9.18945C33.7034 8.99414 33.7327 8.76302 33.7717 8.49609C33.8173 8.22917 33.8303 7.96549 33.8108 7.70508C33.7913 7.44466 33.7164 7.22656 33.5862 7.05078C33.4625 6.875 33.2444 6.77734 32.9319 6.75781C32.6064 6.74479 32.3459 6.81966 32.1506 6.98242C31.9553 7.13867 31.8088 7.35026 31.7112 7.61719C31.62 7.8776 31.5549 8.1543 31.5159 8.44727C31.4768 8.73372 31.4475 9.00065 31.428 9.24805ZM42.5786 15.1953C41.8885 15.1823 41.2798 15.0553 40.7524 14.8145C40.2316 14.5736 39.8019 14.2415 39.4634 13.8184C39.1313 13.3887 38.897 12.8906 38.7602 12.3242C38.6235 11.7513 38.5845 11.1296 38.643 10.459L38.7895 9.30664C38.8807 8.59049 39.0434 7.92318 39.2778 7.30469C39.5122 6.6862 39.8279 6.14258 40.2251 5.67383C40.6287 5.20508 41.1203 4.84375 41.6997 4.58984C42.2791 4.32943 42.9627 4.21224 43.7505 4.23828C44.4601 4.25781 45.046 4.40755 45.5083 4.6875C45.977 4.96745 46.3384 5.3418 46.5923 5.81055C46.8527 6.2793 47.022 6.80664 47.1001 7.39258C47.1782 7.97852 47.1815 8.58724 47.1098 9.21875L46.8852 10.752H39.7368L40.0981 8.69141L44.0923 8.70117L44.1606 8.31055C44.1932 8.07617 44.216 7.84505 44.229 7.61719C44.242 7.38281 44.1964 7.1875 44.0923 7.03125C43.9946 6.86849 43.796 6.77409 43.4966 6.74805C43.132 6.73503 42.852 6.8099 42.6567 6.97266C42.4614 7.12891 42.3149 7.34049 42.2173 7.60742C42.1261 7.86784 42.061 8.15104 42.022 8.45703C41.9829 8.75651 41.9503 9.03971 41.9243 9.30664L41.7778 10.4688C41.7518 10.7292 41.7355 10.9863 41.729 11.2402C41.7225 11.4876 41.7518 11.7188 41.8169 11.9336C41.8885 12.1419 42.0057 12.3112 42.1684 12.4414C42.3377 12.5651 42.5884 12.6335 42.9204 12.6465C43.324 12.6595 43.7049 12.5944 44.063 12.4512C44.421 12.3014 44.7433 12.0833 45.0298 11.7969L46.1821 13.8184C45.9152 14.1699 45.5766 14.4466 45.1665 14.6484C44.7628 14.8438 44.3332 14.9837 43.8774 15.0684C43.4282 15.1595 42.9953 15.2018 42.5786 15.1953Z" fill="white"/>
<path d="M10.3491 7.40234L11.3379 7.55196L11.5118 6.40234H10.3491V7.40234ZM9.4507 13.3398L10.1951 14.0076L10.3947 13.7851L10.4394 13.4895L9.4507 13.3398ZM6.25734 15.0098L6.05921 14.0295L6.04924 14.0317L6.25734 15.0098ZM4.47023 15.1855L4.4927 14.1858L4.48505 14.1857L4.47023 15.1855ZM2.25344 14.668L1.75726 15.5363L1.7686 15.5426L2.25344 14.668ZM0.866718 13.3008L-0.000934656 13.798L0.00151647 13.8022L0.866718 13.3008ZM0.212421 11.3379L-0.778767 11.4706L-0.777528 11.4793L0.212421 11.3379ZM0.212421 9.07227L-0.775903 8.9199L-0.778082 8.93404L-0.779856 8.94823L0.212421 9.07227ZM0.57375 6.72852L1.56207 6.88088L1.5641 6.86771L1.56578 6.85449L0.57375 6.72852ZM2.31203 2.40234L1.53883 1.76815L1.53458 1.7734L2.31203 2.40234ZM4.05031 1.04492L4.48026 1.94781L4.48722 1.94443L4.05031 1.04492ZM6.43312 0.576172L6.41155 1.57598L6.42031 1.57609L6.43312 0.576172ZM8.91359 1.21094L8.3728 2.05217L8.38283 2.05845L8.91359 1.21094ZM10.3198 2.90039L9.39308 3.27611L9.39603 3.28323L10.3198 2.90039ZM10.7495 5.43945L10.7433 6.43943L11.7361 6.44564L11.7494 5.45287L10.7495 5.43945ZM7.62453 5.41992L6.62602 5.36546L6.56886 6.41334L7.61828 6.4199L7.62453 5.41992ZM7.27297 3.56445L6.50104 4.20016L6.51123 4.21253L6.5218 4.22457L7.27297 3.56445ZM6.33547 3.20312L6.27999 4.20165L6.29139 4.20215L6.33547 3.20312ZM5.18312 3.49609L5.76603 4.30863L5.7718 4.30449L5.77752 4.30027L5.18312 3.49609ZM4.46047 4.36523L3.56604 3.91802L3.56282 3.92446L3.5597 3.93094L4.46047 4.36523ZM4.06008 5.53711L3.08318 5.32341L3.08158 5.33072L3.08009 5.33805L4.06008 5.53711ZM3.86477 6.69922L4.85406 6.84518L4.85551 6.83534L4.85676 6.82547L3.86477 6.69922ZM3.5132 9.08203L2.52391 8.93607L2.52194 8.94945L2.52033 8.96289L3.5132 9.08203ZM3.39602 10.166L4.39105 10.2655L4.39121 10.2639L3.39602 10.166ZM3.41555 11.2988L2.42559 11.4402L2.42596 11.4428L3.41555 11.2988ZM3.81594 12.1875L3.07878 12.8632L3.08381 12.8687L3.08892 12.8741L3.81594 12.1875ZM4.85109 12.5488L4.88333 11.5493L4.87416 11.5491L4.86498 11.5489L4.85109 12.5488ZM5.35891 12.4805L5.01716 11.5407L5.01002 11.5433L5.00291 11.546L5.35891 12.4805ZM6.23781 12.0703L6.59679 13.0037L7.11145 12.8057L7.21871 12.2648L6.23781 12.0703ZM6.6968 9.75586L7.67769 9.95038L7.91458 8.75586H6.6968V9.75586ZM5.04641 9.75586L4.06125 9.58417L3.85706 10.7559H5.04641V9.75586ZM5.45656 7.40234V6.40234H4.61576L4.47141 7.23066L5.45656 7.40234ZM9.3604 7.25273L8.46196 13.1902L10.4394 13.4895L11.3379 7.55196L9.3604 7.25273ZM8.70632 12.6721C8.39929 13.0144 8.02606 13.2959 7.57632 13.5155L8.45399 15.3126C9.12404 14.9854 9.70785 14.5507 10.1951 14.0076L8.70632 12.6721ZM7.57632 13.5155C7.09302 13.7515 6.58799 13.9227 6.05922 14.0296L6.45546 15.9899C7.15066 15.8494 7.8175 15.6235 8.45399 15.3126L7.57632 13.5155ZM6.04924 14.0317C5.50705 14.147 4.98882 14.1969 4.4927 14.1858L4.44777 16.1853C5.1105 16.2002 5.78368 16.1329 6.46545 15.9879L6.04924 14.0317ZM4.48505 14.1857C3.72531 14.1744 3.15817 14.0261 2.73827 13.7934L1.7686 15.5426C2.54662 15.9739 3.45734 16.1707 4.45542 16.1854L4.48505 14.1857ZM2.74958 13.7997C2.30548 13.546 1.97268 13.2148 1.73192 12.7994L0.00151647 13.8022C0.424822 14.5326 1.0165 15.1129 1.7573 15.5362L2.74958 13.7997ZM1.73436 12.8036C1.47141 12.3447 1.29049 11.8133 1.20237 11.1965L-0.777528 11.4793C-0.657311 12.3208 -0.402038 13.098 -0.000924289 13.798L1.73436 12.8036ZM1.20357 11.2051C1.1181 10.5669 1.11696 9.89822 1.2047 9.1963L-0.779856 8.94823C-0.887429 9.80881 -0.888565 10.6505 -0.778729 11.4706L1.20357 11.2051ZM1.20075 9.22463L1.56207 6.88088L-0.414574 6.57615L-0.775903 8.9199L1.20075 9.22463ZM1.56578 6.85449C1.65984 6.11383 1.83833 5.41384 2.09961 4.75193L0.239297 4.0176C-0.0853602 4.84007 -0.304003 5.70258 -0.418284 6.60254L1.56578 6.85449ZM2.09961 4.75193C2.3579 4.09759 2.68899 3.52633 3.08948 3.03129L1.53458 1.7734C0.997567 2.43721 0.56694 3.18757 0.239297 4.0176L2.09961 4.75193ZM3.08521 3.03653C3.46622 2.57202 3.92801 2.21075 4.48025 1.94778L3.62038 0.142061C2.80542 0.530136 2.10837 1.07382 1.53885 1.76816L3.08521 3.03653ZM4.48722 1.94443C5.00327 1.69378 5.6351 1.55918 6.41155 1.57594L6.4547 -0.423595C5.42125 -0.4459 4.46454 -0.267996 3.61341 0.145414L4.48722 1.94443ZM6.42031 1.57609C7.31034 1.5875 7.9374 1.77219 8.37284 2.05212L9.45435 0.369759C8.61375 -0.170629 7.58716 -0.409115 6.44594 -0.423746L6.42031 1.57609ZM8.38283 2.05845C8.84423 2.34741 9.17705 2.74316 9.3931 3.2761L11.2466 2.52469C10.8767 1.61231 10.272 0.881754 9.44436 0.36342L8.38283 2.05845ZM9.39603 3.28323C9.63259 3.85406 9.76124 4.5602 9.74962 5.42603L11.7494 5.45287C11.7639 4.3786 11.6061 3.39203 11.2437 2.51755L9.39603 3.28323ZM10.7558 4.43947L7.63078 4.41994L7.61828 6.4199L10.7433 6.43943L10.7558 4.43947ZM8.62305 5.47439C8.64514 5.06937 8.63809 4.67334 8.60023 4.28719L6.60977 4.48234C6.63702 4.76025 6.64299 5.05433 6.62602 5.36546L8.62305 5.47439ZM8.60023 4.28719C8.55075 3.78253 8.37319 3.30154 8.02413 2.90434L6.5218 4.22457C6.55035 4.25705 6.59414 4.32293 6.60977 4.48234L8.60023 4.28719ZM8.0449 2.92875C7.60374 2.39306 6.95212 2.22936 6.37954 2.2041L6.29139 4.20215C6.43748 4.2086 6.51356 4.23015 6.54224 4.2412C6.56493 4.24995 6.53656 4.24329 6.50104 4.20016L8.0449 2.92875ZM6.39094 2.20466C5.75171 2.16915 5.12019 2.2991 4.58873 2.69192L5.77752 4.30027C5.84502 4.25038 5.98173 4.18501 6.28 4.20159L6.39094 2.20466ZM4.60022 2.68356C4.15524 3.00278 3.81313 3.42384 3.56604 3.91802L5.3549 4.81245C5.47239 4.57747 5.61205 4.4191 5.76603 4.30863L4.60022 2.68356ZM3.5597 3.93094C3.34825 4.3695 3.19011 4.83458 3.08318 5.32341L5.03698 5.75081C5.11234 5.4063 5.22113 5.09013 5.36124 4.79953L3.5597 3.93094ZM3.08009 5.33805C2.99139 5.77472 2.92193 6.18666 2.87277 6.57296L4.85676 6.82547C4.89874 6.49564 4.95949 6.13283 5.04006 5.73617L3.08009 5.33805ZM2.87547 6.55326L2.52391 8.93607L4.50249 9.22799L4.85406 6.84518L2.87547 6.55326ZM2.52033 8.96289C2.48026 9.2968 2.44043 9.66536 2.40082 10.0681L4.39121 10.2639C4.42972 9.8724 4.46802 9.5183 4.50608 9.20118L2.52033 8.96289ZM2.40098 10.0665C2.35442 10.5321 2.36139 10.9908 2.4256 11.4402L4.4055 11.1574C4.36554 10.8777 4.35949 10.5812 4.39105 10.2655L2.40098 10.0665ZM2.42596 11.4428C2.50281 11.9711 2.71021 12.4611 3.07878 12.8632L4.55309 11.5118C4.49198 11.4451 4.43245 11.3427 4.40513 11.1549L2.42596 11.4428ZM3.08892 12.8741C3.56625 13.3795 4.22153 13.5402 4.83721 13.5487L4.86498 11.5489C4.54316 11.5445 4.50833 11.4642 4.54295 11.5009L3.08892 12.8741ZM4.81885 13.5483C5.10607 13.5576 5.41688 13.5285 5.7149 13.415L5.00291 11.546C5.01709 11.5406 5.01685 11.5428 4.996 11.5456C4.97509 11.5484 4.93857 11.5511 4.88333 11.5493L4.81885 13.5483ZM5.70065 13.4203C5.89902 13.3481 6.09054 13.2588 6.27497 13.1534L5.28269 11.4169C5.19368 11.4678 5.10525 11.5086 5.01716 11.5407L5.70065 13.4203ZM6.27497 13.1534C6.36167 13.1039 6.46789 13.0532 6.59679 13.0037L5.87883 11.137C5.6692 11.2176 5.46942 11.3102 5.28269 11.4169L6.27497 13.1534ZM7.21871 12.2648L7.67769 9.95038L5.7159 9.56134L5.25691 11.8758L7.21871 12.2648ZM6.6968 8.75586H5.04641V10.7559H6.6968V8.75586ZM6.03156 9.92755L6.44171 7.57403L4.47141 7.23066L4.06125 9.58417L6.03156 9.92755ZM5.45656 8.40234H10.3491V6.40234H5.45656V8.40234ZM16.7927 12.2656L15.8076 12.0937L15.8004 12.1349L15.7967 12.1767L16.7927 12.2656ZM18.1599 4.43359V3.43359H17.3194L17.1748 4.26163L18.1599 4.43359ZM21.2947 4.43359L22.2799 4.60478L22.4834 3.43359H21.2947V4.43359ZM19.4587 15V16H20.3L20.444 15.1712L19.4587 15ZM16.5486 15L15.5526 14.9111L15.4553 16H16.5486V15ZM17.3689 10.2344L17.3548 9.23447L16.4802 9.24679L16.376 10.1152L17.3689 10.2344ZM18.0623 10.2246L19.057 10.3266L19.1717 9.20888L18.0482 9.22471L18.0623 10.2246ZM17.2029 13.5156L18.0927 13.9719L18.095 13.9674L17.2029 13.5156ZM16.158 14.7559L16.7404 15.5688L16.7483 15.563L16.158 14.7559ZM14.5173 15.2051L14.5371 14.2052L14.5292 14.2051L14.5173 15.2051ZM13.1892 14.8438L12.6094 15.6586L12.62 15.6659L13.1892 14.8438ZM12.408 13.9062L11.5045 14.335L12.408 13.9062ZM12.0662 12.6465L11.071 12.7446L11.0711 12.746L12.0662 12.6465ZM12.0759 11.2695L11.0896 11.1047L11.0853 11.1302L11.0824 11.156L12.0759 11.2695ZM13.2185 4.43359V3.43359H12.3718L12.2322 4.26874L13.2185 4.43359ZM16.3435 4.43359L17.3295 4.60026L17.5267 3.43359H16.3435V4.43359ZM15.1814 11.3086L14.1954 11.1419L14.1912 11.1667L14.1883 11.1918L15.1814 11.3086ZM15.1521 11.709L14.153 11.6674L14.1521 11.6882V11.709H15.1521ZM15.7576 12.666L15.8172 11.6678L15.8066 11.6672L15.796 11.6668L15.7576 12.666ZM17.1834 11.3086L18.1599 11.5238L18.1607 11.5203L17.1834 11.3086ZM17.7778 12.4376L19.145 4.60556L17.1748 4.26163L15.8076 12.0937L17.7778 12.4376ZM18.1599 5.43359H21.2947V3.43359H18.1599V5.43359ZM20.3094 4.26241L18.4735 14.8288L20.444 15.1712L22.2799 4.60478L20.3094 4.26241ZM19.4587 14H16.5486V16H19.4587V14ZM17.5446 15.0889L17.7888 12.3546L15.7967 12.1767L15.5526 14.9111L17.5446 15.0889ZM17.383 11.2343L18.0763 11.2245L18.0482 9.22471L17.3548 9.23447L17.383 11.2343ZM17.0675 10.1226C17.02 10.5858 16.9358 11.0939 16.8126 11.6483L18.765 12.0822C18.9022 11.4647 19.0004 10.8791 19.057 10.3266L17.0675 10.1226ZM16.8126 11.6483C16.6998 12.1561 16.5319 12.627 16.3107 13.0639L18.095 13.9674C18.3947 13.3756 18.6174 12.7462 18.765 12.0822L16.8126 11.6483ZM16.3131 13.0593C16.1197 13.4364 15.871 13.7268 15.5676 13.9487L16.7483 15.563C17.3173 15.1469 17.7653 14.6105 18.0927 13.9719L16.3131 13.0593ZM15.5756 13.9429C15.3512 14.1037 15.0288 14.215 14.5371 14.2053L14.4975 16.2049C15.321 16.2212 16.0923 16.033 16.7404 15.5688L15.5756 13.9429ZM14.5292 14.2051C14.1174 14.2002 13.8872 14.1107 13.7584 14.0216L12.62 15.6659C13.1684 16.0456 13.8235 16.1969 14.5054 16.205L14.5292 14.2051ZM13.769 14.029C13.5728 13.8894 13.4223 13.7112 13.3114 13.4775L11.5045 14.335C11.7582 14.8696 12.1285 15.3163 12.6095 15.6585L13.769 14.029ZM13.3114 13.4775C13.182 13.2048 13.0962 12.8974 13.0612 12.547L11.0711 12.746C11.1272 13.3071 11.2694 13.8395 11.5045 14.335L13.3114 13.4775ZM13.0613 12.5484C13.0226 12.1556 13.0255 11.7676 13.0695 11.3831L11.0824 11.156C11.0222 11.6829 11.0186 12.2128 11.071 12.7446L13.0613 12.5484ZM13.0623 11.4344L14.2048 4.59845L12.2322 4.26874L11.0896 11.1047L13.0623 11.4344ZM13.2185 5.43359H16.3435V3.43359H13.2185V5.43359ZM15.3575 4.26692L14.1954 11.1419L16.1674 11.4753L17.3295 4.60026L15.3575 4.26692ZM14.1883 11.1918C14.1714 11.3351 14.1602 11.4951 14.153 11.6674L16.1512 11.7506C16.1571 11.6103 16.1654 11.5034 16.1746 11.4254L14.1883 11.1918ZM14.1521 11.709C14.1521 11.9318 14.1764 12.1527 14.2258 12.3701L16.1761 11.9268C16.1604 11.8577 16.1521 11.7856 16.1521 11.709H14.1521ZM14.2258 12.3701C14.2898 12.6514 14.4148 12.9267 14.621 13.1647L16.1324 11.8548C16.1493 11.8743 16.1611 11.8934 16.1685 11.9087C16.1758 11.9236 16.177 11.9309 16.1761 11.9268L14.2258 12.3701ZM14.621 13.1647C14.9385 13.531 15.3637 13.6516 15.7191 13.6653L15.796 11.6668C15.8021 11.667 15.8479 11.6694 15.915 11.6969C15.9871 11.7265 16.0659 11.7781 16.1324 11.8548L14.621 13.1647ZM15.698 13.6642C16.3671 13.7042 17.0509 13.5103 17.5205 12.9127L15.9478 11.6771C15.9476 11.6774 15.9486 11.6761 15.951 11.6738C15.9533 11.6715 15.9564 11.6688 15.9601 11.6661C15.9681 11.6602 15.9738 11.6579 15.9736 11.658C15.9723 11.6585 15.9289 11.6745 15.8172 11.6678L15.698 13.6642ZM17.5205 12.9127C17.8397 12.5065 18.0472 12.0354 18.1599 11.5238L16.2068 11.0934C16.1502 11.3501 16.0583 11.5365 15.9478 11.6771L17.5205 12.9127ZM18.1607 11.5203C18.2506 11.1055 18.3183 10.716 18.3618 10.3535L16.376 10.1152C16.3414 10.4038 16.2854 10.7305 16.206 11.0968L18.1607 11.5203ZM26.9375 4.43359L27.9229 4.6039L28.1252 3.43359H26.9375V4.43359ZM25.1113 15V16H25.9533L26.0967 15.1703L25.1113 15ZM21.9766 15L20.9913 14.8288L20.7878 16H21.9766V15ZM23.8125 4.43359V3.43359H22.9713L22.8273 4.26241L23.8125 4.43359ZM24.1348 1.75781L23.1347 1.75781L23.1349 1.7717L24.1348 1.75781ZM25.834 0.0976562L25.8479 1.09756L25.8481 1.09756L25.834 0.0976562ZM27.0156 0.527344L26.3467 1.27064L26.3545 1.27765L26.3624 1.2845L27.0156 0.527344ZM25.8145 3.32031L25.8006 2.32041L25.8004 2.32041L25.8145 3.32031ZM24.6328 2.90039L23.9638 3.64373L23.9722 3.6511L24.6328 2.90039ZM25.9521 4.26329L24.1259 14.8297L26.0967 15.1703L27.9229 4.6039L25.9521 4.26329ZM25.1113 14H21.9766V16H25.1113V14ZM22.9618 15.1712L24.7977 4.60478L22.8273 4.26241L20.9913 14.8288L22.9618 15.1712ZM23.8125 5.43359H26.9375V3.43359H23.8125V5.43359ZM25.1348 1.75781C25.1348 1.52347 25.2019 1.40184 25.3105 1.30176L23.9551 -0.16895C23.3997 0.342951 23.1348 1.01559 23.1348 1.75781H25.1348ZM25.3105 1.30176C25.4539 1.16958 25.6151 1.10079 25.8479 1.09756L25.8201 -0.902247C25.1154 -0.89246 24.4758 -0.648744 23.9551 -0.16895L25.3105 1.30176ZM25.8481 1.09756C26.0738 1.09438 26.2195 1.15619 26.3467 1.27064L27.6846 -0.21595C27.1607 -0.687444 26.5186 -0.912086 25.8199 -0.902245L25.8481 1.09756ZM26.3624 1.2845C26.4542 1.36372 26.5137 1.45792 26.5137 1.66992H28.5137C28.5137 0.931401 28.2411 0.263887 27.6689 -0.229813L26.3624 1.2845ZM26.5137 1.66992C26.5137 1.89332 26.4496 2.01333 26.3379 2.11621L27.6933 3.58692C28.2457 3.07781 28.5137 2.41006 28.5137 1.66992H26.5137ZM26.3379 2.11621C26.1945 2.24839 26.0334 2.31718 25.8006 2.32041L25.8283 4.32022C26.533 4.31043 27.1727 4.06671 27.6933 3.58692L26.3379 2.11621ZM25.8004 2.32041C25.5683 2.32368 25.4197 2.26081 25.2934 2.14968L23.9722 3.6511C24.4969 4.11289 25.1362 4.32996 25.8285 4.32021L25.8004 2.32041ZM25.3018 2.1571C25.1992 2.06476 25.1376 1.95605 25.1347 1.74392L23.1349 1.7717C23.1449 2.49707 23.4154 3.15008 23.9638 3.64368L25.3018 2.1571ZM32.9123 12.3926L31.927 12.2218L31.9159 12.2861L31.9132 12.3514L32.9123 12.3926ZM35.0608 0V-1H34.2192L34.0755 -0.170817L35.0608 0ZM38.1955 0L39.1809 0.170637L39.3836 -1H38.1955V0ZM35.5979 15V16H36.4396L36.5832 15.1706L35.5979 15ZM32.8049 15L31.8058 14.9588L31.7629 16H32.8049V15ZM28.1955 10.2344L27.2025 10.1164L27.2017 10.1239L28.1955 10.2344ZM28.3127 9.24805L27.3203 9.12538L27.3197 9.13006L28.3127 9.24805ZM28.6643 7.48047L29.6293 7.7427L29.63 7.74007L28.6643 7.48047ZM29.3479 5.83008L28.4894 5.31722L28.4874 5.32059L29.3479 5.83008ZM30.5198 4.63867L31.0394 5.4931L31.0426 5.49111L30.5198 4.63867ZM32.3166 4.23828L32.2708 5.23723L32.2722 5.2373L32.3166 4.23828ZM33.6741 4.86328L32.8995 5.49582L32.9053 5.50286L32.9112 5.5098L33.6741 4.86328ZM34.3674 6.2793L33.396 6.51651L33.3966 6.51914L34.3674 6.2793ZM34.6311 9.43359L35.621 9.57502L35.6288 9.52069L35.6306 9.46584L34.6311 9.43359ZM34.5334 10.1172L35.5206 10.2769L35.5221 10.2678L35.5234 10.2586L34.5334 10.1172ZM34.1721 11.6602L33.2113 11.3826L33.2086 11.3925L34.1721 11.6602ZM33.4885 13.3594L32.607 12.8871L32.6027 12.8954L33.4885 13.3594ZM32.4241 14.707L31.785 13.9378L31.7792 13.9427L32.4241 14.707ZM30.9299 15.2051L30.9636 14.2056L30.9563 14.2054L30.949 14.2053L30.9299 15.2051ZM29.3186 14.7168L28.686 15.4914L28.6939 15.4977L29.3186 14.7168ZM28.4592 13.4961L27.5156 13.827L27.5182 13.8344L27.5209 13.8418L28.4592 13.4961ZM28.1467 11.8848L27.1477 11.9302L27.1483 11.9415L28.1467 11.8848ZM31.428 9.24805L32.4211 9.36489L32.4234 9.34585L32.4249 9.32675L31.428 9.24805ZM31.3108 10.2441L30.3176 10.1273L30.315 10.15L30.3133 10.1729L31.3108 10.2441ZM31.2327 10.918L32.2216 11.0663L32.2221 11.0628L31.2327 10.918ZM31.1741 11.709H30.1741V11.7212L30.1744 11.7334L31.1741 11.709ZM31.3498 12.3828L30.4951 12.9018L31.3498 12.3828ZM31.9553 12.6758L32.0029 11.6769L31.9997 11.6768L31.9553 12.6758ZM32.9026 12.334L33.6478 13.0008L32.9026 12.334ZM33.3616 11.4258L32.3913 11.1832L32.3884 11.1958L33.3616 11.4258ZM33.5276 10.3906L32.5359 10.2616L32.5315 10.2961L32.5294 10.3307L33.5276 10.3906ZM33.6838 9.18945L34.6755 9.31845L34.6774 9.30373L34.6789 9.28896L33.6838 9.18945ZM33.7717 8.49609L32.786 8.3278L32.784 8.33952L32.7823 8.35129L33.7717 8.49609ZM33.5862 7.05078L32.7684 7.62627L32.7754 7.63623L32.7826 7.64601L33.5862 7.05078ZM32.9319 6.75781L32.9943 5.75976L32.9831 5.75906L32.9718 5.75861L32.9319 6.75781ZM32.1506 6.98242L32.7753 7.76329L32.7831 7.75704L32.7908 7.75064L32.1506 6.98242ZM31.7112 7.61719L30.772 7.27357L30.7673 7.28684L31.7112 7.61719ZM31.5159 8.44727L32.5067 8.58238L32.5071 8.57943L31.5159 8.44727ZM33.8976 12.5634L36.0461 0.170817L34.0755 -0.170817L31.927 12.2218L33.8976 12.5634ZM35.0608 1H38.1955V-1H35.0608V1ZM37.2102 -0.170637L34.6126 14.8294L36.5832 15.1706L39.1809 0.170637L37.2102 -0.170637ZM35.5979 14H32.8049V16H35.5979V14ZM33.8041 15.0412L33.9115 12.4337L31.9132 12.3514L31.8058 14.9588L33.8041 15.0412ZM29.1886 10.3524L29.3058 9.36603L27.3197 9.13006L27.2025 10.1164L29.1886 10.3524ZM29.3052 9.37071C29.3706 8.84125 29.4782 8.2987 29.6293 7.7427L27.6993 7.21824C27.5249 7.86015 27.3981 8.49599 27.3203 9.12538L29.3052 9.37071ZM29.63 7.74007C29.7713 7.21444 29.9656 6.74953 30.2084 6.33957L28.4874 5.32059C28.1442 5.90021 27.8828 6.53556 27.6986 7.22087L29.63 7.74007ZM30.2064 6.34293C30.4254 5.97621 30.7017 5.69842 31.0393 5.49309L30.0002 3.78425C29.3743 4.16486 28.8693 4.68134 28.4894 5.31722L30.2064 6.34293ZM31.0426 5.49111C31.3232 5.31899 31.7128 5.21163 32.2708 5.23723L32.3625 3.23933C31.5012 3.19982 30.6929 3.35939 29.9969 3.78623L31.0426 5.49111ZM32.2722 5.2373C32.6247 5.25296 32.7906 5.36241 32.8995 5.49582L34.4486 4.23075C33.9195 3.5829 33.1804 3.27568 32.361 3.23927L32.2722 5.2373ZM32.9112 5.5098C33.1227 5.75944 33.2907 6.08549 33.396 6.51651L35.3389 6.04208C35.1707 5.35332 34.8764 4.73535 34.437 4.21676L32.9112 5.5098ZM33.3966 6.51914C33.5175 7.00841 33.5895 7.50642 33.6126 8.01416L35.6105 7.92334C35.5815 7.28525 35.4908 6.65696 35.3382 6.03945L33.3966 6.51914ZM33.6126 8.01416C33.6379 8.57098 33.6435 9.0318 33.6316 9.40135L35.6306 9.46584C35.6447 9.0281 35.6373 8.51236 35.6105 7.92334L33.6126 8.01416ZM33.6411 9.29217L33.5435 9.97577L35.5234 10.2586L35.621 9.57502L33.6411 9.29217ZM33.5463 9.9575C33.4829 10.3492 33.3732 10.8226 33.2114 11.3826L35.1328 11.9377C35.3096 11.3258 35.4407 10.7706 35.5206 10.2769L33.5463 9.9575ZM33.2086 11.3925C33.066 11.906 32.8659 12.4039 32.607 12.8872L34.37 13.8316C34.6971 13.2211 34.9527 12.5862 35.1356 11.9278L33.2086 11.3925ZM32.6027 12.8954C32.3701 13.3395 32.0949 13.6804 31.785 13.9378L33.0631 15.4762C33.5996 15.0305 34.0341 14.473 34.3743 13.8234L32.6027 12.8954ZM31.7792 13.9427C31.5645 14.1239 31.3127 14.2174 30.9636 14.2056L30.8962 16.2045C31.706 16.2318 32.4503 15.9933 33.0689 15.4713L31.7792 13.9427ZM30.949 14.2053C30.406 14.1949 30.1083 14.0679 29.9433 13.9359L28.6939 15.4977C29.3101 15.9907 30.0866 16.1892 30.9109 16.2049L30.949 14.2053ZM29.9511 13.9423C29.7054 13.7416 29.521 13.4854 29.3976 13.1504L27.5209 13.8418C27.762 14.4963 28.1506 15.054 28.6861 15.4913L29.9511 13.9423ZM29.4029 13.1652C29.2605 12.7591 29.1728 12.3149 29.1451 11.828L27.1483 11.9415C27.1858 12.6005 27.3064 13.2305 27.5156 13.827L29.4029 13.1652ZM29.1457 11.8394C29.1218 11.3143 29.137 10.8165 29.1894 10.3448L27.2017 10.1239C27.1369 10.707 27.1195 11.3094 27.1478 11.9302L29.1457 11.8394ZM30.4348 9.13121L30.3176 10.1273L32.3039 10.361L32.4211 9.36489L30.4348 9.13121ZM30.3133 10.1729C30.3027 10.322 30.2802 10.5204 30.2432 10.7732L32.2221 11.0628C32.2632 10.7817 32.2929 10.5308 32.3082 10.3154L30.3133 10.1729ZM30.2437 10.7696C30.1972 11.0798 30.1741 11.3931 30.1741 11.709H32.1741C32.1741 11.491 32.19 11.277 32.2216 11.0663L30.2437 10.7696ZM30.1744 11.7334C30.1841 12.1315 30.2735 12.5369 30.4951 12.9018L32.2046 11.8638C32.2039 11.8626 32.1975 11.8519 32.1905 11.8252C32.1833 11.7976 32.1754 11.7523 32.1738 11.6846L30.1744 11.7334ZM30.4951 12.9018C30.8396 13.4692 31.4215 13.653 31.9109 13.6748L31.9997 11.6768C31.9491 11.6745 31.967 11.6671 32.0198 11.6926C32.0477 11.7061 32.082 11.7273 32.1172 11.7588C32.1526 11.7906 32.1821 11.8267 32.2046 11.8638L30.4951 12.9018ZM31.9077 13.6746C32.5405 13.7048 33.1787 13.5251 33.6478 13.0008L32.1573 11.6672C32.1559 11.6688 32.1572 11.6671 32.1607 11.6648C32.1641 11.6625 32.165 11.6627 32.1603 11.6643C32.1507 11.6678 32.105 11.6818 32.0029 11.6769L31.9077 13.6746ZM33.6478 13.0008C33.9921 12.616 34.216 12.1583 34.3347 11.6558L32.3884 11.1958C32.3379 11.4094 32.2558 11.5571 32.1573 11.6672L33.6478 13.0008ZM34.3317 11.6683C34.4356 11.2527 34.502 10.8461 34.5258 10.4505L32.5294 10.3307C32.514 10.5862 32.4698 10.8697 32.3914 11.1832L34.3317 11.6683ZM34.5192 10.5196L34.6755 9.31845L32.6922 9.06046L32.5359 10.2616L34.5192 10.5196ZM34.6789 9.28896C34.6964 9.11318 34.7236 8.89789 34.7612 8.64089L32.7823 8.35129C32.7417 8.62815 32.7103 8.8751 32.6888 9.08995L34.6789 9.28896ZM34.7575 8.66439C34.8162 8.32017 34.8338 7.97485 34.808 7.63029L32.8136 7.77987C32.8268 7.95614 32.8184 8.13816 32.786 8.3278L34.7575 8.66439ZM34.808 7.63029C34.7771 7.21847 34.6525 6.81026 34.3897 6.45555L32.7826 7.64601C32.7835 7.64718 32.7882 7.6535 32.7942 7.67088C32.8005 7.68932 32.8094 7.72376 32.8136 7.77987L34.808 7.63029ZM34.404 6.47529C34.037 5.95377 33.4662 5.78926 32.9943 5.75976L32.8695 7.75587C32.9413 7.76035 32.9496 7.77111 32.9212 7.75839C32.9054 7.75133 32.8802 7.73779 32.851 7.71446C32.8213 7.69073 32.7928 7.66097 32.7684 7.62627L34.404 6.47529ZM32.9718 5.75861C32.4707 5.73856 31.9449 5.85218 31.5104 6.2142L32.7908 7.75064C32.7842 7.75618 32.7774 7.76056 32.7717 7.76353C32.7661 7.76641 32.7645 7.76649 32.7687 7.76527C32.7779 7.76264 32.815 7.75394 32.8919 7.75701L32.9718 5.75861ZM31.5259 6.20155C31.1691 6.48701 30.9238 6.85885 30.772 7.27361L32.6503 7.96077C32.6939 7.84167 32.7415 7.79034 32.7753 7.76329L31.5259 6.20155ZM30.7673 7.28684C30.6521 7.61591 30.5721 7.95939 30.5246 8.3151L32.5071 8.57943C32.5378 8.3492 32.5879 8.1393 32.655 7.94754L30.7673 7.28684ZM30.525 8.31215C30.4838 8.61439 30.4523 8.90033 30.4311 9.16934L32.4249 9.32675C32.4427 9.10098 32.4698 8.85306 32.5067 8.58238L30.525 8.31215ZM42.5786 15.1953L42.5597 16.1951L42.563 16.1952L42.5786 15.1953ZM40.7524 14.8145L40.3326 15.7221L40.3369 15.724L40.7524 14.8145ZM39.4634 13.8184L38.6721 14.4298L38.6772 14.4365L38.6825 14.4431L39.4634 13.8184ZM38.7602 12.3242L37.7875 12.5563L37.7882 12.5589L38.7602 12.3242ZM38.643 10.459L37.651 10.3329L37.6486 10.3524L37.6468 10.3719L38.643 10.459ZM38.7895 9.30664L37.7975 9.18039L37.7975 9.18054L38.7895 9.30664ZM40.2251 5.67383L39.4673 5.02128L39.4621 5.02741L40.2251 5.67383ZM41.6997 4.58984L42.1011 5.50581L42.1096 5.50196L41.6997 4.58984ZM43.7505 4.23828L43.7174 5.23775L43.723 5.2379L43.7505 4.23828ZM45.5083 4.6875L44.9902 5.54288L44.9955 5.54604L45.5083 4.6875ZM46.5923 5.81055L45.7129 6.28686L45.7181 6.29619L46.5923 5.81055ZM47.1098 9.21875L48.0993 9.3637L48.1016 9.3476L48.1035 9.33143L47.1098 9.21875ZM46.8852 10.752V11.752H47.7494L47.8747 10.8969L46.8852 10.752ZM39.7368 10.752L38.7518 10.5792L38.5462 11.752H39.7368V10.752ZM40.0981 8.69141L40.1006 7.69141L39.2586 7.68935L39.1132 8.51869L40.0981 8.69141ZM44.0923 8.70117L44.0898 9.70117L44.9321 9.70323L45.0773 8.87355L44.0923 8.70117ZM44.1606 8.31055L45.1457 8.48293L45.1487 8.46557L45.1511 8.44812L44.1606 8.31055ZM44.229 7.61719L45.2274 7.67424L45.2274 7.67266L44.229 7.61719ZM44.0923 7.03125L43.2348 7.54575L43.247 7.56615L43.2602 7.58595L44.0923 7.03125ZM43.4966 6.74805L43.5832 5.75181L43.5578 5.7496L43.5323 5.74868L43.4966 6.74805ZM42.6567 6.97266L43.2814 7.75353L43.2892 7.74728L43.2969 7.74088L42.6567 6.97266ZM42.2173 7.60742L41.2781 7.26381L41.2734 7.27707L42.2173 7.60742ZM42.022 8.45703L43.0136 8.58637L43.0139 8.58366L42.022 8.45703ZM41.9243 9.30664L42.9164 9.4317L42.9182 9.41774L42.9196 9.40374L41.9243 9.30664ZM41.7778 10.4688L40.7857 10.3437L40.7841 10.3564L40.7828 10.3692L41.7778 10.4688ZM41.729 11.2402L42.7286 11.2665L42.7287 11.2659L41.729 11.2402ZM41.8169 11.9336L40.8599 12.2236L40.8652 12.2412L40.8712 12.2587L41.8169 11.9336ZM42.1684 12.4414L41.5437 13.2223L41.5608 13.2359L41.5784 13.2488L42.1684 12.4414ZM42.9204 12.6465L42.8812 13.6457L42.8881 13.646L42.9204 12.6465ZM44.063 12.4512L44.4344 13.3796L44.4416 13.3768L44.4488 13.3738L44.063 12.4512ZM45.0298 11.7969L45.8985 11.3016L45.2494 10.163L44.3227 11.0898L45.0298 11.7969ZM46.1821 13.8184L46.9786 14.4231L47.378 13.897L47.0509 13.3231L46.1821 13.8184ZM45.1665 14.6484L45.6021 15.5486L45.608 15.5457L45.1665 14.6484ZM43.8774 15.0684L43.6948 14.0852L43.6867 14.0867L43.6786 14.0883L43.8774 15.0684ZM42.5975 14.1955C42.0187 14.1846 41.5492 14.079 41.1679 13.9049L40.3369 15.724C41.0103 16.0316 41.7583 16.18 42.5597 16.1951L42.5975 14.1955ZM41.1722 13.9068C40.7835 13.7271 40.4803 13.4887 40.2442 13.1937L38.6825 14.4431C39.1235 14.9944 39.6796 15.4201 40.3326 15.7221L41.1722 13.9068ZM40.2546 13.2069C40.0149 12.8967 39.8384 12.5292 39.7323 12.0896L37.7882 12.5589C37.9555 13.252 38.2477 13.8807 38.6721 14.4298L40.2546 13.2069ZM39.7329 12.0921C39.6244 11.6373 39.5887 11.1247 39.6393 10.546L37.6468 10.3719C37.5802 11.1344 37.6226 11.8653 37.7875 12.5563L39.7329 12.0921ZM39.6351 10.5851L39.7815 9.43274L37.7975 9.18054L37.651 10.3329L39.6351 10.5851ZM39.7815 9.43289C39.8636 8.78771 40.0088 8.19764 40.2129 7.65904L38.3427 6.95033C38.0781 7.64871 37.8977 8.39328 37.7975 9.18039L39.7815 9.43289ZM40.2129 7.65904C40.4101 7.13882 40.67 6.69572 40.9881 6.32025L39.4621 5.02741C38.9859 5.58943 38.6143 6.23357 38.3427 6.95033L40.2129 7.65904ZM40.9828 6.32635C41.2866 5.97358 41.6554 5.70104 42.101 5.50576L41.2983 3.67392C40.5851 3.98646 39.9708 4.43658 39.4673 5.0213L40.9828 6.32635ZM42.1096 5.50196C42.5206 5.31726 43.0462 5.21555 43.7174 5.23774L43.7835 3.23883C42.8792 3.20893 42.0376 3.3416 41.2897 3.67773L42.1096 5.50196ZM43.723 5.2379C44.3121 5.25412 44.7157 5.37655 44.9902 5.54286L46.0263 3.83214C45.3764 3.43855 44.6081 3.26151 43.778 3.23866L43.723 5.2379ZM44.9955 5.54604C45.3139 5.73617 45.5468 5.98009 45.713 6.28683L47.4716 5.33426C47.1299 4.7035 46.6402 4.19873 46.021 3.82896L44.9955 5.54604ZM45.7181 6.29619C45.9118 6.6448 46.0456 7.05021 46.1089 7.52474L48.0913 7.26041C47.9983 6.56307 47.7936 5.91379 47.4664 5.3249L45.7181 6.29619ZM46.1089 7.52474C46.1754 8.02363 46.1793 8.54989 46.1162 9.10607L48.1035 9.33143C48.1836 8.62459 48.181 7.9334 48.0913 7.26041L46.1089 7.52474ZM46.1204 9.0738L45.8958 10.607L47.8747 10.8969L48.0993 9.3637L46.1204 9.0738ZM46.8852 9.75195H39.7368V11.752H46.8852V9.75195ZM40.7218 10.9247L41.0831 8.86413L39.1132 8.51869L38.7518 10.5792L40.7218 10.9247ZM40.0957 9.6914L44.0898 9.70117L44.0947 7.70117L40.1006 7.69141L40.0957 9.6914ZM45.0773 8.87355L45.1457 8.48293L43.1756 8.13817L43.1072 8.52879L45.0773 8.87355ZM45.1511 8.44812C45.1872 8.18799 45.2127 7.93 45.2274 7.67424L43.2306 7.56014C43.2192 7.7601 43.1991 7.96435 43.1701 8.17298L45.1511 8.44812ZM45.2274 7.67266C45.2494 7.27707 45.1758 6.85371 44.9243 6.47655L43.2602 7.58595C43.2514 7.57268 43.2445 7.55957 43.2394 7.54762C43.2343 7.53579 43.2318 7.52687 43.2307 7.52215C43.2286 7.51304 43.2326 7.52373 43.2305 7.56172L45.2274 7.67266ZM44.9498 6.51675C44.6089 5.94871 44.012 5.78909 43.5832 5.75181L43.4099 7.74429C43.4815 7.75051 43.4808 7.76056 43.4407 7.74151C43.391 7.71789 43.3026 7.65873 43.2348 7.54575L44.9498 6.51675ZM43.5323 5.74868C43.0275 5.73066 42.4691 5.82733 42.0165 6.20443L43.2969 7.74088C43.2685 7.76451 43.2521 7.76568 43.2715 7.76048C43.2946 7.7543 43.3533 7.74357 43.4609 7.74741L43.5323 5.74868ZM42.032 6.19179C41.6752 6.47724 41.4299 6.84908 41.2781 7.26384L43.1564 7.951C43.2 7.83191 43.2476 7.78057 43.2814 7.75353L42.032 6.19179ZM41.2734 7.27707C41.1566 7.61074 41.0769 7.96302 41.03 8.3304L43.0139 8.58366C43.0451 8.33906 43.0956 8.12494 43.1611 7.93777L41.2734 7.27707ZM41.0304 8.32769C40.9901 8.63659 40.9562 8.93061 40.929 9.20954L42.9196 9.40374C42.9444 9.14882 42.9757 8.87643 43.0136 8.58637L41.0304 8.32769ZM40.9321 9.18158L40.7857 10.3437L42.77 10.5938L42.9164 9.4317L40.9321 9.18158ZM40.7828 10.3692C40.7544 10.6535 40.7365 10.9353 40.7293 11.2146L42.7287 11.2659C42.7345 11.0374 42.7492 10.8049 42.7729 10.5683L40.7828 10.3692ZM40.7293 11.2139C40.7203 11.5575 40.7607 11.8964 40.8599 12.2236L42.7739 11.6436C42.7429 11.5411 42.7247 11.4178 42.7286 11.2665L40.7293 11.2139ZM40.8712 12.2587C41.0008 12.6356 41.2244 12.9668 41.5437 13.2223L42.7931 11.6605C42.787 11.6556 42.7762 11.6483 42.7626 11.6085L40.8712 12.2587ZM41.5784 13.2488C41.9769 13.54 42.4573 13.6291 42.8812 13.6457L42.9596 11.6473C42.8494 11.6429 42.7818 11.6303 42.7465 11.6207C42.7117 11.6112 42.7242 11.609 42.7585 11.634L41.5784 13.2488ZM42.8881 13.646C43.4232 13.6632 43.9421 13.5766 44.4344 13.3796L43.6916 11.5227C43.4677 11.6122 43.2249 11.6558 42.9526 11.647L42.8881 13.646ZM44.4488 13.3738C44.9322 13.1716 45.3625 12.8784 45.7369 12.504L44.3227 11.0898C44.1242 11.2883 43.9099 11.4313 43.6772 11.5286L44.4488 13.3738ZM44.161 12.2921L45.3134 14.3136L47.0509 13.3231L45.8985 11.3016L44.161 12.2921ZM45.3857 13.2137C45.2161 13.437 45.0008 13.6154 44.725 13.7512L45.608 15.5457C46.1525 15.2778 46.6143 14.9029 46.9786 14.4231L45.3857 13.2137ZM44.7309 13.7483C44.4102 13.9035 44.0659 14.0163 43.6948 14.0852L44.06 16.0515C44.6004 15.9512 45.1155 15.784 45.602 15.5486L44.7309 13.7483ZM43.6786 14.0883C43.293 14.1666 42.9321 14.2007 42.5942 14.1954L42.563 16.1952C43.0584 16.2029 43.5634 16.1524 44.0763 16.0484L43.6786 14.0883Z" fill="#787878"/>
</svg>
