<svg width="165" height="11" viewBox="0 0 165 11" fill="none" xmlns="http://www.w3.org/2000/svg">
<path d="M17.382 6.71924H15.7517V5.69092H17.382C17.634 5.69092 17.8391 5.6499 17.9973 5.56787C18.1555 5.48291 18.2712 5.36572 18.3444 5.21631C18.4177 5.06689 18.4543 4.89844 18.4543 4.71094C18.4543 4.52051 18.4177 4.34326 18.3444 4.1792C18.2712 4.01514 18.1555 3.8833 17.9973 3.78369C17.8391 3.68408 17.634 3.63428 17.382 3.63428H16.2087V9H14.8903V2.60156H17.382C17.883 2.60156 18.3122 2.69238 18.6696 2.87402C19.03 3.05273 19.3054 3.30029 19.4958 3.6167C19.6862 3.93311 19.7814 4.29492 19.7814 4.70215C19.7814 5.11523 19.6862 5.47266 19.4958 5.77441C19.3054 6.07617 19.03 6.30908 18.6696 6.47314C18.3122 6.63721 17.883 6.71924 17.382 6.71924ZM21.7079 2.25V9H20.4379V2.25H21.7079ZM25.0803 7.92773V5.80957C25.0803 5.65723 25.0554 5.52686 25.0055 5.41846C24.9557 5.30713 24.8781 5.2207 24.7726 5.15918C24.6701 5.09766 24.5368 5.06689 24.3727 5.06689C24.2321 5.06689 24.1105 5.0918 24.008 5.1416C23.9054 5.18848 23.8263 5.25732 23.7707 5.34814C23.715 5.43604 23.6872 5.54004 23.6872 5.66016H22.4216C22.4216 5.45801 22.4684 5.26611 22.5622 5.08447C22.6559 4.90283 22.7922 4.74316 22.9709 4.60547C23.1496 4.46484 23.362 4.35498 23.6081 4.27588C23.8571 4.19678 24.1354 4.15723 24.443 4.15723C24.8122 4.15723 25.1403 4.21875 25.4274 4.3418C25.7145 4.46484 25.9401 4.64941 26.1042 4.89551C26.2712 5.1416 26.3547 5.44922 26.3547 5.81836V7.85303C26.3547 8.11377 26.3708 8.32764 26.403 8.49463C26.4352 8.65869 26.4821 8.80225 26.5436 8.92529V9H25.2648C25.2033 8.87109 25.1564 8.70996 25.1242 8.5166C25.0949 8.32031 25.0803 8.12402 25.0803 7.92773ZM25.2472 6.104L25.256 6.82031H24.5485C24.3815 6.82031 24.2365 6.83936 24.1135 6.87744C23.9904 6.91553 23.8893 6.96973 23.8102 7.04004C23.7311 7.10742 23.6725 7.18652 23.6345 7.27734C23.5993 7.36816 23.5817 7.46777 23.5817 7.57617C23.5817 7.68457 23.6066 7.78271 23.6564 7.87061C23.7062 7.95557 23.778 8.02295 23.8718 8.07275C23.9655 8.11963 24.0754 8.14307 24.2013 8.14307C24.3918 8.14307 24.5573 8.10498 24.6979 8.02881C24.8386 7.95264 24.947 7.85889 25.0231 7.74756C25.1022 7.63623 25.1432 7.53076 25.1462 7.43115L25.4802 7.96729C25.4333 8.0874 25.3688 8.21191 25.2868 8.34082C25.2077 8.46973 25.1066 8.59131 24.9836 8.70557C24.8605 8.81689 24.7126 8.90918 24.5397 8.98242C24.3669 9.05273 24.1618 9.08789 23.9245 9.08789C23.6227 9.08789 23.3488 9.02783 23.1027 8.90771C22.8596 8.78467 22.6662 8.61621 22.5226 8.40234C22.382 8.18555 22.3117 7.93945 22.3117 7.66406C22.3117 7.41504 22.3586 7.19385 22.4523 7.00049C22.5461 6.80713 22.6838 6.64453 22.8654 6.5127C23.05 6.37793 23.28 6.27686 23.5554 6.20947C23.8307 6.13916 24.1501 6.104 24.5134 6.104H25.2472ZM28.3295 5.26025V9H27.0639V4.24512H28.2504L28.3295 5.26025ZM28.1449 6.45557H27.8022C27.8022 6.104 27.8476 5.7876 27.9384 5.50635C28.0292 5.22217 28.1567 4.98047 28.3207 4.78125C28.4848 4.5791 28.6796 4.42529 28.9052 4.31982C29.1337 4.21143 29.3886 4.15723 29.6698 4.15723C29.8925 4.15723 30.0961 4.18945 30.2807 4.25391C30.4653 4.31836 30.6235 4.4209 30.7553 4.56152C30.8901 4.70215 30.9926 4.88818 31.0629 5.11963C31.1362 5.35107 31.1728 5.63379 31.1728 5.96777V9H29.8984V5.96338C29.8984 5.75244 29.8691 5.58838 29.8105 5.47119C29.7519 5.354 29.6654 5.27197 29.5512 5.2251C29.4399 5.17529 29.3022 5.15039 29.1381 5.15039C28.9682 5.15039 28.8202 5.18408 28.6943 5.25146C28.5712 5.31885 28.4687 5.4126 28.3866 5.53271C28.3075 5.6499 28.2475 5.7876 28.2065 5.9458C28.1654 6.104 28.1449 6.27393 28.1449 6.45557ZM33.1344 5.26025V9H31.8688V4.24512H33.0553L33.1344 5.26025ZM32.9499 6.45557H32.6071C32.6071 6.104 32.6525 5.7876 32.7433 5.50635C32.8341 5.22217 32.9616 4.98047 33.1256 4.78125C33.2897 4.5791 33.4845 4.42529 33.7101 4.31982C33.9386 4.21143 34.1935 4.15723 34.4748 4.15723C34.6974 4.15723 34.901 4.18945 35.0856 4.25391C35.2702 4.31836 35.4284 4.4209 35.5602 4.56152C35.695 4.70215 35.7975 4.88818 35.8678 5.11963C35.9411 5.35107 35.9777 5.63379 35.9777 5.96777V9H34.7033V5.96338C34.7033 5.75244 34.674 5.58838 34.6154 5.47119C34.5568 5.354 34.4704 5.27197 34.3561 5.2251C34.2448 5.17529 34.1071 5.15039 33.943 5.15039C33.7731 5.15039 33.6252 5.18408 33.4992 5.25146C33.3761 5.31885 33.2736 5.4126 33.1916 5.53271C33.1125 5.6499 33.0524 5.7876 33.0114 5.9458C32.9704 6.104 32.9499 6.27393 32.9499 6.45557ZM38.8886 9.08789C38.5194 9.08789 38.1884 9.0293 37.8954 8.91211C37.6024 8.79199 37.3534 8.62646 37.1483 8.41553C36.9462 8.20459 36.7909 7.95996 36.6825 7.68164C36.5741 7.40039 36.5199 7.10156 36.5199 6.78516V6.60938C36.5199 6.24902 36.5712 5.91943 36.6737 5.62061C36.7763 5.32178 36.9228 5.0625 37.1132 4.84277C37.3065 4.62305 37.5409 4.45459 37.8163 4.3374C38.0917 4.21729 38.4022 4.15723 38.7479 4.15723C39.0849 4.15723 39.3837 4.21289 39.6444 4.32422C39.9052 4.43555 40.1234 4.59375 40.2992 4.79883C40.4779 5.00391 40.6127 5.25 40.7035 5.53711C40.7943 5.82129 40.8397 6.1377 40.8397 6.48633V7.01367H37.0604V6.16992H39.5961V6.07324C39.5961 5.89746 39.5639 5.74072 39.4994 5.60303C39.4379 5.4624 39.3441 5.35107 39.2182 5.26904C39.0922 5.18701 38.9311 5.146 38.7348 5.146C38.5678 5.146 38.4242 5.18262 38.3041 5.25586C38.184 5.3291 38.0858 5.43164 38.0097 5.56348C37.9364 5.69531 37.8808 5.85059 37.8427 6.0293C37.8075 6.20508 37.7899 6.39844 37.7899 6.60938V6.78516C37.7899 6.97559 37.8163 7.15137 37.869 7.3125C37.9247 7.47363 38.0023 7.61279 38.102 7.72998C38.2045 7.84717 38.3275 7.93799 38.4711 8.00244C38.6176 8.06689 38.7831 8.09912 38.9677 8.09912C39.1962 8.09912 39.4086 8.05518 39.6049 7.96729C39.8041 7.87646 39.9755 7.74023 40.119 7.55859L40.7343 8.22656C40.6347 8.37012 40.4984 8.50781 40.3256 8.63965C40.1557 8.77148 39.9506 8.87988 39.7104 8.96484C39.4701 9.04688 39.1962 9.08789 38.8886 9.08789ZM44.1286 7.96289V2.25H45.403V9H44.256L44.1286 7.96289ZM41.1227 6.67969V6.5874C41.1227 6.22412 41.1637 5.89453 41.2457 5.59863C41.3278 5.2998 41.4479 5.04346 41.6061 4.82959C41.7643 4.61572 41.9591 4.4502 42.1906 4.33301C42.422 4.21582 42.6857 4.15723 42.9816 4.15723C43.2599 4.15723 43.5031 4.21582 43.7111 4.33301C43.922 4.4502 44.1007 4.61719 44.2472 4.83398C44.3966 5.04785 44.5167 5.30127 44.6076 5.59424C44.6984 5.88428 44.7643 6.20215 44.8053 6.54785V6.75C44.7643 7.08105 44.6984 7.38867 44.6076 7.67285C44.5167 7.95703 44.3966 8.20605 44.2472 8.41992C44.1007 8.63086 43.922 8.79492 43.7111 8.91211C43.5001 9.0293 43.254 9.08789 42.9728 9.08789C42.6769 9.08789 42.4132 9.02783 42.1818 8.90771C41.9533 8.7876 41.7599 8.61914 41.6017 8.40234C41.4464 8.18555 41.3278 7.93066 41.2457 7.6377C41.1637 7.34473 41.1227 7.02539 41.1227 6.67969ZM42.3883 6.5874V6.67969C42.3883 6.87598 42.403 7.05908 42.4323 7.229C42.4645 7.39893 42.5158 7.5498 42.5861 7.68164C42.6593 7.81055 42.7531 7.91162 42.8673 7.98486C42.9845 8.05518 43.1266 8.09033 43.2936 8.09033C43.5104 8.09033 43.6891 8.04199 43.8297 7.94531C43.9704 7.8457 44.0773 7.70947 44.1505 7.53662C44.2267 7.36377 44.2706 7.16455 44.2824 6.93896V6.36328C44.2736 6.17871 44.2472 6.01318 44.2033 5.8667C44.1622 5.71729 44.1007 5.58984 44.0187 5.48438C43.9396 5.37891 43.84 5.29688 43.7199 5.23828C43.6027 5.17969 43.4635 5.15039 43.3024 5.15039C43.1383 5.15039 42.9977 5.18848 42.8805 5.26465C42.7633 5.33789 42.6681 5.43896 42.5949 5.56787C42.5246 5.69678 42.4718 5.84912 42.4367 6.0249C42.4044 6.19775 42.3883 6.38525 42.3883 6.5874ZM50.8336 3.6958L49.0934 9H47.6915L50.069 2.60156H50.9611L50.8336 3.6958ZM52.2794 9L50.5348 3.6958L50.3942 2.60156H51.295L53.6857 9H52.2794ZM52.2003 6.61816V7.65088H48.8209V6.61816H52.2003ZM55.9242 8.09912C56.0795 8.09912 56.2171 8.06982 56.3373 8.01123C56.4574 7.94971 56.5511 7.86475 56.6185 7.75635C56.6888 7.64502 56.7254 7.51465 56.7284 7.36523H57.9193C57.9164 7.69922 57.827 7.99658 57.6512 8.25732C57.4754 8.51514 57.2396 8.71875 56.9437 8.86816C56.6478 9.01465 56.3168 9.08789 55.9505 9.08789C55.5814 9.08789 55.2591 9.02637 54.9837 8.90332C54.7113 8.78027 54.4842 8.61035 54.3026 8.39355C54.121 8.17383 53.9847 7.91895 53.8939 7.62891C53.8031 7.33594 53.7577 7.02246 53.7577 6.68848V6.56104C53.7577 6.22412 53.8031 5.91064 53.8939 5.62061C53.9847 5.32764 54.121 5.07275 54.3026 4.85596C54.4842 4.63623 54.7113 4.46484 54.9837 4.3418C55.2562 4.21875 55.5755 4.15723 55.9418 4.15723C56.3314 4.15723 56.6727 4.23193 56.9657 4.38135C57.2616 4.53076 57.493 4.74463 57.66 5.02295C57.8299 5.29834 57.9164 5.625 57.9193 6.00293H56.7284C56.7254 5.84473 56.6918 5.70117 56.6273 5.57227C56.5658 5.44336 56.475 5.34082 56.3548 5.26465C56.2377 5.18555 56.0926 5.146 55.9198 5.146C55.7352 5.146 55.5843 5.18555 55.4671 5.26465C55.35 5.34082 55.2591 5.44629 55.1947 5.58105C55.1302 5.71289 55.0848 5.86377 55.0585 6.03369C55.035 6.20068 55.0233 6.37646 55.0233 6.56104V6.68848C55.0233 6.87305 55.035 7.05029 55.0585 7.22021C55.0819 7.39014 55.1258 7.54102 55.1903 7.67285C55.2577 7.80469 55.35 7.90869 55.4671 7.98486C55.5843 8.06104 55.7367 8.09912 55.9242 8.09912ZM60.7423 4.24512V5.1416H57.9737V4.24512H60.7423ZM58.6593 3.07178H59.9249V7.56738C59.9249 7.70508 59.9425 7.81055 59.9776 7.88379C60.0157 7.95703 60.0714 8.0083 60.1446 8.0376C60.2179 8.06396 60.3102 8.07715 60.4215 8.07715C60.5006 8.07715 60.5709 8.07422 60.6324 8.06836C60.6969 8.05957 60.7511 8.05078 60.795 8.04199L60.7994 8.97363C60.691 9.00879 60.5738 9.03662 60.4478 9.05713C60.3219 9.07764 60.1827 9.08789 60.0304 9.08789C59.752 9.08789 59.5089 9.04248 59.3009 8.95166C59.0958 8.85791 58.9376 8.7085 58.8263 8.50342C58.7149 8.29834 58.6593 8.02881 58.6593 7.69482V3.07178ZM62.5589 4.24512V9H61.2889V4.24512H62.5589ZM61.2098 3.00586C61.2098 2.82129 61.2743 2.66895 61.4032 2.54883C61.5321 2.42871 61.7049 2.36865 61.9217 2.36865C62.1356 2.36865 62.307 2.42871 62.4359 2.54883C62.5677 2.66895 62.6336 2.82129 62.6336 3.00586C62.6336 3.19043 62.5677 3.34277 62.4359 3.46289C62.307 3.58301 62.1356 3.64307 61.9217 3.64307C61.7049 3.64307 61.5321 3.58301 61.4032 3.46289C61.2743 3.34277 61.2098 3.19043 61.2098 3.00586ZM64.982 8.07715L66.0367 4.24512H67.3595L65.7554 9H64.9556L64.982 8.07715ZM64.2569 4.24512L65.316 8.08154L65.338 9H64.5338L62.9298 4.24512H64.2569ZM69.0223 4.24512V9H67.7523V4.24512H69.0223ZM67.6732 3.00586C67.6732 2.82129 67.7376 2.66895 67.8665 2.54883C67.9954 2.42871 68.1683 2.36865 68.3851 2.36865C68.5989 2.36865 68.7703 2.42871 68.8992 2.54883C69.0311 2.66895 69.097 2.82129 69.097 3.00586C69.097 3.19043 69.0311 3.34277 68.8992 3.46289C68.7703 3.58301 68.5989 3.64307 68.3851 3.64307C68.1683 3.64307 67.9954 3.58301 67.8665 3.46289C67.7376 3.34277 67.6732 3.19043 67.6732 3.00586ZM72.1573 4.24512V5.1416H69.3887V4.24512H72.1573ZM70.0743 3.07178H71.3399V7.56738C71.3399 7.70508 71.3575 7.81055 71.3926 7.88379C71.4307 7.95703 71.4864 8.0083 71.5596 8.0376C71.6329 8.06396 71.7252 8.07715 71.8365 8.07715C71.9156 8.07715 71.9859 8.07422 72.0474 8.06836C72.1119 8.05957 72.1661 8.05078 72.21 8.04199L72.2144 8.97363C72.106 9.00879 71.9888 9.03662 71.8629 9.05713C71.7369 9.07764 71.5977 9.08789 71.4454 9.08789C71.167 9.08789 70.9239 9.04248 70.7159 8.95166C70.5108 8.85791 70.3526 8.7085 70.2413 8.50342C70.1299 8.29834 70.0743 8.02881 70.0743 7.69482V3.07178ZM74.0486 8.46387L75.3099 4.24512H76.6678L74.7561 9.71631C74.7151 9.83643 74.6595 9.96533 74.5892 10.103C74.5218 10.2407 74.4295 10.3711 74.3123 10.4941C74.198 10.6201 74.053 10.7227 73.8772 10.8018C73.7044 10.8809 73.492 10.9204 73.24 10.9204C73.1199 10.9204 73.0218 10.9131 72.9456 10.8984C72.8694 10.8838 72.7786 10.8633 72.6731 10.8369V9.90967C72.7054 9.90967 72.7391 9.90967 72.7742 9.90967C72.8094 9.9126 72.8431 9.91406 72.8753 9.91406C73.0423 9.91406 73.1785 9.89502 73.284 9.85693C73.3895 9.81885 73.4744 9.76025 73.5389 9.68115C73.6033 9.60498 73.6546 9.50537 73.6927 9.38232L74.0486 8.46387ZM73.5213 4.24512L74.554 7.69043L74.7342 9.03076L73.8728 9.12305L72.1634 4.24512H73.5213Z" fill="black"/>
<path d="M98.7386 6.87744H100.053C100.026 7.30811 99.9075 7.69043 99.6966 8.02441C99.4886 8.3584 99.1971 8.61914 98.8221 8.80664C98.45 8.99414 98.0018 9.08789 97.4774 9.08789C97.0672 9.08789 96.6995 9.01758 96.3743 8.87695C96.0491 8.7334 95.7708 8.52832 95.5394 8.26172C95.3109 7.99512 95.1365 7.67285 95.0164 7.29492C94.8963 6.91699 94.8363 6.49365 94.8363 6.0249V5.58105C94.8363 5.1123 94.8978 4.68896 95.0208 4.31104C95.1468 3.93018 95.3255 3.60645 95.557 3.33984C95.7913 3.07324 96.0711 2.86816 96.3963 2.72461C96.7215 2.58105 97.0848 2.50928 97.4862 2.50928C98.0194 2.50928 98.4691 2.60596 98.8353 2.79932C99.2044 2.99268 99.4901 3.25928 99.6922 3.59912C99.8973 3.93896 100.02 4.32568 100.061 4.75928H98.743C98.7283 4.50146 98.6771 4.2832 98.5892 4.10449C98.5013 3.92285 98.368 3.78662 98.1893 3.6958C98.0135 3.60205 97.7791 3.55518 97.4862 3.55518C97.2664 3.55518 97.0745 3.59619 96.9105 3.67822C96.7464 3.76025 96.6087 3.88477 96.4974 4.05176C96.3861 4.21875 96.3026 4.42969 96.2469 4.68457C96.1942 4.93652 96.1678 5.23242 96.1678 5.57227V6.0249C96.1678 6.35596 96.1927 6.64746 96.2425 6.89941C96.2923 7.14844 96.3685 7.35938 96.471 7.53223C96.5765 7.70215 96.7113 7.83105 96.8753 7.91895C97.0423 8.00391 97.243 8.04639 97.4774 8.04639C97.7528 8.04639 97.9798 8.00244 98.1585 7.91455C98.3372 7.82666 98.4735 7.69629 98.5672 7.52344C98.6639 7.35059 98.721 7.13525 98.7386 6.87744ZM103.166 7.92773V5.80957C103.166 5.65723 103.141 5.52686 103.091 5.41846C103.041 5.30713 102.963 5.2207 102.858 5.15918C102.755 5.09766 102.622 5.06689 102.458 5.06689C102.317 5.06689 102.196 5.0918 102.093 5.1416C101.991 5.18848 101.912 5.25732 101.856 5.34814C101.8 5.43604 101.773 5.54004 101.773 5.66016H100.507C100.507 5.45801 100.554 5.26611 100.648 5.08447C100.741 4.90283 100.878 4.74316 101.056 4.60547C101.235 4.46484 101.447 4.35498 101.693 4.27588C101.942 4.19678 102.221 4.15723 102.528 4.15723C102.898 4.15723 103.226 4.21875 103.513 4.3418C103.8 4.46484 104.025 4.64941 104.19 4.89551C104.357 5.1416 104.44 5.44922 104.44 5.81836V7.85303C104.44 8.11377 104.456 8.32764 104.488 8.49463C104.521 8.65869 104.567 8.80225 104.629 8.92529V9H103.35C103.289 8.87109 103.242 8.70996 103.21 8.5166C103.18 8.32031 103.166 8.12402 103.166 7.92773ZM103.333 6.104L103.341 6.82031H102.634C102.467 6.82031 102.322 6.83936 102.199 6.87744C102.076 6.91553 101.975 6.96973 101.896 7.04004C101.816 7.10742 101.758 7.18652 101.72 7.27734C101.685 7.36816 101.667 7.46777 101.667 7.57617C101.667 7.68457 101.692 7.78271 101.742 7.87061C101.792 7.95557 101.863 8.02295 101.957 8.07275C102.051 8.11963 102.161 8.14307 102.287 8.14307C102.477 8.14307 102.643 8.10498 102.783 8.02881C102.924 7.95264 103.032 7.85889 103.108 7.74756C103.188 7.63623 103.229 7.53076 103.232 7.43115L103.565 7.96729C103.519 8.0874 103.454 8.21191 103.372 8.34082C103.293 8.46973 103.192 8.59131 103.069 8.70557C102.946 8.81689 102.798 8.90918 102.625 8.98242C102.452 9.05273 102.247 9.08789 102.01 9.08789C101.708 9.08789 101.434 9.02783 101.188 8.90771C100.945 8.78467 100.752 8.61621 100.608 8.40234C100.467 8.18555 100.397 7.93945 100.397 7.66406C100.397 7.41504 100.444 7.19385 100.538 7.00049C100.631 6.80713 100.769 6.64453 100.951 6.5127C101.135 6.37793 101.365 6.27686 101.641 6.20947C101.916 6.13916 102.235 6.104 102.599 6.104H103.333ZM106.512 2.25V9H105.242V2.25H106.512ZM109.506 9.08789C109.137 9.08789 108.806 9.0293 108.513 8.91211C108.22 8.79199 107.971 8.62646 107.766 8.41553C107.564 8.20459 107.408 7.95996 107.3 7.68164C107.191 7.40039 107.137 7.10156 107.137 6.78516V6.60938C107.137 6.24902 107.189 5.91943 107.291 5.62061C107.394 5.32178 107.54 5.0625 107.731 4.84277C107.924 4.62305 108.158 4.45459 108.434 4.3374C108.709 4.21729 109.02 4.15723 109.365 4.15723C109.702 4.15723 110.001 4.21289 110.262 4.32422C110.522 4.43555 110.741 4.59375 110.917 4.79883C111.095 5.00391 111.23 5.25 111.321 5.53711C111.412 5.82129 111.457 6.1377 111.457 6.48633V7.01367H107.678V6.16992H110.213V6.07324C110.213 5.89746 110.181 5.74072 110.117 5.60303C110.055 5.4624 109.961 5.35107 109.835 5.26904C109.71 5.18701 109.548 5.146 109.352 5.146C109.185 5.146 109.042 5.18262 108.921 5.25586C108.801 5.3291 108.703 5.43164 108.627 5.56348C108.554 5.69531 108.498 5.85059 108.46 6.0293C108.425 6.20508 108.407 6.39844 108.407 6.60938V6.78516C108.407 6.97559 108.434 7.15137 108.486 7.3125C108.542 7.47363 108.62 7.61279 108.719 7.72998C108.822 7.84717 108.945 7.93799 109.088 8.00244C109.235 8.06689 109.4 8.09912 109.585 8.09912C109.814 8.09912 110.026 8.05518 110.222 7.96729C110.421 7.87646 110.593 7.74023 110.736 7.55859L111.352 8.22656C111.252 8.37012 111.116 8.50781 110.943 8.63965C110.773 8.77148 110.568 8.87988 110.328 8.96484C110.087 9.04688 109.814 9.08789 109.506 9.08789ZM113.177 5.26025V9H111.911V4.24512H113.098L113.177 5.26025ZM112.992 6.45557H112.65C112.65 6.104 112.695 5.7876 112.786 5.50635C112.877 5.22217 113.004 4.98047 113.168 4.78125C113.332 4.5791 113.527 4.42529 113.753 4.31982C113.981 4.21143 114.236 4.15723 114.517 4.15723C114.74 4.15723 114.944 4.18945 115.128 4.25391C115.313 4.31836 115.471 4.4209 115.603 4.56152C115.738 4.70215 115.84 4.88818 115.91 5.11963C115.984 5.35107 116.02 5.63379 116.02 5.96777V9H114.746V5.96338C114.746 5.75244 114.717 5.58838 114.658 5.47119C114.599 5.354 114.513 5.27197 114.399 5.2251C114.287 5.17529 114.15 5.15039 113.986 5.15039C113.816 5.15039 113.668 5.18408 113.542 5.25146C113.419 5.31885 113.316 5.4126 113.234 5.53271C113.155 5.6499 113.095 5.7876 113.054 5.9458C113.013 6.104 112.992 6.27393 112.992 6.45557ZM119.551 7.96289V2.25H120.825V9H119.678L119.551 7.96289ZM116.545 6.67969V6.5874C116.545 6.22412 116.586 5.89453 116.668 5.59863C116.75 5.2998 116.87 5.04346 117.028 4.82959C117.187 4.61572 117.381 4.4502 117.613 4.33301C117.844 4.21582 118.108 4.15723 118.404 4.15723C118.682 4.15723 118.925 4.21582 119.133 4.33301C119.344 4.4502 119.523 4.61719 119.669 4.83398C119.819 5.04785 119.939 5.30127 120.03 5.59424C120.121 5.88428 120.187 6.20215 120.228 6.54785V6.75C120.187 7.08105 120.121 7.38867 120.03 7.67285C119.939 7.95703 119.819 8.20605 119.669 8.41992C119.523 8.63086 119.344 8.79492 119.133 8.91211C118.922 9.0293 118.676 9.08789 118.395 9.08789C118.099 9.08789 117.835 9.02783 117.604 8.90771C117.376 8.7876 117.182 8.61914 117.024 8.40234C116.869 8.18555 116.75 7.93066 116.668 7.6377C116.586 7.34473 116.545 7.02539 116.545 6.67969ZM117.811 6.5874V6.67969C117.811 6.87598 117.825 7.05908 117.855 7.229C117.887 7.39893 117.938 7.5498 118.008 7.68164C118.082 7.81055 118.175 7.91162 118.29 7.98486C118.407 8.05518 118.549 8.09033 118.716 8.09033C118.933 8.09033 119.111 8.04199 119.252 7.94531C119.393 7.8457 119.5 7.70947 119.573 7.53662C119.649 7.36377 119.693 7.16455 119.705 6.93896V6.36328C119.696 6.17871 119.669 6.01318 119.626 5.8667C119.584 5.71729 119.523 5.58984 119.441 5.48438C119.362 5.37891 119.262 5.29688 119.142 5.23828C119.025 5.17969 118.886 5.15039 118.725 5.15039C118.561 5.15039 118.42 5.18848 118.303 5.26465C118.186 5.33789 118.09 5.43896 118.017 5.56787C117.947 5.69678 117.894 5.84912 117.859 6.0249C117.827 6.19775 117.811 6.38525 117.811 6.5874ZM124.14 7.92773V5.80957C124.14 5.65723 124.115 5.52686 124.066 5.41846C124.016 5.30713 123.938 5.2207 123.833 5.15918C123.73 5.09766 123.597 5.06689 123.433 5.06689C123.292 5.06689 123.171 5.0918 123.068 5.1416C122.966 5.18848 122.886 5.25732 122.831 5.34814C122.775 5.43604 122.747 5.54004 122.747 5.66016H121.482C121.482 5.45801 121.529 5.26611 121.622 5.08447C121.716 4.90283 121.852 4.74316 122.031 4.60547C122.21 4.46484 122.422 4.35498 122.668 4.27588C122.917 4.19678 123.196 4.15723 123.503 4.15723C123.872 4.15723 124.2 4.21875 124.488 4.3418C124.775 4.46484 125 4.64941 125.164 4.89551C125.331 5.1416 125.415 5.44922 125.415 5.81836V7.85303C125.415 8.11377 125.431 8.32764 125.463 8.49463C125.495 8.65869 125.542 8.80225 125.604 8.92529V9H124.325C124.263 8.87109 124.217 8.70996 124.184 8.5166C124.155 8.32031 124.14 8.12402 124.14 7.92773ZM124.307 6.104L124.316 6.82031H123.609C123.442 6.82031 123.297 6.83936 123.174 6.87744C123.051 6.91553 122.949 6.96973 122.87 7.04004C122.791 7.10742 122.733 7.18652 122.695 7.27734C122.659 7.36816 122.642 7.46777 122.642 7.57617C122.642 7.68457 122.667 7.78271 122.717 7.87061C122.766 7.95557 122.838 8.02295 122.932 8.07275C123.026 8.11963 123.136 8.14307 123.261 8.14307C123.452 8.14307 123.617 8.10498 123.758 8.02881C123.899 7.95264 124.007 7.85889 124.083 7.74756C124.162 7.63623 124.203 7.53076 124.206 7.43115L124.54 7.96729C124.493 8.0874 124.429 8.21191 124.347 8.34082C124.268 8.46973 124.167 8.59131 124.044 8.70557C123.921 8.81689 123.773 8.90918 123.6 8.98242C123.427 9.05273 123.222 9.08789 122.985 9.08789C122.683 9.08789 122.409 9.02783 122.163 8.90771C121.92 8.78467 121.726 8.61621 121.583 8.40234C121.442 8.18555 121.372 7.93945 121.372 7.66406C121.372 7.41504 121.419 7.19385 121.512 7.00049C121.606 6.80713 121.744 6.64453 121.926 6.5127C122.11 6.37793 122.34 6.27686 122.615 6.20947C122.891 6.13916 123.21 6.104 123.573 6.104H124.307ZM127.416 5.28223V9H126.15V4.24512H127.341L127.416 5.28223ZM128.849 4.21436L128.827 5.3877C128.765 5.37891 128.69 5.37158 128.603 5.36572C128.518 5.35693 128.44 5.35254 128.37 5.35254C128.191 5.35254 128.036 5.37598 127.904 5.42285C127.775 5.4668 127.667 5.53271 127.579 5.62061C127.494 5.7085 127.429 5.81543 127.385 5.94141C127.344 6.06738 127.321 6.21094 127.315 6.37207L127.06 6.29297C127.06 5.98535 127.091 5.70264 127.152 5.44482C127.214 5.18408 127.303 4.95703 127.42 4.76367C127.541 4.57031 127.687 4.4209 127.86 4.31543C128.033 4.20996 128.23 4.15723 128.453 4.15723C128.523 4.15723 128.595 4.16309 128.668 4.1748C128.742 4.18359 128.802 4.19678 128.849 4.21436ZM135.58 7.97168V9H132.174V7.97168H135.58ZM132.605 2.60156V9H131.287V2.60156H132.605ZM135.136 5.20752V6.20947H132.174V5.20752H135.136ZM135.576 2.60156V3.63428H132.174V2.60156H135.576ZM137.533 8.07715L138.588 4.24512H139.91L138.306 9H137.507L137.533 8.07715ZM136.808 4.24512L137.867 8.08154L137.889 9H137.085L135.481 4.24512H136.808ZM142.364 9.08789C141.995 9.08789 141.664 9.0293 141.371 8.91211C141.078 8.79199 140.829 8.62646 140.624 8.41553C140.422 8.20459 140.267 7.95996 140.158 7.68164C140.05 7.40039 139.996 7.10156 139.996 6.78516V6.60938C139.996 6.24902 140.047 5.91943 140.149 5.62061C140.252 5.32178 140.398 5.0625 140.589 4.84277C140.782 4.62305 141.017 4.45459 141.292 4.3374C141.567 4.21729 141.878 4.15723 142.224 4.15723C142.561 4.15723 142.859 4.21289 143.12 4.32422C143.381 4.43555 143.599 4.59375 143.775 4.79883C143.954 5.00391 144.088 5.25 144.179 5.53711C144.27 5.82129 144.315 6.1377 144.315 6.48633V7.01367H140.536V6.16992H143.072V6.07324C143.072 5.89746 143.04 5.74072 142.975 5.60303C142.914 5.4624 142.82 5.35107 142.694 5.26904C142.568 5.18701 142.407 5.146 142.21 5.146C142.043 5.146 141.9 5.18262 141.78 5.25586C141.66 5.3291 141.561 5.43164 141.485 5.56348C141.412 5.69531 141.356 5.85059 141.318 6.0293C141.283 6.20508 141.266 6.39844 141.266 6.60938V6.78516C141.266 6.97559 141.292 7.15137 141.345 7.3125C141.4 7.47363 141.478 7.61279 141.578 7.72998C141.68 7.84717 141.803 7.93799 141.947 8.00244C142.093 8.06689 142.259 8.09912 142.443 8.09912C142.672 8.09912 142.884 8.05518 143.081 7.96729C143.28 7.87646 143.451 7.74023 143.595 7.55859L144.21 8.22656C144.11 8.37012 143.974 8.50781 143.801 8.63965C143.631 8.77148 143.426 8.87988 143.186 8.96484C142.946 9.04688 142.672 9.08789 142.364 9.08789ZM146.035 5.26025V9H144.77V4.24512H145.956L146.035 5.26025ZM145.851 6.45557H145.508C145.508 6.104 145.553 5.7876 145.644 5.50635C145.735 5.22217 145.862 4.98047 146.027 4.78125C146.191 4.5791 146.385 4.42529 146.611 4.31982C146.84 4.21143 147.094 4.15723 147.376 4.15723C147.598 4.15723 147.802 4.18945 147.987 4.25391C148.171 4.31836 148.329 4.4209 148.461 4.56152C148.596 4.70215 148.698 4.88818 148.769 5.11963C148.842 5.35107 148.879 5.63379 148.879 5.96777V9H147.604V5.96338C147.604 5.75244 147.575 5.58838 147.516 5.47119C147.458 5.354 147.371 5.27197 147.257 5.2251C147.146 5.17529 147.008 5.15039 146.844 5.15039C146.674 5.15039 146.526 5.18408 146.4 5.25146C146.277 5.31885 146.175 5.4126 146.092 5.53271C146.013 5.6499 145.953 5.7876 145.912 5.9458C145.871 6.104 145.851 6.27393 145.851 6.45557ZM151.93 4.24512V5.1416H149.162V4.24512H151.93ZM149.847 3.07178H151.113V7.56738C151.113 7.70508 151.13 7.81055 151.165 7.88379C151.204 7.95703 151.259 8.0083 151.332 8.0376C151.406 8.06396 151.498 8.07715 151.609 8.07715C151.688 8.07715 151.759 8.07422 151.82 8.06836C151.885 8.05957 151.939 8.05078 151.983 8.04199L151.987 8.97363C151.879 9.00879 151.762 9.03662 151.636 9.05713C151.51 9.07764 151.371 9.08789 151.218 9.08789C150.94 9.08789 150.697 9.04248 150.489 8.95166C150.284 8.85791 150.125 8.7085 150.014 8.50342C149.903 8.29834 149.847 8.02881 149.847 7.69482V3.07178ZM154.982 7.68604C154.982 7.59521 154.955 7.51318 154.903 7.43994C154.85 7.3667 154.752 7.29932 154.608 7.23779C154.467 7.17334 154.264 7.11475 153.997 7.06201C153.757 7.00928 153.533 6.94336 153.325 6.86426C153.12 6.78223 152.941 6.68408 152.789 6.56982C152.639 6.45557 152.522 6.3208 152.437 6.16553C152.352 6.00732 152.31 5.82715 152.31 5.625C152.31 5.42578 152.352 5.23828 152.437 5.0625C152.525 4.88672 152.65 4.73145 152.811 4.59668C152.975 4.45898 153.174 4.35205 153.408 4.27588C153.646 4.19678 153.912 4.15723 154.208 4.15723C154.621 4.15723 154.976 4.22314 155.272 4.35498C155.57 4.48682 155.799 4.66846 155.957 4.8999C156.118 5.12842 156.199 5.38916 156.199 5.68213H154.933C154.933 5.55908 154.907 5.44922 154.854 5.35254C154.804 5.25293 154.725 5.17529 154.617 5.11963C154.511 5.06104 154.374 5.03174 154.204 5.03174C154.063 5.03174 153.942 5.05664 153.839 5.10645C153.737 5.15332 153.657 5.21777 153.602 5.2998C153.549 5.37891 153.523 5.4668 153.523 5.56348C153.523 5.63672 153.537 5.70264 153.567 5.76123C153.599 5.81689 153.65 5.86816 153.72 5.91504C153.791 5.96191 153.882 6.00586 153.993 6.04688C154.107 6.08496 154.248 6.12012 154.415 6.15234C154.757 6.22266 155.064 6.31494 155.333 6.4292C155.603 6.54053 155.817 6.69287 155.975 6.88623C156.133 7.07666 156.212 7.32715 156.212 7.6377C156.212 7.84863 156.165 8.04199 156.071 8.21777C155.978 8.39355 155.843 8.54736 155.667 8.6792C155.491 8.80811 155.28 8.90918 155.034 8.98242C154.791 9.05273 154.517 9.08789 154.213 9.08789C153.77 9.08789 153.395 9.00879 153.088 8.85059C152.783 8.69238 152.551 8.4917 152.393 8.24854C152.238 8.00244 152.16 7.75049 152.16 7.49268H153.36C153.366 7.66553 153.41 7.80469 153.492 7.91016C153.577 8.01562 153.684 8.0918 153.813 8.13867C153.945 8.18555 154.087 8.20898 154.239 8.20898C154.403 8.20898 154.539 8.18701 154.648 8.14307C154.756 8.09619 154.838 8.03467 154.894 7.9585C154.952 7.87939 154.982 7.78857 154.982 7.68604Z" fill="black"/>
<rect x="0.5" y="0.5" width="10" height="10" rx="5" fill="white" stroke="black"/>
<rect x="79.5" y="0.5" width="10" height="10" rx="5" fill="#808080" stroke="#808080"/>
</svg>
