<svg width="472" height="593" viewBox="0 0 472 593" fill="none" xmlns="http://www.w3.org/2000/svg">
<path fill-rule="evenodd" clip-rule="evenodd" d="M234.126 42.7262C220.014 17.3399 192.922 0.162354 161.817 0.162354C142.622 0.162354 126.932 3.61541 114.746 10.5215C102.481 17.3483 93.4012 26.5961 87.5074 38.2651C81.6136 49.934 78.6667 62.9525 78.6667 77.3204C78.6667 91.6883 81.6136 104.746 87.5074 116.495C92.63 126.846 100.226 135.348 110.295 142.002C100.26 148.505 92.6641 156.861 87.5073 167.071C81.6135 178.74 78.6666 191.758 78.6666 206.126C78.6666 220.494 81.6135 233.552 87.5073 245.301C93.3215 257.049 102.321 266.416 114.507 273.401C120.036 276.535 132.133 278.822 143.701 280.386C156.395 282.103 165.785 269.579 161.339 257.565C161.339 257.565 138.6 255.303 130.636 250.778C122.671 246.253 116.897 240.141 113.313 232.441C109.649 224.662 107.817 215.89 107.817 206.126C107.817 196.362 109.649 187.631 113.313 179.931C116.897 172.231 122.711 166.198 130.755 161.832C138.799 157.387 149.472 155.164 162.773 155.164C191.54 155.164 214.861 178.485 214.861 207.252V358.012C214.861 366.193 221.494 372.826 229.675 372.826C231.226 372.826 232.721 372.587 234.126 372.146C235.53 372.587 237.025 372.826 238.576 372.826C246.758 372.826 253.39 366.193 253.39 358.012V229.236L253.39 229.206V207.195C253.421 178.454 276.73 155.164 305.479 155.164C318.78 155.164 329.452 157.387 337.496 161.832C345.541 166.198 351.355 172.231 354.939 179.931C358.603 187.631 360.434 196.362 360.434 206.126C360.434 215.89 358.603 224.662 354.939 232.441C351.355 240.141 345.58 246.253 337.616 250.778C329.651 255.303 306.912 257.565 306.912 257.565C302.33 269.947 311.53 283.079 324.619 281.35C336.146 279.827 346.948 277.253 353.744 273.401C365.93 266.416 374.93 257.049 380.744 245.301C386.638 233.552 389.585 220.494 389.585 206.126C389.585 191.758 386.638 178.74 380.744 167.071C375.587 156.861 367.992 148.505 357.957 142.002C368.026 135.348 375.622 126.846 380.744 116.495C386.638 104.746 389.585 91.6883 389.585 77.3204C389.585 62.9525 386.638 49.934 380.744 38.2651C374.85 26.5961 365.771 17.3483 353.505 10.5215C341.319 3.61541 325.629 0.162354 306.434 0.162354C275.33 0.162354 248.237 17.3399 234.126 42.7262ZM161.817 128.968C161.62 128.968 161.424 128.969 161.228 128.969C158.629 128.671 138.09 126.207 130.636 121.972C122.671 117.447 116.897 111.335 113.313 103.635C109.649 95.8558 107.817 87.0842 107.817 77.3204C107.817 67.5566 109.649 58.8247 113.313 51.1247C116.897 43.4248 122.711 37.3919 130.755 33.026C138.799 28.5806 149.472 26.358 162.773 26.358C191.541 26.358 214.861 49.6788 214.861 78.4465V148.227C200.505 136.205 182.006 128.968 161.817 128.968ZM306.434 128.968C286.245 128.968 267.746 136.205 253.39 148.226V78.4465C253.39 49.6788 276.711 26.358 305.479 26.358C318.78 26.358 329.452 28.5806 337.496 33.026C345.541 37.3919 351.355 43.4248 354.939 51.1247C358.603 58.8247 360.434 67.5566 360.434 77.3204C360.434 87.0842 358.603 95.8558 354.939 103.635C351.355 111.335 345.58 117.447 337.616 121.972C330.152 126.212 309.792 128.677 307.26 128.97C306.985 128.969 306.71 128.968 306.434 128.968Z" fill="black"/>
<circle cx="234.991" cy="410.624" r="19.1624" fill="#1AB700"/>
<circle cx="233.983" cy="359.188" r="19.1624" fill="black"/>
<circle cx="51.1624" cy="19.1624" r="19.1624" fill="#FFB800"/>
<path d="M13.5156 572.112H6.44531V566.819H13.5156C14.4792 566.819 15.2604 566.657 15.8594 566.331C16.4583 566.006 16.8945 565.556 17.168 564.983C17.4544 564.397 17.5977 563.74 17.5977 563.011C17.5977 562.229 17.4544 561.507 17.168 560.843C16.8945 560.179 16.4583 559.645 15.8594 559.241C15.2604 558.825 14.4792 558.616 13.5156 558.616H9.02344V581.761H2.16797V553.323H13.5156C15.7943 553.323 17.7539 553.74 19.3945 554.573C21.0482 555.407 22.3177 556.552 23.2031 558.011C24.0885 559.456 24.5312 561.11 24.5312 562.972C24.5312 564.808 24.0885 566.409 23.2031 567.776C22.3177 569.144 21.0482 570.211 19.3945 570.979C17.7539 571.735 15.7943 572.112 13.5156 572.112ZM70.6117 576.487V581.761H56.2367V576.487H70.6117ZM58.6781 553.323V581.761H51.8227V553.323H58.6781ZM109.544 559.3L102.61 581.761H95.2469L105.696 553.323H110.364L109.544 559.3ZM115.286 581.761L108.333 559.3L107.434 553.323H112.161L122.669 581.761H115.286ZM115.012 571.155V576.448H100.423V571.155H115.012ZM172.109 553.323V581.761H165.273L155.214 564.065V581.761H148.359V553.323H155.214L165.273 571.019V553.323H172.109ZM223.795 553.323V581.761H216.959L206.9 564.065V581.761H200.045V553.323H206.9L216.959 571.019V553.323H223.795ZM271.301 576.487V581.761H256.145V576.487H271.301ZM258.586 553.323V581.761H251.73V553.323H258.586ZM269.348 564.612V569.71H256.145V564.612H269.348ZM271.359 553.323V558.616H256.145V553.323H271.359ZM297.713 553.323H308.905C311.092 553.323 312.993 553.649 314.608 554.3C316.222 554.951 317.466 555.914 318.338 557.19C319.224 558.466 319.666 560.042 319.666 561.917C319.666 563.545 319.413 564.905 318.905 565.999C318.397 567.093 317.687 567.998 316.776 568.714C315.877 569.417 314.829 569.996 313.631 570.452L311.385 571.722H301.991L301.952 566.429H308.905C309.777 566.429 310.5 566.272 311.073 565.96C311.646 565.647 312.075 565.205 312.362 564.632C312.661 564.046 312.811 563.349 312.811 562.542C312.811 561.722 312.661 561.019 312.362 560.433C312.062 559.847 311.62 559.397 311.034 559.085C310.461 558.772 309.751 558.616 308.905 558.616H304.569V581.761H297.713V553.323ZM313.28 581.761L306.991 569.183L314.256 569.144L320.623 581.468V581.761H313.28ZM366.977 576.487V581.761H351.821V576.487H366.977ZM354.263 553.323V581.761H347.407V553.323H354.263ZM365.024 564.612V569.71H351.821V564.612H365.024ZM367.036 553.323V558.616H351.821V553.323H367.036ZM416.652 566.565V578.245C416.17 578.779 415.428 579.352 414.425 579.964C413.435 580.563 412.185 581.077 410.675 581.507C409.165 581.937 407.387 582.151 405.343 582.151C403.455 582.151 401.743 581.852 400.206 581.253C398.67 580.641 397.348 579.749 396.241 578.577C395.148 577.392 394.301 575.947 393.702 574.241C393.116 572.522 392.823 570.556 392.823 568.343V566.761C392.823 564.547 393.123 562.581 393.722 560.862C394.321 559.144 395.161 557.698 396.241 556.526C397.335 555.341 398.618 554.443 400.089 553.831C401.573 553.219 403.201 552.913 404.972 552.913C407.589 552.913 409.718 553.33 411.359 554.163C412.999 554.983 414.243 556.123 415.089 557.581C415.935 559.026 416.45 560.7 416.632 562.601H410.05C409.92 561.663 409.672 560.869 409.308 560.218C408.956 559.554 408.448 559.052 407.784 558.714C407.12 558.362 406.261 558.187 405.206 558.187C404.386 558.187 403.637 558.362 402.96 558.714C402.296 559.065 401.73 559.599 401.261 560.315C400.792 561.019 400.428 561.904 400.167 562.972C399.92 564.039 399.796 565.289 399.796 566.722V568.343C399.796 569.762 399.913 571.006 400.148 572.073C400.395 573.141 400.76 574.033 401.241 574.749C401.736 575.452 402.361 575.986 403.116 576.351C403.885 576.702 404.79 576.878 405.831 576.878C406.56 576.878 407.185 576.819 407.706 576.702C408.227 576.572 408.657 576.416 408.995 576.233C409.347 576.038 409.614 575.856 409.796 575.687V571.272H405.03V566.565H416.652ZM449.412 553.323L454.646 565.667L459.9 553.323H467.283L458.142 571.546V581.761H451.17V571.546L442.009 553.323H449.412Z" fill="black"/>
</svg>
