<svg width="242" height="24" viewBox="0 0 242 24" fill="none" xmlns="http://www.w3.org/2000/svg">
<path d="M5.47703 0.9375H8.61765L10.2466 12.7734L15.9887 0.9375H19.3872L10.8091 18H8.1489L5.47703 0.9375ZM3.42625 0.9375H6.81297L5.1489 14.1914L4.48093 18H0.473122L3.42625 0.9375ZM17.8989 0.9375H21.3091L18.3559 18H14.3247L15.0512 13.8516L17.8989 0.9375ZM24.5261 16.3242L29.5652 5.32031H33.8191L26.3894 19.8984C26.1628 20.3828 25.905 20.8242 25.6159 21.2227C25.3347 21.6211 25.0144 21.9648 24.655 22.2539C24.2956 22.543 23.8894 22.7656 23.4362 22.9219C22.9831 23.0781 22.4714 23.1562 21.9011 23.1562C21.6042 23.1562 21.3152 23.1289 21.0339 23.0742C20.7527 23.0273 20.4714 22.9688 20.1902 22.8984L20.4831 20.0625C20.5612 20.0703 20.6394 20.0742 20.7175 20.0742C20.7956 20.082 20.8698 20.0859 20.9402 20.0859C21.2683 20.0859 21.5612 20.0508 21.8191 19.9805C22.0847 19.918 22.3191 19.8047 22.5222 19.6406C22.7331 19.4766 22.9167 19.25 23.073 18.9609L24.5261 16.3242ZM25.5925 5.32031L26.5066 14.3906L26.2136 18.375H23.7058L21.5964 5.32031H25.5925ZM45.9953 12.2227L41.6594 12.2109L42.2102 9.03516L46.1359 9.04688C46.6437 9.04688 47.1086 8.95703 47.5305 8.77734C47.9523 8.58984 48.3 8.32031 48.5734 7.96875C48.8469 7.61719 49.0227 7.17969 49.1008 6.65625C49.1711 6.22656 49.1594 5.82422 49.0656 5.44922C48.9719 5.07422 48.7883 4.76562 48.5148 4.52344C48.2414 4.28125 47.8664 4.14844 47.3898 4.125L44.5891 4.11328L42.175 18H38.1672L41.1203 0.9375L47.5187 0.949219C48.6359 0.972656 49.6359 1.21484 50.5187 1.67578C51.4016 2.13672 52.0852 2.78516 52.5695 3.62109C53.0539 4.45703 53.2492 5.46094 53.1555 6.63281C53.0539 7.89844 52.6516 8.94531 51.9484 9.77344C51.2531 10.6016 50.3781 11.2188 49.3234 11.625C48.2766 12.0234 47.1672 12.2227 45.9953 12.2227ZM60.0991 0L56.9819 18H53.1147L56.2319 0H60.0991ZM66.0348 14.8125L66.8552 9.53906C66.8864 9.25781 66.8825 8.98828 66.8434 8.73047C66.8122 8.47266 66.7145 8.26172 66.5505 8.09766C66.3942 7.92578 66.1481 7.83594 65.8122 7.82812C65.5075 7.82031 65.2497 7.875 65.0387 7.99219C64.8278 8.10938 64.6598 8.27344 64.5348 8.48438C64.4098 8.69531 64.32 8.9375 64.2653 9.21094L60.3981 9.23438C60.4294 8.5 60.6247 7.86719 60.9841 7.33594C61.3434 6.80469 61.8044 6.37109 62.3669 6.03516C62.9294 5.69922 63.5427 5.45312 64.2067 5.29688C64.8786 5.14062 65.5387 5.07031 66.1872 5.08594C67.0778 5.10156 67.8825 5.28906 68.6012 5.64844C69.3278 6 69.8864 6.51172 70.277 7.18359C70.6755 7.84766 70.8278 8.65625 70.7341 9.60938L69.902 14.8125C69.8317 15.2812 69.7692 15.7812 69.7145 16.3125C69.6598 16.8359 69.738 17.3242 69.9489 17.7773L69.9372 18L66.1755 18.0117C66.0036 17.5039 65.9177 16.9766 65.9177 16.4297C65.9177 15.8828 65.9567 15.3438 66.0348 14.8125ZM67.2887 10.2539L66.9372 12.3633L65.4255 12.3516C65.1286 12.3594 64.8434 12.4102 64.57 12.5039C64.3044 12.5898 64.0661 12.7148 63.8552 12.8789C63.6442 13.043 63.4684 13.2461 63.3278 13.4883C63.195 13.7305 63.1091 14.0078 63.07 14.3203C63.0387 14.5312 63.0544 14.7227 63.1169 14.8945C63.1872 15.0586 63.2927 15.1914 63.4333 15.293C63.5817 15.3945 63.7653 15.4492 63.9841 15.457C64.32 15.4648 64.6442 15.4023 64.9567 15.2695C65.2692 15.1367 65.5387 14.9492 65.7653 14.707C65.9997 14.4648 66.1598 14.1836 66.2458 13.8633L66.9255 15.5156C66.7223 15.9219 66.488 16.293 66.2223 16.6289C65.9645 16.9648 65.6716 17.2578 65.3434 17.5078C65.0231 17.75 64.6637 17.9375 64.2653 18.0703C63.8669 18.2031 63.4255 18.2656 62.9411 18.2578C62.2458 18.2422 61.6052 18.0742 61.0192 17.7539C60.4333 17.4336 59.9684 16.9961 59.6247 16.4414C59.2809 15.8867 59.1208 15.2461 59.1442 14.5195C59.1755 13.6758 59.3825 12.9766 59.7653 12.4219C60.1481 11.8672 60.6442 11.4336 61.2536 11.1211C61.8708 10.8008 62.5387 10.5742 63.2575 10.4414C63.9841 10.3086 64.7028 10.2422 65.4137 10.2422L67.2887 10.2539ZM76.6816 8.23828L74.9823 18H71.1269L73.33 5.32031H76.9277L76.6816 8.23828ZM75.7206 11.2266L74.9237 11.2734C74.9941 10.5156 75.1503 9.76562 75.3925 9.02344C75.6347 8.27344 75.9706 7.59766 76.4003 6.99609C76.8378 6.39453 77.3769 5.92188 78.0175 5.57812C78.6659 5.22656 79.4277 5.05859 80.3027 5.07422C81.0136 5.09766 81.5956 5.25 82.0487 5.53125C82.5097 5.8125 82.8612 6.1875 83.1034 6.65625C83.3456 7.11719 83.498 7.64062 83.5605 8.22656C83.6308 8.80469 83.6347 9.40234 83.5722 10.0195L82.2362 18H78.3573L79.705 9.98438C79.7441 9.61719 79.7323 9.29297 79.6698 9.01172C79.6152 8.73047 79.4823 8.51172 79.2714 8.35547C79.0683 8.19922 78.7636 8.11719 78.3573 8.10938C77.9042 8.10156 77.5214 8.1875 77.2089 8.36719C76.9042 8.54688 76.6503 8.79297 76.4472 9.10547C76.2519 9.41016 76.0956 9.75 75.9784 10.125C75.8691 10.4922 75.7831 10.8594 75.7206 11.2266ZM89.59 8.23828L87.8908 18H84.0353L86.2384 5.32031H89.8361L89.59 8.23828ZM88.6291 11.2266L87.8322 11.2734C87.9025 10.5156 88.0587 9.76562 88.3009 9.02344C88.5431 8.27344 88.8791 7.59766 89.3087 6.99609C89.7462 6.39453 90.2853 5.92188 90.9259 5.57812C91.5744 5.22656 92.3361 5.05859 93.2111 5.07422C93.922 5.09766 94.5041 5.25 94.9572 5.53125C95.4181 5.8125 95.7697 6.1875 96.0119 6.65625C96.2541 7.11719 96.4064 7.64062 96.4689 8.22656C96.5392 8.80469 96.5431 9.40234 96.4806 10.0195L95.1447 18H91.2658L92.6134 9.98438C92.6525 9.61719 92.6408 9.29297 92.5783 9.01172C92.5236 8.73047 92.3908 8.51172 92.1798 8.35547C91.9767 8.19922 91.672 8.11719 91.2658 8.10938C90.8127 8.10156 90.4298 8.1875 90.1173 8.36719C89.8127 8.54688 89.5587 8.79297 89.3556 9.10547C89.1603 9.41016 89.0041 9.75 88.8869 10.125C88.7775 10.4922 88.6916 10.8594 88.6291 11.2266ZM103.284 5.32031L101.092 18H97.225L99.4281 5.32031H103.284ZM99.768 2.12109C99.7523 1.51172 99.9555 1.02734 100.377 0.667969C100.807 0.308594 101.311 0.125 101.889 0.117188C102.444 0.109375 102.936 0.273437 103.366 0.609375C103.795 0.9375 104.014 1.39453 104.022 1.98047C104.037 2.58984 103.83 3.07422 103.401 3.43359C102.979 3.79297 102.479 3.97656 101.901 3.98438C101.346 3.99219 100.854 3.83203 100.424 3.50391C100.002 3.16797 99.7836 2.70703 99.768 2.12109ZM108.657 8.23828L106.958 18H103.102L105.305 5.32031H108.903L108.657 8.23828ZM107.696 11.2266L106.899 11.2734C106.969 10.5156 107.126 9.76562 107.368 9.02344C107.61 8.27344 107.946 7.59766 108.376 6.99609C108.813 6.39453 109.352 5.92188 109.993 5.57812C110.641 5.22656 111.403 5.05859 112.278 5.07422C112.989 5.09766 113.571 5.25 114.024 5.53125C114.485 5.8125 114.837 6.1875 115.079 6.65625C115.321 7.11719 115.473 7.64062 115.536 8.22656C115.606 8.80469 115.61 9.40234 115.547 10.0195L114.212 18H110.333L111.68 9.98438C111.719 9.61719 111.708 9.29297 111.645 9.01172C111.59 8.73047 111.458 8.51172 111.247 8.35547C111.044 8.19922 110.739 8.11719 110.333 8.10938C109.88 8.10156 109.497 8.1875 109.184 8.36719C108.88 8.54688 108.626 8.79297 108.422 9.10547C108.227 9.41016 108.071 9.75 107.954 10.125C107.844 10.4922 107.758 10.8594 107.696 11.2266ZM125.983 5.32031H129.522L127.448 17.4961C127.284 18.7148 126.87 19.7344 126.206 20.5547C125.55 21.3828 124.722 22.0039 123.722 22.418C122.722 22.832 121.628 23.0234 120.44 22.9922C119.878 22.9844 119.323 22.9062 118.776 22.7578C118.237 22.6094 117.725 22.3906 117.241 22.1016C116.757 21.8203 116.327 21.4648 115.952 21.0352L117.78 18.7617C118.116 19.1836 118.507 19.5078 118.952 19.7344C119.405 19.9609 119.901 20.0781 120.44 20.0859C120.995 20.1016 121.487 20.0039 121.917 19.793C122.354 19.582 122.714 19.2812 122.995 18.8906C123.276 18.5 123.468 18.0312 123.569 17.4844L125.163 8.12109L125.983 5.32031ZM116.725 11.8945L116.761 11.6484C116.854 10.8516 117.042 10.0586 117.323 9.26953C117.604 8.48047 117.983 7.76562 118.46 7.125C118.944 6.48438 119.53 5.98047 120.218 5.61328C120.913 5.23828 121.722 5.0625 122.643 5.08594C123.495 5.10938 124.175 5.32812 124.682 5.74219C125.198 6.15625 125.585 6.6875 125.843 7.33594C126.1 7.98438 126.268 8.68359 126.347 9.43359C126.425 10.1758 126.452 10.8906 126.429 11.5781L126.405 11.8828C126.28 12.5625 126.073 13.2773 125.784 14.0273C125.503 14.7773 125.136 15.4766 124.682 16.125C124.237 16.7734 123.698 17.2969 123.065 17.6953C122.44 18.0859 121.722 18.2695 120.909 18.2461C120.057 18.2305 119.347 18.0312 118.776 17.6484C118.206 17.2578 117.757 16.7539 117.429 16.1367C117.108 15.5117 116.893 14.832 116.784 14.0977C116.675 13.3555 116.655 12.6211 116.725 11.8945ZM120.616 11.6484L120.593 11.8945C120.561 12.1992 120.546 12.5391 120.546 12.9141C120.554 13.2812 120.604 13.6367 120.698 13.9805C120.792 14.3242 120.952 14.6094 121.179 14.8359C121.405 15.0625 121.722 15.1836 122.128 15.1992C122.729 15.2305 123.225 15.1055 123.616 14.8242C124.007 14.543 124.307 14.1719 124.518 13.7109C124.729 13.2422 124.866 12.7461 124.929 12.2227L125.034 11.2852C125.073 10.9336 125.093 10.5781 125.093 10.2188C125.1 9.85156 125.054 9.51172 124.952 9.19922C124.858 8.88672 124.69 8.63281 124.448 8.4375C124.206 8.23438 123.858 8.12891 123.405 8.12109C122.944 8.10547 122.546 8.21094 122.21 8.4375C121.882 8.65625 121.608 8.94531 121.39 9.30469C121.171 9.66406 120.999 10.0508 120.874 10.4648C120.749 10.8789 120.663 11.2734 120.616 11.6484ZM144.452 13.3828C144.523 13.0156 144.495 12.7031 144.37 12.4453C144.253 12.1875 144.074 11.9688 143.831 11.7891C143.597 11.6094 143.327 11.457 143.023 11.332C142.726 11.1992 142.437 11.0781 142.156 10.9688C141.546 10.7266 140.945 10.4531 140.351 10.1484C139.757 9.83594 139.218 9.46875 138.734 9.04688C138.249 8.625 137.87 8.13281 137.597 7.57031C137.331 7.00781 137.218 6.34766 137.257 5.58984C137.312 4.72266 137.558 3.97656 137.995 3.35156C138.433 2.72656 138.992 2.21875 139.671 1.82812C140.359 1.42969 141.097 1.14062 141.886 0.960938C142.683 0.773438 143.46 0.6875 144.218 0.703125C145.296 0.71875 146.257 0.9375 147.101 1.35938C147.952 1.78125 148.62 2.38672 149.105 3.17578C149.589 3.95703 149.824 4.90234 149.808 6.01172H145.835C145.851 5.57422 145.792 5.19531 145.66 4.875C145.535 4.54688 145.327 4.29297 145.038 4.11328C144.749 3.92578 144.374 3.82813 143.913 3.82031C143.531 3.8125 143.148 3.875 142.765 4.00781C142.382 4.13281 142.05 4.32812 141.769 4.59375C141.488 4.85938 141.308 5.20312 141.23 5.625C141.175 5.94531 141.226 6.22656 141.382 6.46875C141.538 6.70312 141.753 6.90625 142.027 7.07812C142.3 7.24219 142.585 7.38281 142.882 7.5C143.187 7.61719 143.452 7.71875 143.679 7.80469C144.32 8.04688 144.933 8.33203 145.519 8.66016C146.113 8.98047 146.636 9.35938 147.089 9.79688C147.55 10.2344 147.902 10.7461 148.144 11.332C148.394 11.9102 148.495 12.582 148.449 13.3477C148.386 14.2305 148.152 14.9844 147.745 15.6094C147.339 16.2344 146.816 16.7422 146.175 17.1328C145.535 17.5234 144.831 17.8086 144.066 17.9883C143.3 18.168 142.523 18.2539 141.734 18.2461C140.851 18.2305 140.027 18.0977 139.261 17.8477C138.495 17.5898 137.827 17.2188 137.257 16.7344C136.687 16.2422 136.245 15.6406 135.933 14.9297C135.62 14.2109 135.472 13.3867 135.488 12.457L139.507 12.4688C139.484 12.9062 139.511 13.293 139.589 13.6289C139.675 13.957 139.816 14.2344 140.011 14.4609C140.214 14.6797 140.476 14.8477 140.796 14.9648C141.117 15.0742 141.503 15.1289 141.956 15.1289C142.339 15.1289 142.706 15.0703 143.058 14.9531C143.417 14.8281 143.722 14.6367 143.972 14.3789C144.222 14.1211 144.382 13.7891 144.452 13.3828ZM157.982 5.32031L157.502 8.0625H150.072L150.552 5.32031H157.982ZM152.65 2.16797H156.505L154.49 13.8867C154.459 14.1602 154.459 14.3867 154.49 14.5664C154.521 14.7383 154.603 14.8711 154.736 14.9648C154.877 15.0508 155.091 15.1016 155.38 15.1172C155.545 15.125 155.709 15.1211 155.873 15.1055C156.037 15.0898 156.201 15.0742 156.365 15.0586L156.095 17.918C155.759 18.0273 155.416 18.1055 155.064 18.1523C154.72 18.1992 154.369 18.2227 154.009 18.2227C153.212 18.207 152.545 18.0469 152.005 17.7422C151.474 17.4297 151.087 16.9883 150.845 16.418C150.611 15.8398 150.529 15.1523 150.599 14.3555L152.65 2.16797ZM162.558 8.67188L160.941 18H157.086L159.289 5.32031H162.875L162.558 8.67188ZM166.707 5.21484L166.203 8.89453C166 8.86328 165.797 8.83594 165.594 8.8125C165.39 8.78906 165.183 8.77344 164.973 8.76562C164.543 8.75781 164.152 8.80859 163.801 8.91797C163.457 9.01953 163.156 9.17969 162.898 9.39844C162.648 9.60938 162.441 9.875 162.277 10.1953C162.113 10.5156 161.992 10.8867 161.914 11.3086L161.269 10.8398C161.348 10.2461 161.473 9.61719 161.644 8.95312C161.824 8.28125 162.074 7.64844 162.394 7.05469C162.715 6.46094 163.129 5.98047 163.637 5.61328C164.144 5.23828 164.769 5.05078 165.512 5.05078C165.715 5.05078 165.914 5.06641 166.109 5.09766C166.305 5.12891 166.504 5.16797 166.707 5.21484ZM172.268 14.8125L173.088 9.53906C173.119 9.25781 173.115 8.98828 173.076 8.73047C173.045 8.47266 172.947 8.26172 172.783 8.09766C172.627 7.92578 172.381 7.83594 172.045 7.82812C171.74 7.82031 171.482 7.875 171.272 7.99219C171.061 8.10938 170.893 8.27344 170.768 8.48438C170.643 8.69531 170.553 8.9375 170.498 9.21094L166.631 9.23438C166.662 8.5 166.857 7.86719 167.217 7.33594C167.576 6.80469 168.037 6.37109 168.6 6.03516C169.162 5.69922 169.775 5.45312 170.44 5.29688C171.111 5.14062 171.772 5.07031 172.42 5.08594C173.311 5.10156 174.115 5.28906 174.834 5.64844C175.561 6 176.119 6.51172 176.51 7.18359C176.908 7.84766 177.061 8.65625 176.967 9.60938L176.135 14.8125C176.065 15.2812 176.002 15.7812 175.947 16.3125C175.893 16.8359 175.971 17.3242 176.182 17.7773L176.17 18L172.408 18.0117C172.236 17.5039 172.15 16.9766 172.15 16.4297C172.15 15.8828 172.19 15.3438 172.268 14.8125ZM173.522 10.2539L173.17 12.3633L171.658 12.3516C171.361 12.3594 171.076 12.4102 170.803 12.5039C170.537 12.5898 170.299 12.7148 170.088 12.8789C169.877 13.043 169.701 13.2461 169.561 13.4883C169.428 13.7305 169.342 14.0078 169.303 14.3203C169.272 14.5312 169.287 14.7227 169.35 14.8945C169.42 15.0586 169.525 15.1914 169.666 15.293C169.815 15.3945 169.998 15.4492 170.217 15.457C170.553 15.4648 170.877 15.4023 171.19 15.2695C171.502 15.1367 171.772 14.9492 171.998 14.707C172.232 14.4648 172.393 14.1836 172.479 13.8633L173.158 15.5156C172.955 15.9219 172.721 16.293 172.455 16.6289C172.197 16.9648 171.904 17.2578 171.576 17.5078C171.256 17.75 170.897 17.9375 170.498 18.0703C170.1 18.2031 169.658 18.2656 169.174 18.2578C168.479 18.2422 167.838 18.0742 167.252 17.7539C166.666 17.4336 166.201 16.9961 165.857 16.4414C165.514 15.8867 165.354 15.2461 165.377 14.5195C165.408 13.6758 165.615 12.9766 165.998 12.4219C166.381 11.8672 166.877 11.4336 167.486 11.1211C168.104 10.8008 168.772 10.5742 169.49 10.4414C170.217 10.3086 170.936 10.2422 171.647 10.2422L173.522 10.2539ZM186.137 5.32031L185.657 8.0625H178.227L178.707 5.32031H186.137ZM180.805 2.16797H184.66L182.645 13.8867C182.614 14.1602 182.614 14.3867 182.645 14.5664C182.676 14.7383 182.758 14.8711 182.891 14.9648C183.032 15.0508 183.246 15.1016 183.535 15.1172C183.7 15.125 183.864 15.1211 184.028 15.1055C184.192 15.0898 184.356 15.0742 184.52 15.0586L184.25 17.918C183.914 18.0273 183.571 18.1055 183.219 18.1523C182.875 18.1992 182.524 18.2227 182.164 18.2227C181.367 18.207 180.7 18.0469 180.16 17.7422C179.629 17.4297 179.242 16.9883 179 16.418C178.766 15.8398 178.684 15.1523 178.754 14.3555L180.805 2.16797ZM191.487 18.2344C190.612 18.2188 189.815 18.0586 189.096 17.7539C188.378 17.4414 187.768 17.0117 187.268 16.4648C186.768 15.918 186.397 15.2773 186.155 14.543C185.92 13.8008 185.835 12.9922 185.897 12.1172L185.944 11.6602C186.038 10.7383 186.256 9.87891 186.6 9.08203C186.944 8.27734 187.405 7.57422 187.983 6.97266C188.561 6.36328 189.241 5.89062 190.022 5.55469C190.811 5.21875 191.694 5.0625 192.67 5.08594C193.553 5.10156 194.315 5.27734 194.956 5.61328C195.604 5.94922 196.131 6.40625 196.538 6.98438C196.944 7.55469 197.225 8.21094 197.381 8.95312C197.545 9.6875 197.585 10.4688 197.499 11.2969L197.276 12.9023H187.198L187.596 10.4297L193.807 10.4414L193.878 10.1016C193.932 9.73438 193.917 9.40234 193.831 9.10547C193.745 8.80859 193.585 8.57422 193.35 8.40234C193.116 8.22266 192.799 8.125 192.401 8.10938C191.917 8.10156 191.514 8.20703 191.194 8.42578C190.881 8.64453 190.628 8.93359 190.432 9.29297C190.245 9.65234 190.1 10.043 189.999 10.4648C189.897 10.8789 189.823 11.2773 189.776 11.6602L189.729 12.1055C189.698 12.4883 189.71 12.8594 189.764 13.2188C189.819 13.5781 189.928 13.9023 190.092 14.1914C190.264 14.4805 190.495 14.7148 190.784 14.8945C191.073 15.0664 191.436 15.1602 191.874 15.1758C192.46 15.1914 193.006 15.082 193.514 14.8477C194.022 14.6133 194.479 14.293 194.885 13.8867L196.491 16.0195C196.139 16.5508 195.686 16.9805 195.131 17.3086C194.577 17.6289 193.979 17.8633 193.338 18.0117C192.706 18.168 192.088 18.2422 191.487 18.2344ZM207.571 5.32031H211.11L209.036 17.4961C208.872 18.7148 208.458 19.7344 207.794 20.5547C207.137 21.3828 206.309 22.0039 205.309 22.418C204.309 22.832 203.216 23.0234 202.028 22.9922C201.466 22.9844 200.911 22.9062 200.364 22.7578C199.825 22.6094 199.313 22.3906 198.829 22.1016C198.345 21.8203 197.915 21.4648 197.54 21.0352L199.368 18.7617C199.704 19.1836 200.095 19.5078 200.54 19.7344C200.993 19.9609 201.489 20.0781 202.028 20.0859C202.583 20.1016 203.075 20.0039 203.505 19.793C203.942 19.582 204.302 19.2812 204.583 18.8906C204.864 18.5 205.055 18.0312 205.157 17.4844L206.751 8.12109L207.571 5.32031ZM198.313 11.8945L198.348 11.6484C198.442 10.8516 198.63 10.0586 198.911 9.26953C199.192 8.48047 199.571 7.76562 200.048 7.125C200.532 6.48438 201.118 5.98047 201.805 5.61328C202.501 5.23828 203.309 5.0625 204.231 5.08594C205.083 5.10938 205.762 5.32812 206.27 5.74219C206.786 6.15625 207.173 6.6875 207.43 7.33594C207.688 7.98438 207.856 8.68359 207.934 9.43359C208.012 10.1758 208.04 10.8906 208.016 11.5781L207.993 11.8828C207.868 12.5625 207.661 13.2773 207.372 14.0273C207.091 14.7773 206.723 15.4766 206.27 16.125C205.825 16.7734 205.286 17.2969 204.653 17.6953C204.028 18.0859 203.309 18.2695 202.497 18.2461C201.645 18.2305 200.934 18.0312 200.364 17.6484C199.794 17.2578 199.345 16.7539 199.016 16.1367C198.696 15.5117 198.481 14.832 198.372 14.0977C198.262 13.3555 198.243 12.6211 198.313 11.8945ZM202.204 11.6484L202.18 11.8945C202.149 12.1992 202.134 12.5391 202.134 12.9141C202.141 13.2812 202.192 13.6367 202.286 13.9805C202.38 14.3242 202.54 14.6094 202.766 14.8359C202.993 15.0625 203.309 15.1836 203.716 15.1992C204.317 15.2305 204.813 15.1055 205.204 14.8242C205.595 14.543 205.895 14.1719 206.106 13.7109C206.317 13.2422 206.454 12.7461 206.516 12.2227L206.622 11.2852C206.661 10.9336 206.68 10.5781 206.68 10.2188C206.688 9.85156 206.641 9.51172 206.54 9.19922C206.446 8.88672 206.278 8.63281 206.036 8.4375C205.794 8.23438 205.446 8.12891 204.993 8.12109C204.532 8.10547 204.134 8.21094 203.798 8.4375C203.47 8.65625 203.196 8.94531 202.977 9.30469C202.759 9.66406 202.587 10.0508 202.462 10.4648C202.337 10.8789 202.251 11.2734 202.204 11.6484ZM217.105 5.32031L214.913 18H211.046L213.249 5.32031H217.105ZM213.589 2.12109C213.573 1.51172 213.776 1.02734 214.198 0.667969C214.628 0.308594 215.132 0.125 215.71 0.117188C216.265 0.109375 216.757 0.273437 217.187 0.609375C217.616 0.9375 217.835 1.39453 217.843 1.98047C217.858 2.58984 217.651 3.07422 217.222 3.43359C216.8 3.79297 216.3 3.97656 215.722 3.98438C215.167 3.99219 214.675 3.83203 214.245 3.50391C213.823 3.16797 213.605 2.70703 213.589 2.12109ZM223.275 18.2344C222.4 18.2188 221.603 18.0586 220.884 17.7539C220.165 17.4414 219.556 17.0117 219.056 16.4648C218.556 15.918 218.185 15.2773 217.943 14.543C217.708 13.8008 217.622 12.9922 217.685 12.1172L217.732 11.6602C217.825 10.7383 218.044 9.87891 218.388 9.08203C218.732 8.27734 219.193 7.57422 219.771 6.97266C220.349 6.36328 221.029 5.89062 221.81 5.55469C222.599 5.21875 223.482 5.0625 224.458 5.08594C225.341 5.10156 226.103 5.27734 226.743 5.61328C227.392 5.94922 227.919 6.40625 228.325 6.98438C228.732 7.55469 229.013 8.21094 229.169 8.95312C229.333 9.6875 229.372 10.4688 229.286 11.2969L229.064 12.9023H218.986L219.384 10.4297L225.595 10.4414L225.665 10.1016C225.72 9.73438 225.704 9.40234 225.618 9.10547C225.533 8.80859 225.372 8.57422 225.138 8.40234C224.904 8.22266 224.587 8.125 224.189 8.10938C223.704 8.10156 223.302 8.20703 222.982 8.42578C222.669 8.64453 222.415 8.93359 222.22 9.29297C222.033 9.65234 221.888 10.043 221.786 10.4648C221.685 10.8789 221.611 11.2773 221.564 11.6602L221.517 12.1055C221.486 12.4883 221.497 12.8594 221.552 13.2188C221.607 13.5781 221.716 13.9023 221.88 14.1914C222.052 14.4805 222.283 14.7148 222.572 14.8945C222.861 15.0664 223.224 15.1602 223.661 15.1758C224.247 15.1914 224.794 15.082 225.302 14.8477C225.81 14.6133 226.267 14.293 226.673 13.8867L228.279 16.0195C227.927 16.5508 227.474 16.9805 226.919 17.3086C226.365 17.6289 225.767 17.8633 225.126 18.0117C224.493 18.168 223.876 18.2422 223.275 18.2344ZM236.617 14.3672C236.679 14.0391 236.582 13.7891 236.324 13.6172C236.074 13.4375 235.773 13.3047 235.421 13.2188C235.078 13.125 234.8 13.0508 234.589 12.9961C234.113 12.8711 233.64 12.7109 233.171 12.5156C232.703 12.3125 232.277 12.0625 231.894 11.7656C231.519 11.4609 231.218 11.0977 230.992 10.6758C230.773 10.2461 230.675 9.74609 230.699 9.17578C230.722 8.47266 230.898 7.86328 231.226 7.34766C231.562 6.83203 231.996 6.40625 232.527 6.07031C233.058 5.72656 233.636 5.47266 234.261 5.30859C234.894 5.14453 235.523 5.07031 236.148 5.08594C237.007 5.09375 237.816 5.24609 238.574 5.54297C239.339 5.83984 239.96 6.29297 240.437 6.90234C240.921 7.51172 241.168 8.28516 241.175 9.22266L237.343 9.21094C237.351 8.90625 237.312 8.64062 237.226 8.41406C237.148 8.1875 237.011 8.01562 236.816 7.89844C236.621 7.77344 236.355 7.71094 236.019 7.71094C235.769 7.71094 235.523 7.76172 235.281 7.86328C235.039 7.96484 234.828 8.10938 234.648 8.29688C234.476 8.48438 234.367 8.71094 234.32 8.97656C234.273 9.20312 234.304 9.39453 234.414 9.55078C234.523 9.69922 234.671 9.82031 234.859 9.91406C235.046 10.0078 235.242 10.0859 235.445 10.1484C235.656 10.2031 235.843 10.2461 236.007 10.2773C236.718 10.4492 237.406 10.6797 238.07 10.9688C238.742 11.25 239.289 11.6523 239.71 12.1758C240.14 12.6914 240.343 13.3789 240.32 14.2383C240.296 14.9648 240.101 15.5859 239.734 16.1016C239.367 16.6094 238.894 17.0234 238.316 17.3438C237.746 17.6562 237.128 17.8828 236.464 18.0234C235.808 18.1719 235.171 18.2422 234.554 18.2344C233.695 18.2188 232.882 18.0469 232.117 17.7188C231.351 17.3828 230.726 16.8984 230.242 16.2656C229.765 15.625 229.515 14.8398 229.492 13.9102L233.054 13.9219C233.062 14.2891 233.128 14.5977 233.253 14.8477C233.386 15.0898 233.578 15.2773 233.828 15.4102C234.078 15.5352 234.386 15.5977 234.753 15.5977C235.027 15.5977 235.293 15.5586 235.55 15.4805C235.816 15.3945 236.043 15.2617 236.23 15.082C236.425 14.8945 236.554 14.6562 236.617 14.3672Z" fill="black"/>
</svg>
