<svg width="150" height="19" viewBox="0 0 150 19" fill="none" xmlns="http://www.w3.org/2000/svg">
<path d="M8.09016 12.2227L3.75422 12.2109L4.305 9.03516L8.23078 9.04688C8.73859 9.04688 9.20344 8.95703 9.62531 8.77734C10.0472 8.58984 10.3948 8.32031 10.6683 7.96875C10.9417 7.61719 11.1175 7.17969 11.1956 6.65625C11.2659 6.22656 11.2542 5.82422 11.1605 5.44922C11.0667 5.07422 10.8831 4.76562 10.6097 4.52344C10.3363 4.28125 9.96125 4.14844 9.48469 4.125L6.68391 4.11328L4.26984 18H0.262032L3.21516 0.9375L9.61359 0.949219C10.7308 0.972656 11.7308 1.21484 12.6136 1.67578C13.4964 2.13672 14.18 2.78516 14.6644 3.62109C15.1488 4.45703 15.3441 5.46094 15.2503 6.63281C15.1488 7.89844 14.7464 8.94531 14.0433 9.77344C13.348 10.6016 12.473 11.2188 11.4183 11.625C10.3714 12.0234 9.26203 12.2227 8.09016 12.2227ZM22.1939 0L19.0767 18H15.2095L18.3267 0H22.1939ZM28.1297 14.8125L28.95 9.53906C28.9813 9.25781 28.9773 8.98828 28.9383 8.73047C28.907 8.47266 28.8094 8.26172 28.6453 8.09766C28.4891 7.92578 28.243 7.83594 27.907 7.82812C27.6023 7.82031 27.3445 7.875 27.1336 7.99219C26.9227 8.10938 26.7547 8.27344 26.6297 8.48438C26.5047 8.69531 26.4148 8.9375 26.3602 9.21094L22.493 9.23438C22.5242 8.5 22.7195 7.86719 23.0789 7.33594C23.4383 6.80469 23.8992 6.37109 24.4617 6.03516C25.0242 5.69922 25.6375 5.45312 26.3016 5.29688C26.9734 5.14062 27.6336 5.07031 28.282 5.08594C29.1727 5.10156 29.9773 5.28906 30.6961 5.64844C31.4227 6 31.9813 6.51172 32.3719 7.18359C32.7703 7.84766 32.9227 8.65625 32.8289 9.60938L31.9969 14.8125C31.9266 15.2812 31.8641 15.7812 31.8094 16.3125C31.7547 16.8359 31.8328 17.3242 32.0438 17.7773L32.032 18L28.2703 18.0117C28.0984 17.5039 28.0125 16.9766 28.0125 16.4297C28.0125 15.8828 28.0516 15.3438 28.1297 14.8125ZM29.3836 10.2539L29.032 12.3633L27.5203 12.3516C27.2234 12.3594 26.9383 12.4102 26.6648 12.5039C26.3992 12.5898 26.1609 12.7148 25.95 12.8789C25.7391 13.043 25.5633 13.2461 25.4227 13.4883C25.2898 13.7305 25.2039 14.0078 25.1648 14.3203C25.1336 14.5312 25.1492 14.7227 25.2117 14.8945C25.282 15.0586 25.3875 15.1914 25.5281 15.293C25.6766 15.3945 25.8602 15.4492 26.0789 15.457C26.4148 15.4648 26.7391 15.4023 27.0516 15.2695C27.3641 15.1367 27.6336 14.9492 27.8602 14.707C28.0945 14.4648 28.2547 14.1836 28.3406 13.8633L29.0203 15.5156C28.8172 15.9219 28.5828 16.293 28.3172 16.6289C28.0594 16.9648 27.7664 17.2578 27.4383 17.5078C27.118 17.75 26.7586 17.9375 26.3602 18.0703C25.9617 18.2031 25.5203 18.2656 25.0359 18.2578C24.3406 18.2422 23.7 18.0742 23.1141 17.7539C22.5281 17.4336 22.0633 16.9961 21.7195 16.4414C21.3758 15.8867 21.2156 15.2461 21.2391 14.5195C21.2703 13.6758 21.4773 12.9766 21.8602 12.4219C22.243 11.8672 22.7391 11.4336 23.3484 11.1211C23.9656 10.8008 24.6336 10.5742 25.3523 10.4414C26.0789 10.3086 26.7977 10.2422 27.5086 10.2422L29.3836 10.2539ZM38.7764 8.23828L37.0772 18H33.2217L35.4248 5.32031H39.0225L38.7764 8.23828ZM37.8155 11.2266L37.0186 11.2734C37.0889 10.5156 37.2452 9.76562 37.4873 9.02344C37.7295 8.27344 38.0655 7.59766 38.4952 6.99609C38.9327 6.39453 39.4717 5.92188 40.1123 5.57812C40.7608 5.22656 41.5225 5.05859 42.3975 5.07422C43.1084 5.09766 43.6905 5.25 44.1436 5.53125C44.6045 5.8125 44.9561 6.1875 45.1983 6.65625C45.4405 7.11719 45.5928 7.64062 45.6553 8.22656C45.7256 8.80469 45.7295 9.40234 45.667 10.0195L44.3311 18H40.4522L41.7998 9.98438C41.8389 9.61719 41.8272 9.29297 41.7647 9.01172C41.71 8.73047 41.5772 8.51172 41.3662 8.35547C41.1631 8.19922 40.8584 8.11719 40.4522 8.10938C39.9991 8.10156 39.6162 8.1875 39.3037 8.36719C38.9991 8.54688 38.7452 8.79297 38.542 9.10547C38.3467 9.41016 38.1905 9.75 38.0733 10.125C37.9639 10.4922 37.878 10.8594 37.8155 11.2266ZM61.4175 4.72266L55.1362 18H50.6948L59.7417 0.9375H62.5777L61.4175 4.72266ZM62.4956 18L60.7612 4.3125L60.855 0.9375H63.5269L66.6792 18H62.4956ZM63.4097 11.6367L62.8472 14.8125H54.3277L54.8902 11.6367H63.4097ZM73.2478 15.1992C73.615 15.207 73.9314 15.1406 74.197 15C74.4627 14.8516 74.6736 14.6484 74.8298 14.3906C74.9939 14.125 75.0994 13.8203 75.1462 13.4766L78.7673 13.4648C78.7205 14.4648 78.4275 15.3242 77.8884 16.043C77.3572 16.7617 76.6736 17.3125 75.8377 17.6953C75.0017 18.0781 74.1033 18.2578 73.1423 18.2344C72.2205 18.2188 71.4275 18.0391 70.7634 17.6953C70.0994 17.3438 69.5603 16.875 69.1462 16.2891C68.7322 15.6953 68.4392 15.0156 68.2673 14.25C68.1033 13.4844 68.0603 12.6758 68.1384 11.8242L68.1736 11.543C68.2673 10.6523 68.4783 9.8125 68.8064 9.02344C69.1423 8.23438 69.5877 7.54297 70.1423 6.94922C70.697 6.34766 71.3533 5.88281 72.1111 5.55469C72.8767 5.21875 73.7361 5.0625 74.6892 5.08594C75.7048 5.10156 76.5681 5.32812 77.2791 5.76562C77.9978 6.20312 78.5408 6.80078 78.908 7.55859C79.2752 8.31641 79.447 9.19141 79.4236 10.1836L75.8025 10.1719C75.8181 9.83594 75.7869 9.51562 75.7087 9.21094C75.6384 8.89844 75.4978 8.64453 75.2869 8.44922C75.0759 8.24609 74.7712 8.13672 74.3728 8.12109C73.9119 8.10547 73.5369 8.20703 73.2478 8.42578C72.9587 8.64453 72.7283 8.93359 72.5564 9.29297C72.3923 9.64453 72.2712 10.0234 72.1931 10.4297C72.115 10.8281 72.0564 11.2031 72.0173 11.5547L72.0056 11.8242C71.9744 12.1055 71.9431 12.4375 71.9119 12.8203C71.8884 13.1953 71.9002 13.5625 71.947 13.9219C72.0017 14.2812 72.1267 14.582 72.322 14.8242C72.5173 15.0586 72.8259 15.1836 73.2478 15.1992ZM88.1016 5.32031L87.6211 8.0625H80.1914L80.6719 5.32031H88.1016ZM82.7695 2.16797H86.625L84.6094 13.8867C84.5781 14.1602 84.5781 14.3867 84.6094 14.5664C84.6406 14.7383 84.7227 14.8711 84.8555 14.9648C84.9961 15.0508 85.2109 15.1016 85.5 15.1172C85.6641 15.125 85.8281 15.1211 85.9922 15.1055C86.1562 15.0898 86.3203 15.0742 86.4844 15.0586L86.2148 17.918C85.8789 18.0273 85.5352 18.1055 85.1836 18.1523C84.8398 18.1992 84.4883 18.2227 84.1289 18.2227C83.332 18.207 82.6641 18.0469 82.125 17.7422C81.5938 17.4297 81.207 16.9883 80.9648 16.418C80.7305 15.8398 80.6484 15.1523 80.7188 14.3555L82.7695 2.16797ZM93.4397 5.32031L91.2483 18H87.3811L89.5842 5.32031H93.4397ZM89.9241 2.12109C89.9084 1.51172 90.1116 1.02734 90.5334 0.667969C90.9631 0.308594 91.467 0.125 92.0452 0.117188C92.5998 0.109375 93.092 0.273437 93.5217 0.609375C93.9514 0.9375 94.1702 1.39453 94.178 1.98047C94.1936 2.58984 93.9866 3.07422 93.5569 3.43359C93.135 3.79297 92.635 3.97656 92.0569 3.98438C91.5022 3.99219 91.01 3.83203 90.5803 3.50391C90.1584 3.16797 89.9397 2.70703 89.9241 2.12109ZM98.3208 15.1406L102.247 5.32031H106.407L100.395 18H97.9458L98.3208 15.1406ZM98.4145 5.32031L99.2583 15.4805L98.8364 18H96.4809L94.4419 5.32031H98.4145ZM111.382 5.32031L109.19 18H105.323L107.526 5.32031H111.382ZM107.866 2.12109C107.85 1.51172 108.053 1.02734 108.475 0.667969C108.905 0.308594 109.409 0.125 109.987 0.117188C110.542 0.109375 111.034 0.273437 111.464 0.609375C111.893 0.9375 112.112 1.39453 112.12 1.98047C112.135 2.58984 111.928 3.07422 111.499 3.43359C111.077 3.79297 110.577 3.97656 109.999 3.98438C109.444 3.99219 108.952 3.83203 108.522 3.50391C108.1 3.16797 107.882 2.70703 107.866 2.12109ZM119.978 5.32031L119.497 8.0625H112.067L112.548 5.32031H119.978ZM114.645 2.16797H118.501L116.485 13.8867C116.454 14.1602 116.454 14.3867 116.485 14.5664C116.517 14.7383 116.599 14.8711 116.731 14.9648C116.872 15.0508 117.087 15.1016 117.376 15.1172C117.54 15.125 117.704 15.1211 117.868 15.1055C118.032 15.0898 118.196 15.0742 118.36 15.0586L118.091 17.918C117.755 18.0273 117.411 18.1055 117.06 18.1523C116.716 18.1992 116.364 18.2227 116.005 18.2227C115.208 18.207 114.54 18.0469 114.001 17.7422C113.47 17.4297 113.083 16.9883 112.841 16.418C112.606 15.8398 112.524 15.1523 112.595 14.3555L114.645 2.16797ZM125.316 5.32031L123.124 18H119.257L121.46 5.32031H125.316ZM121.8 2.12109C121.784 1.51172 121.988 1.02734 122.409 0.667969C122.839 0.308594 123.343 0.125 123.921 0.117188C124.476 0.109375 124.968 0.273437 125.398 0.609375C125.827 0.9375 126.046 1.39453 126.054 1.98047C126.07 2.58984 125.863 3.07422 125.433 3.43359C125.011 3.79297 124.511 3.97656 123.933 3.98438C123.378 3.99219 122.886 3.83203 122.456 3.50391C122.034 3.16797 121.816 2.70703 121.8 2.12109ZM131.486 18.2344C130.611 18.2188 129.814 18.0586 129.095 17.7539C128.376 17.4414 127.767 17.0117 127.267 16.4648C126.767 15.918 126.396 15.2773 126.154 14.543C125.919 13.8008 125.833 12.9922 125.896 12.1172L125.943 11.6602C126.037 10.7383 126.255 9.87891 126.599 9.08203C126.943 8.27734 127.404 7.57422 127.982 6.97266C128.56 6.36328 129.24 5.89062 130.021 5.55469C130.81 5.21875 131.693 5.0625 132.669 5.08594C133.552 5.10156 134.314 5.27734 134.955 5.61328C135.603 5.94922 136.13 6.40625 136.537 6.98438C136.943 7.55469 137.224 8.21094 137.38 8.95312C137.544 9.6875 137.583 10.4688 137.497 11.2969L137.275 12.9023H127.197L127.595 10.4297L133.806 10.4414L133.876 10.1016C133.931 9.73438 133.915 9.40234 133.83 9.10547C133.744 8.80859 133.583 8.57422 133.349 8.40234C133.115 8.22266 132.798 8.125 132.4 8.10938C131.915 8.10156 131.513 8.20703 131.193 8.42578C130.88 8.64453 130.626 8.93359 130.431 9.29297C130.244 9.65234 130.099 10.043 129.997 10.4648C129.896 10.8789 129.822 11.2773 129.775 11.6602L129.728 12.1055C129.697 12.4883 129.708 12.8594 129.763 13.2188C129.818 13.5781 129.927 13.9023 130.091 14.1914C130.263 14.4805 130.494 14.7148 130.783 14.8945C131.072 15.0664 131.435 15.1602 131.872 15.1758C132.458 15.1914 133.005 15.082 133.513 14.8477C134.021 14.6133 134.478 14.293 134.884 13.8867L136.49 16.0195C136.138 16.5508 135.685 16.9805 135.13 17.3086C134.576 17.6289 133.978 17.8633 133.337 18.0117C132.705 18.168 132.087 18.2422 131.486 18.2344ZM144.828 14.3672C144.89 14.0391 144.793 13.7891 144.535 13.6172C144.285 13.4375 143.984 13.3047 143.633 13.2188C143.289 13.125 143.011 13.0508 142.8 12.9961C142.324 12.8711 141.851 12.7109 141.383 12.5156C140.914 12.3125 140.488 12.0625 140.105 11.7656C139.73 11.4609 139.429 11.0977 139.203 10.6758C138.984 10.2461 138.886 9.74609 138.91 9.17578C138.933 8.47266 139.109 7.86328 139.437 7.34766C139.773 6.83203 140.207 6.40625 140.738 6.07031C141.269 5.72656 141.847 5.47266 142.472 5.30859C143.105 5.14453 143.734 5.07031 144.359 5.08594C145.218 5.09375 146.027 5.24609 146.785 5.54297C147.55 5.83984 148.172 6.29297 148.648 6.90234C149.133 7.51172 149.379 8.28516 149.386 9.22266L145.554 9.21094C145.562 8.90625 145.523 8.64062 145.437 8.41406C145.359 8.1875 145.222 8.01562 145.027 7.89844C144.832 7.77344 144.566 7.71094 144.23 7.71094C143.98 7.71094 143.734 7.76172 143.492 7.86328C143.25 7.96484 143.039 8.10938 142.859 8.29688C142.687 8.48438 142.578 8.71094 142.531 8.97656C142.484 9.20312 142.515 9.39453 142.625 9.55078C142.734 9.69922 142.883 9.82031 143.07 9.91406C143.258 10.0078 143.453 10.0859 143.656 10.1484C143.867 10.2031 144.054 10.2461 144.218 10.2773C144.929 10.4492 145.617 10.6797 146.281 10.9688C146.953 11.25 147.5 11.6523 147.922 12.1758C148.351 12.6914 148.554 13.3789 148.531 14.2383C148.508 14.9648 148.312 15.5859 147.945 16.1016C147.578 16.6094 147.105 17.0234 146.527 17.3438C145.957 17.6562 145.34 17.8828 144.675 18.0234C144.019 18.1719 143.383 18.2422 142.765 18.2344C141.906 18.2188 141.093 18.0469 140.328 17.7188C139.562 17.3828 138.937 16.8984 138.453 16.2656C137.976 15.625 137.726 14.8398 137.703 13.9102L141.265 13.9219C141.273 14.2891 141.34 14.5977 141.465 14.8477C141.597 15.0898 141.789 15.2773 142.039 15.4102C142.289 15.5352 142.597 15.5977 142.965 15.5977C143.238 15.5977 143.504 15.5586 143.761 15.4805C144.027 15.3945 144.254 15.2617 144.441 15.082C144.636 14.8945 144.765 14.6562 144.828 14.3672Z" fill="black"/>
</svg>
