<svg width="335" height="108" viewBox="0 0 335 108" fill="none" xmlns="http://www.w3.org/2000/svg">
<rect y="65" width="332" height="5" fill="black"/>
<path d="M9.39844 4.90234V22H6.02344V8.79297L1.96875 10.082V7.42188L9.03516 4.90234H9.39844ZM15.0178 20.3711C15.0178 19.8711 15.1897 19.4531 15.5334 19.1172C15.885 18.7812 16.3498 18.6133 16.928 18.6133C17.5061 18.6133 17.967 18.7812 18.3108 19.1172C18.6623 19.4531 18.8381 19.8711 18.8381 20.3711C18.8381 20.8711 18.6623 21.2891 18.3108 21.625C17.967 21.9609 17.5061 22.1289 16.928 22.1289C16.3498 22.1289 15.885 21.9609 15.5334 21.625C15.1897 21.2891 15.0178 20.8711 15.0178 20.3711ZM7.80469 48.6514C7.80469 48.4229 7.76953 48.2178 7.69922 48.0361C7.63477 47.8486 7.51172 47.6787 7.33008 47.5264C7.14844 47.3682 6.89355 47.2129 6.56543 47.0605C6.2373 46.9082 5.8125 46.75 5.29102 46.5859C4.71094 46.3984 4.16016 46.1875 3.63867 45.9531C3.12305 45.7188 2.66602 45.4463 2.26758 45.1357C1.875 44.8193 1.56445 44.4531 1.33594 44.0371C1.11328 43.6211 1.00195 43.1377 1.00195 42.5869C1.00195 42.0537 1.11914 41.5703 1.35352 41.1367C1.58789 40.6973 1.91602 40.3223 2.33789 40.0117C2.75977 39.6953 3.25781 39.4521 3.83203 39.2822C4.41211 39.1123 5.04785 39.0273 5.73926 39.0273C6.68262 39.0273 7.50586 39.1973 8.20898 39.5371C8.91211 39.877 9.45703 40.3428 9.84375 40.9346C10.2363 41.5264 10.4326 42.2031 10.4326 42.9648H7.81348C7.81348 42.5898 7.73438 42.2617 7.57617 41.9805C7.42383 41.6934 7.18945 41.4678 6.87305 41.3037C6.5625 41.1396 6.16992 41.0576 5.69531 41.0576C5.23828 41.0576 4.85742 41.1279 4.55273 41.2686C4.24805 41.4033 4.01953 41.5879 3.86719 41.8223C3.71484 42.0508 3.63867 42.3086 3.63867 42.5957C3.63867 42.8125 3.69141 43.0088 3.79688 43.1846C3.9082 43.3604 4.07227 43.5244 4.28906 43.6768C4.50586 43.8291 4.77246 43.9727 5.08887 44.1074C5.40527 44.2422 5.77148 44.374 6.1875 44.5029C6.88477 44.7139 7.49707 44.9512 8.02441 45.2148C8.55762 45.4785 9.00293 45.7744 9.36035 46.1025C9.71777 46.4307 9.9873 46.8027 10.1689 47.2188C10.3506 47.6348 10.4414 48.1064 10.4414 48.6338C10.4414 49.1904 10.333 49.6885 10.1162 50.1279C9.89941 50.5674 9.58594 50.9395 9.17578 51.2441C8.76562 51.5488 8.27637 51.7803 7.70801 51.9385C7.13965 52.0967 6.50391 52.1758 5.80078 52.1758C5.16797 52.1758 4.54395 52.0938 3.92871 51.9297C3.31348 51.7598 2.75391 51.5049 2.25 51.165C1.75195 50.8252 1.35352 50.3916 1.05469 49.8643C0.755859 49.3369 0.606445 48.7129 0.606445 47.9922H3.25195C3.25195 48.3906 3.31348 48.7275 3.43652 49.0029C3.55957 49.2783 3.73242 49.501 3.95508 49.6709C4.18359 49.8408 4.45312 49.9639 4.76367 50.04C5.08008 50.1162 5.42578 50.1543 5.80078 50.1543C6.25781 50.1543 6.63281 50.0898 6.92578 49.9609C7.22461 49.832 7.44434 49.6533 7.58496 49.4248C7.73145 49.1963 7.80469 48.9385 7.80469 48.6514ZM14.3674 44.3184V55.6562H11.8362V42.4902H14.1829L14.3674 44.3184ZM20.3879 47.1396V47.3242C20.3879 48.0156 20.3059 48.6572 20.1418 49.249C19.9836 49.8408 19.7493 50.3564 19.4387 50.7959C19.1282 51.2295 18.7414 51.5693 18.2786 51.8154C17.8215 52.0557 17.2942 52.1758 16.6965 52.1758C16.1164 52.1758 15.6125 52.0586 15.1848 51.8242C14.7571 51.5898 14.3967 51.2617 14.1038 50.8398C13.8166 50.4121 13.5852 49.917 13.4094 49.3545C13.2336 48.792 13.0989 48.1885 13.0051 47.5439V47.0605C13.0989 46.3691 13.2336 45.7363 13.4094 45.1621C13.5852 44.582 13.8166 44.0811 14.1038 43.6592C14.3967 43.2314 14.7541 42.9004 15.176 42.666C15.6038 42.4316 16.1047 42.3145 16.6789 42.3145C17.2825 42.3145 17.8127 42.4287 18.2698 42.6572C18.7327 42.8857 19.1194 43.2139 19.4299 43.6416C19.7463 44.0693 19.9836 44.5791 20.1418 45.1709C20.3059 45.7627 20.3879 46.4189 20.3879 47.1396ZM17.8479 47.3242V47.1396C17.8479 46.7354 17.8127 46.3633 17.7424 46.0234C17.678 45.6777 17.5725 45.376 17.426 45.1182C17.2854 44.8604 17.0979 44.6611 16.8635 44.5205C16.635 44.374 16.3567 44.3008 16.0286 44.3008C15.6829 44.3008 15.387 44.3564 15.1409 44.4678C14.9006 44.5791 14.7043 44.7402 14.552 44.9512C14.3996 45.1621 14.2854 45.4141 14.2092 45.707C14.133 46 14.0862 46.3311 14.0686 46.7002V47.9219C14.0979 48.3555 14.1799 48.7451 14.3147 49.0908C14.4495 49.4307 14.6575 49.7002 14.9387 49.8994C15.22 50.0986 15.5891 50.1982 16.0461 50.1982C16.3801 50.1982 16.6614 50.125 16.8899 49.9785C17.1184 49.8262 17.303 49.6182 17.4436 49.3545C17.5901 49.0908 17.6926 48.7861 17.7512 48.4404C17.8157 48.0947 17.8479 47.7227 17.8479 47.3242ZM26.0981 52.1758C25.3598 52.1758 24.6977 52.0586 24.1118 51.8242C23.5259 51.584 23.0278 51.2529 22.6177 50.8311C22.2134 50.4092 21.9028 49.9199 21.686 49.3633C21.4692 48.8008 21.3608 48.2031 21.3608 47.5703V47.2188C21.3608 46.498 21.4634 45.8389 21.6684 45.2412C21.8735 44.6436 22.1665 44.125 22.5473 43.6855C22.9341 43.2461 23.4028 42.9092 23.9536 42.6748C24.5044 42.4346 25.1255 42.3145 25.8169 42.3145C26.4907 42.3145 27.0884 42.4258 27.6098 42.6484C28.1313 42.8711 28.5679 43.1875 28.9194 43.5977C29.2768 44.0078 29.5464 44.5 29.728 45.0742C29.9096 45.6426 30.0005 46.2754 30.0005 46.9727V48.0273H22.4419V46.3398H27.5132V46.1465C27.5132 45.7949 27.4487 45.4814 27.3198 45.2061C27.1968 44.9248 27.0093 44.7021 26.7573 44.5381C26.5054 44.374 26.1831 44.292 25.7905 44.292C25.4565 44.292 25.1694 44.3652 24.9292 44.5117C24.6889 44.6582 24.4927 44.8633 24.3403 45.127C24.1938 45.3906 24.0825 45.7012 24.0063 46.0586C23.936 46.4102 23.9009 46.7969 23.9009 47.2188V47.5703C23.9009 47.9512 23.9536 48.3027 24.0591 48.625C24.1704 48.9473 24.3257 49.2256 24.5249 49.46C24.73 49.6943 24.9761 49.876 25.2632 50.0049C25.5561 50.1338 25.8872 50.1982 26.2563 50.1982C26.7134 50.1982 27.1382 50.1104 27.5307 49.9346C27.9292 49.7529 28.272 49.4805 28.5591 49.1172L29.7895 50.4531C29.5903 50.7402 29.3179 51.0156 28.9721 51.2793C28.6323 51.543 28.2221 51.7598 27.7417 51.9297C27.2612 52.0938 26.7134 52.1758 26.0981 52.1758ZM35.1306 50.1982C35.4411 50.1982 35.7165 50.1396 35.9568 50.0225C36.197 49.8994 36.3845 49.7295 36.5193 49.5127C36.6599 49.29 36.7331 49.0293 36.739 48.7305H39.1208C39.115 49.3984 38.9363 49.9932 38.5847 50.5146C38.2331 51.0303 37.7614 51.4375 37.1696 51.7363C36.5779 52.0293 35.9157 52.1758 35.1833 52.1758C34.445 52.1758 33.8005 52.0527 33.2497 51.8066C32.7048 51.5605 32.2507 51.2207 31.8874 50.7871C31.5241 50.3477 31.2517 49.8379 31.07 49.2578C30.8884 48.6719 30.7976 48.0449 30.7976 47.377V47.1221C30.7976 46.4482 30.8884 45.8213 31.07 45.2412C31.2517 44.6553 31.5241 44.1455 31.8874 43.7119C32.2507 43.2725 32.7048 42.9297 33.2497 42.6836C33.7946 42.4375 34.4333 42.3145 35.1657 42.3145C35.945 42.3145 36.6277 42.4639 37.2136 42.7627C37.8054 43.0615 38.2683 43.4893 38.6023 44.0459C38.9421 44.5967 39.115 45.25 39.1208 46.0059H36.739C36.7331 45.6895 36.6657 45.4023 36.5368 45.1445C36.4138 44.8867 36.2321 44.6816 35.9919 44.5293C35.7575 44.3711 35.4675 44.292 35.1218 44.292C34.7527 44.292 34.4509 44.3711 34.2165 44.5293C33.9821 44.6816 33.8005 44.8926 33.6716 45.1621C33.5427 45.4258 33.4519 45.7275 33.3991 46.0674C33.3523 46.4014 33.3288 46.7529 33.3288 47.1221V47.377C33.3288 47.7461 33.3523 48.1006 33.3991 48.4404C33.446 48.7803 33.5339 49.082 33.6628 49.3457C33.7976 49.6094 33.9821 49.8174 34.2165 49.9697C34.4509 50.1221 34.7556 50.1982 35.1306 50.1982ZM43.0205 42.4902V52H40.4804V42.4902H43.0205ZM40.3222 40.0117C40.3222 39.6426 40.4511 39.3379 40.7089 39.0977C40.9668 38.8574 41.3125 38.7373 41.7461 38.7373C42.1738 38.7373 42.5166 38.8574 42.7744 39.0977C43.038 39.3379 43.1699 39.6426 43.1699 40.0117C43.1699 40.3809 43.038 40.6855 42.7744 40.9258C42.5166 41.166 42.1738 41.2861 41.7461 41.2861C41.3125 41.2861 40.9668 41.166 40.7089 40.9258C40.4511 40.6855 40.3222 40.3809 40.3222 40.0117ZM48.0979 52H45.549V41.6465C45.549 40.9258 45.6896 40.3193 45.9709 39.8271C46.258 39.3291 46.6594 38.9541 47.175 38.7021C47.6965 38.4443 48.3146 38.3154 49.0295 38.3154C49.2639 38.3154 49.4895 38.333 49.7062 38.3682C49.923 38.3975 50.134 38.4355 50.3391 38.4824L50.3127 40.3896C50.2014 40.3604 50.0842 40.3398 49.9611 40.3281C49.8381 40.3164 49.6945 40.3105 49.5305 40.3105C49.2258 40.3105 48.965 40.3633 48.7482 40.4688C48.5373 40.5684 48.3762 40.7178 48.2648 40.917C48.1535 41.1162 48.0979 41.3594 48.0979 41.6465V52ZM49.9963 42.4902V44.2832H44.134V42.4902H49.9963ZM53.9047 50.9277L56.4272 42.4902H59.143L55.3198 53.4326C55.2377 53.6729 55.1264 53.9307 54.9858 54.2061C54.851 54.4814 54.6664 54.7422 54.4321 54.9883C54.2036 55.2402 53.9135 55.4453 53.562 55.6035C53.2163 55.7617 52.7914 55.8408 52.2875 55.8408C52.0473 55.8408 51.851 55.8262 51.6987 55.7969C51.5463 55.7676 51.3647 55.7266 51.1538 55.6738V53.8193C51.2182 53.8193 51.2856 53.8193 51.3559 53.8193C51.4262 53.8252 51.4936 53.8281 51.558 53.8281C51.892 53.8281 52.1645 53.79 52.3754 53.7139C52.5864 53.6377 52.7563 53.5205 52.8852 53.3623C53.0141 53.21 53.1166 53.0107 53.1928 52.7646L53.9047 50.9277ZM52.85 42.4902L54.9155 49.3809L55.2758 52.0615L53.5532 52.2461L50.1342 42.4902H52.85ZM66.0722 39.2031L68.7441 45.0391L71.4159 39.2031H74.29L70.08 47.3418V52H67.4081V47.3418L63.1894 39.2031H66.0722ZM74.0763 47.3418V47.1572C74.0763 46.46 74.1759 45.8184 74.3752 45.2324C74.5744 44.6406 74.8644 44.1279 75.2453 43.6943C75.6261 43.2607 76.0949 42.9238 76.6515 42.6836C77.2082 42.4375 77.8468 42.3145 78.5675 42.3145C79.2882 42.3145 79.9298 42.4375 80.4923 42.6836C81.0548 42.9238 81.5265 43.2607 81.9074 43.6943C82.2941 44.1279 82.5871 44.6406 82.7863 45.2324C82.9855 45.8184 83.0851 46.46 83.0851 47.1572V47.3418C83.0851 48.0332 82.9855 48.6748 82.7863 49.2666C82.5871 49.8525 82.2941 50.3652 81.9074 50.8047C81.5265 51.2383 81.0578 51.5752 80.5011 51.8154C79.9445 52.0557 79.3058 52.1758 78.5851 52.1758C77.8644 52.1758 77.2228 52.0557 76.6603 51.8154C76.1037 51.5752 75.632 51.2383 75.2453 50.8047C74.8644 50.3652 74.5744 49.8525 74.3752 49.2666C74.1759 48.6748 74.0763 48.0332 74.0763 47.3418ZM76.6076 47.1572V47.3418C76.6076 47.7402 76.6427 48.1123 76.713 48.458C76.7834 48.8037 76.8947 49.1084 77.047 49.3721C77.2052 49.6299 77.4103 49.832 77.6623 49.9785C77.9142 50.125 78.2218 50.1982 78.5851 50.1982C78.9367 50.1982 79.2384 50.125 79.4904 49.9785C79.7423 49.832 79.9445 49.6299 80.0968 49.3721C80.2492 49.1084 80.3605 48.8037 80.4308 48.458C80.507 48.1123 80.5451 47.7402 80.5451 47.3418V47.1572C80.5451 46.7705 80.507 46.4072 80.4308 46.0674C80.3605 45.7217 80.2462 45.417 80.088 45.1533C79.9357 44.8838 79.7336 44.6729 79.4816 44.5205C79.2296 44.3682 78.925 44.292 78.5675 44.292C78.2101 44.292 77.9054 44.3682 77.6535 44.5205C77.4074 44.6729 77.2052 44.8838 77.047 45.1533C76.8947 45.417 76.7834 45.7217 76.713 46.0674C76.6427 46.4072 76.6076 46.7705 76.6076 47.1572ZM90.0258 49.7236V42.4902H92.557V52H90.1752L90.0258 49.7236ZM90.307 47.7725L91.0541 47.7549C91.0541 48.3877 90.9809 48.9766 90.8344 49.5215C90.6879 50.0605 90.4682 50.5293 90.1752 50.9277C89.8822 51.3203 89.5131 51.6279 89.0678 51.8506C88.6225 52.0674 88.098 52.1758 87.4945 52.1758C87.0316 52.1758 86.6039 52.1113 86.2113 51.9824C85.8246 51.8477 85.4906 51.6396 85.2094 51.3584C84.934 51.0713 84.7172 50.7051 84.559 50.2598C84.4066 49.8086 84.3305 49.2666 84.3305 48.6338V42.4902H86.8617V48.6514C86.8617 48.9326 86.8939 49.1699 86.9584 49.3633C87.0287 49.5566 87.1254 49.7148 87.2484 49.8379C87.3715 49.9609 87.515 50.0488 87.6791 50.1016C87.849 50.1543 88.0365 50.1807 88.2416 50.1807C88.7631 50.1807 89.1732 50.0752 89.4721 49.8643C89.7768 49.6533 89.9906 49.3662 90.1137 49.0029C90.2426 48.6338 90.307 48.2236 90.307 47.7725ZM96.7819 44.5645V52H94.2506V42.4902H96.6325L96.7819 44.5645ZM99.6471 42.4287L99.6032 44.7754C99.4801 44.7578 99.3307 44.7432 99.1549 44.7314C98.985 44.7139 98.8297 44.7051 98.6891 44.7051C98.3317 44.7051 98.0211 44.752 97.7575 44.8457C97.4996 44.9336 97.2829 45.0654 97.1071 45.2412C96.9371 45.417 96.8082 45.6309 96.7204 45.8828C96.6383 46.1348 96.5914 46.4219 96.5797 46.7441L96.07 46.5859C96.07 45.9707 96.1315 45.4053 96.2545 44.8896C96.3776 44.3682 96.5563 43.9141 96.7907 43.5273C97.0309 43.1406 97.3239 42.8418 97.6696 42.6309C98.0153 42.4199 98.4108 42.3145 98.8561 42.3145C98.9967 42.3145 99.1403 42.3262 99.2868 42.3496C99.4332 42.3672 99.5534 42.3936 99.6471 42.4287ZM109.986 47.4385H106.726V45.3818H109.986C110.49 45.3818 110.901 45.2998 111.217 45.1357C111.533 44.9658 111.765 44.7314 111.911 44.4326C112.058 44.1338 112.131 43.7969 112.131 43.4219C112.131 43.041 112.058 42.6865 111.911 42.3584C111.765 42.0303 111.533 41.7666 111.217 41.5674C110.901 41.3682 110.49 41.2686 109.986 41.2686H107.64V52H105.003V39.2031H109.986C110.988 39.2031 111.847 39.3848 112.562 39.748C113.282 40.1055 113.833 40.6006 114.214 41.2334C114.595 41.8662 114.785 42.5898 114.785 43.4043C114.785 44.2305 114.595 44.9453 114.214 45.5488C113.833 46.1523 113.282 46.6182 112.562 46.9463C111.847 47.2744 110.988 47.4385 109.986 47.4385ZM118.878 38.5V52H116.338V38.5H118.878ZM125.863 49.8555V45.6191C125.863 45.3145 125.813 45.0537 125.713 44.8369C125.614 44.6143 125.459 44.4414 125.248 44.3184C125.043 44.1953 124.776 44.1338 124.448 44.1338C124.167 44.1338 123.923 44.1836 123.718 44.2832C123.513 44.377 123.355 44.5146 123.244 44.6963C123.132 44.8721 123.077 45.0801 123.077 45.3203H120.546C120.546 44.916 120.639 44.5322 120.827 44.1689C121.014 43.8057 121.287 43.4863 121.644 43.2109C122.002 42.9297 122.426 42.71 122.919 42.5518C123.417 42.3936 123.973 42.3145 124.588 42.3145C125.327 42.3145 125.983 42.4375 126.557 42.6836C127.131 42.9297 127.583 43.2988 127.911 43.791C128.245 44.2832 128.412 44.8984 128.412 45.6367V49.7061C128.412 50.2275 128.444 50.6553 128.508 50.9893C128.573 51.3174 128.667 51.6045 128.79 51.8506V52H126.232C126.109 51.7422 126.015 51.4199 125.951 51.0332C125.892 50.6406 125.863 50.248 125.863 49.8555ZM126.197 46.208L126.214 47.6406H124.799C124.465 47.6406 124.175 47.6787 123.929 47.7549C123.683 47.8311 123.481 47.9395 123.323 48.0801C123.165 48.2148 123.047 48.373 122.971 48.5547C122.901 48.7363 122.866 48.9355 122.866 49.1523C122.866 49.3691 122.916 49.5654 123.015 49.7412C123.115 49.9111 123.258 50.0459 123.446 50.1455C123.633 50.2393 123.853 50.2861 124.105 50.2861C124.486 50.2861 124.817 50.21 125.098 50.0576C125.379 49.9053 125.596 49.7178 125.749 49.4951C125.907 49.2725 125.989 49.0615 125.995 48.8623L126.663 49.9346C126.569 50.1748 126.44 50.4238 126.276 50.6816C126.118 50.9395 125.916 51.1826 125.67 51.4111C125.423 51.6338 125.128 51.8184 124.782 51.9648C124.436 52.1055 124.026 52.1758 123.551 52.1758C122.948 52.1758 122.4 52.0557 121.908 51.8154C121.421 51.5693 121.035 51.2324 120.748 50.8047C120.466 50.3711 120.326 49.8789 120.326 49.3281C120.326 48.8301 120.42 48.3877 120.607 48.001C120.795 47.6143 121.07 47.2891 121.433 47.0254C121.802 46.7559 122.262 46.5537 122.813 46.4189C123.364 46.2783 124.003 46.208 124.729 46.208H126.197ZM132.601 44.5205V52H130.07V42.4902H132.443L132.601 44.5205ZM132.232 46.9111H131.547C131.547 46.208 131.638 45.5752 131.819 45.0127C132.001 44.4443 132.256 43.9609 132.584 43.5625C132.912 43.1582 133.302 42.8506 133.753 42.6396C134.21 42.4229 134.72 42.3145 135.282 42.3145C135.727 42.3145 136.135 42.3789 136.504 42.5078C136.873 42.6367 137.189 42.8418 137.453 43.123C137.723 43.4043 137.928 43.7764 138.068 44.2393C138.215 44.7021 138.288 45.2676 138.288 45.9355V52H135.739V45.9268C135.739 45.5049 135.681 45.1768 135.563 44.9424C135.446 44.708 135.273 44.5439 135.045 44.4502C134.822 44.3506 134.547 44.3008 134.219 44.3008C133.879 44.3008 133.583 44.3682 133.331 44.5029C133.085 44.6377 132.88 44.8252 132.716 45.0654C132.557 45.2998 132.437 45.5752 132.355 45.8916C132.273 46.208 132.232 46.5479 132.232 46.9111ZM145.114 49.3721C145.114 49.1904 145.062 49.0264 144.956 48.8799C144.851 48.7334 144.654 48.5986 144.367 48.4756C144.086 48.3467 143.679 48.2295 143.146 48.124C142.665 48.0186 142.217 47.8867 141.801 47.7285C141.391 47.5645 141.033 47.3682 140.729 47.1396C140.43 46.9111 140.195 46.6416 140.025 46.3311C139.856 46.0146 139.771 45.6543 139.771 45.25C139.771 44.8516 139.856 44.4766 140.025 44.125C140.201 43.7734 140.45 43.4629 140.773 43.1934C141.101 42.918 141.499 42.7041 141.968 42.5518C142.442 42.3936 142.976 42.3145 143.567 42.3145C144.394 42.3145 145.103 42.4463 145.694 42.71C146.292 42.9736 146.749 43.3369 147.066 43.7998C147.388 44.2568 147.549 44.7783 147.549 45.3643H145.018C145.018 45.1182 144.965 44.8984 144.859 44.7051C144.76 44.5059 144.602 44.3506 144.385 44.2393C144.174 44.1221 143.899 44.0635 143.559 44.0635C143.277 44.0635 143.034 44.1133 142.829 44.2129C142.624 44.3066 142.466 44.4355 142.355 44.5996C142.249 44.7578 142.196 44.9336 142.196 45.127C142.196 45.2734 142.226 45.4053 142.284 45.5225C142.349 45.6338 142.451 45.7363 142.592 45.8301C142.732 45.9238 142.914 46.0117 143.137 46.0938C143.365 46.1699 143.647 46.2402 143.981 46.3047C144.666 46.4453 145.278 46.6299 145.817 46.8584C146.357 47.0811 146.784 47.3857 147.101 47.7725C147.417 48.1533 147.575 48.6543 147.575 49.2754C147.575 49.6973 147.482 50.084 147.294 50.4355C147.107 50.7871 146.837 51.0947 146.485 51.3584C146.134 51.6162 145.712 51.8184 145.22 51.9648C144.733 52.1055 144.186 52.1758 143.576 52.1758C142.691 52.1758 141.941 52.0176 141.326 51.7012C140.717 51.3848 140.254 50.9834 139.938 50.4971C139.627 50.0049 139.472 49.501 139.472 48.9854H141.871C141.883 49.3311 141.971 49.6094 142.135 49.8203C142.305 50.0312 142.519 50.1836 142.776 50.2773C143.04 50.3711 143.324 50.418 143.629 50.418C143.957 50.418 144.23 50.374 144.446 50.2861C144.663 50.1924 144.827 50.0693 144.939 49.917C145.056 49.7588 145.114 49.5771 145.114 49.3721ZM153.221 38.5H155.753V49.8203L155.498 52H153.221V38.5ZM161.773 47.1484V47.333C161.773 48.042 161.697 48.6924 161.544 49.2842C161.398 49.876 161.169 50.3887 160.859 50.8223C160.548 51.25 160.162 51.584 159.699 51.8242C159.242 52.0586 158.703 52.1758 158.082 52.1758C157.502 52.1758 156.998 52.0586 156.57 51.8242C156.148 51.5898 155.794 51.2588 155.506 50.8311C155.219 50.4033 154.988 49.9023 154.812 49.3281C154.636 48.7539 154.504 48.127 154.417 47.4473V47.043C154.504 46.3633 154.636 45.7363 154.812 45.1621C154.988 44.5879 155.219 44.0869 155.506 43.6592C155.794 43.2314 156.148 42.9004 156.57 42.666C156.992 42.4316 157.49 42.3145 158.064 42.3145C158.691 42.3145 159.236 42.4346 159.699 42.6748C160.168 42.9092 160.554 43.2432 160.859 43.6768C161.169 44.1045 161.398 44.6143 161.544 45.2061C161.697 45.792 161.773 46.4395 161.773 47.1484ZM159.242 47.333V47.1484C159.242 46.7617 159.212 46.3984 159.154 46.0586C159.101 45.7129 159.007 45.4111 158.873 45.1533C158.738 44.8896 158.553 44.6816 158.319 44.5293C158.09 44.377 157.794 44.3008 157.431 44.3008C157.086 44.3008 156.793 44.3594 156.552 44.4766C156.312 44.5938 156.113 44.7578 155.955 44.9688C155.802 45.1797 155.688 45.4316 155.612 45.7246C155.536 46.0117 155.489 46.3281 155.471 46.6738V47.8252C155.489 48.2881 155.565 48.6982 155.7 49.0557C155.84 49.4072 156.051 49.6855 156.333 49.8906C156.62 50.0898 156.992 50.1895 157.449 50.1895C157.806 50.1895 158.102 50.1191 158.336 49.9785C158.571 49.8379 158.753 49.6387 158.881 49.3809C159.016 49.123 159.11 48.8213 159.163 48.4756C159.215 48.124 159.242 47.7432 159.242 47.333ZM165.822 50.9277L168.345 42.4902H171.06L167.237 53.4326C167.155 53.6729 167.044 53.9307 166.903 54.2061C166.768 54.4814 166.584 54.7422 166.349 54.9883C166.121 55.2402 165.831 55.4453 165.479 55.6035C165.134 55.7617 164.709 55.8408 164.205 55.8408C163.965 55.8408 163.768 55.8262 163.616 55.7969C163.464 55.7676 163.282 55.7266 163.071 55.6738V53.8193C163.136 53.8193 163.203 53.8193 163.273 53.8193C163.344 53.8252 163.411 53.8281 163.475 53.8281C163.809 53.8281 164.082 53.79 164.293 53.7139C164.504 53.6377 164.674 53.5205 164.803 53.3623C164.931 53.21 165.034 53.0107 165.11 52.7646L165.822 50.9277ZM164.767 42.4902L166.833 49.3809L167.193 52.0615L165.471 52.2461L162.052 42.4902H164.767ZM181.435 41.3916L177.954 52H175.151L179.906 39.2031H181.69L181.435 41.3916ZM184.326 52L180.837 41.3916L180.556 39.2031H182.358L187.139 52H184.326ZM184.168 47.2363V49.3018H177.409V47.2363H184.168ZM193.543 49.9258V38.5H196.092V52H193.798L193.543 49.9258ZM187.532 47.3594V47.1748C187.532 46.4482 187.614 45.7891 187.778 45.1973C187.942 44.5996 188.182 44.0869 188.499 43.6592C188.815 43.2314 189.205 42.9004 189.667 42.666C190.13 42.4316 190.658 42.3145 191.25 42.3145C191.806 42.3145 192.292 42.4316 192.709 42.666C193.13 42.9004 193.488 43.2344 193.781 43.668C194.08 44.0957 194.32 44.6025 194.501 45.1885C194.683 45.7686 194.815 46.4043 194.897 47.0957V47.5C194.815 48.1621 194.683 48.7773 194.501 49.3457C194.32 49.9141 194.08 50.4121 193.781 50.8398C193.488 51.2617 193.13 51.5898 192.709 51.8242C192.287 52.0586 191.794 52.1758 191.232 52.1758C190.64 52.1758 190.113 52.0557 189.65 51.8154C189.193 51.5752 188.806 51.2383 188.49 50.8047C188.179 50.3711 187.942 49.8613 187.778 49.2754C187.614 48.6895 187.532 48.0508 187.532 47.3594ZM190.063 47.1748V47.3594C190.063 47.752 190.092 48.1182 190.151 48.458C190.215 48.7979 190.318 49.0996 190.459 49.3633C190.605 49.6211 190.792 49.8232 191.021 49.9697C191.255 50.1104 191.54 50.1807 191.874 50.1807C192.307 50.1807 192.665 50.084 192.946 49.8906C193.227 49.6914 193.441 49.4189 193.587 49.0732C193.74 48.7275 193.828 48.3291 193.851 47.8779V46.7266C193.834 46.3574 193.781 46.0264 193.693 45.7334C193.611 45.4346 193.488 45.1797 193.324 44.9688C193.166 44.7578 192.966 44.5938 192.726 44.4766C192.492 44.3594 192.213 44.3008 191.891 44.3008C191.563 44.3008 191.282 44.377 191.047 44.5293C190.813 44.6758 190.623 44.8779 190.476 45.1357C190.335 45.3936 190.23 45.6982 190.16 46.0498C190.095 46.3955 190.063 46.7705 190.063 47.1748ZM203.446 49.9258V38.5H205.995V52H203.701L203.446 49.9258ZM197.434 47.3594V47.1748C197.434 46.4482 197.516 45.7891 197.68 45.1973C197.844 44.5996 198.085 44.0869 198.401 43.6592C198.718 43.2314 199.107 42.9004 199.57 42.666C200.033 42.4316 200.56 42.3145 201.152 42.3145C201.709 42.3145 202.195 42.4316 202.611 42.666C203.033 42.9004 203.39 43.2344 203.683 43.668C203.982 44.0957 204.222 44.6025 204.404 45.1885C204.586 45.7686 204.718 46.4043 204.8 47.0957V47.5C204.718 48.1621 204.586 48.7773 204.404 49.3457C204.222 49.9141 203.982 50.4121 203.683 50.8398C203.39 51.2617 203.033 51.5898 202.611 51.8242C202.189 52.0586 201.697 52.1758 201.135 52.1758C200.543 52.1758 200.015 52.0557 199.553 51.8154C199.095 51.5752 198.709 51.2383 198.392 50.8047C198.082 50.3711 197.844 49.8613 197.68 49.2754C197.516 48.6895 197.434 48.0508 197.434 47.3594ZM199.966 47.1748V47.3594C199.966 47.752 199.995 48.1182 200.053 48.458C200.118 48.7979 200.22 49.0996 200.361 49.3633C200.508 49.6211 200.695 49.8232 200.924 49.9697C201.158 50.1104 201.442 50.1807 201.776 50.1807C202.21 50.1807 202.567 50.084 202.848 49.8906C203.13 49.6914 203.344 49.4189 203.49 49.0732C203.642 48.7275 203.73 48.3291 203.754 47.8779V46.7266C203.736 46.3574 203.683 46.0264 203.595 45.7334C203.513 45.4346 203.39 45.1797 203.226 44.9688C203.068 44.7578 202.869 44.5938 202.629 44.4766C202.394 44.3594 202.116 44.3008 201.794 44.3008C201.466 44.3008 201.184 44.377 200.95 44.5293C200.716 44.6758 200.525 44.8779 200.379 45.1357C200.238 45.3936 200.133 45.6982 200.062 46.0498C199.998 46.3955 199.966 46.7705 199.966 47.1748ZM210.404 42.4902V52H207.864V42.4902H210.404ZM207.706 40.0117C207.706 39.6426 207.835 39.3379 208.093 39.0977C208.351 38.8574 208.696 38.7373 209.13 38.7373C209.558 38.7373 209.9 38.8574 210.158 39.0977C210.422 39.3379 210.554 39.6426 210.554 40.0117C210.554 40.3809 210.422 40.6855 210.158 40.9258C209.9 41.166 209.558 41.2861 209.13 41.2861C208.696 41.2861 208.351 41.166 208.093 40.9258C207.835 40.6855 207.706 40.3809 207.706 40.0117ZM214.735 44.5205V52H212.203V42.4902H214.576L214.735 44.5205ZM214.365 46.9111H213.68C213.68 46.208 213.771 45.5752 213.952 45.0127C214.134 44.4443 214.389 43.9609 214.717 43.5625C215.045 43.1582 215.435 42.8506 215.886 42.6396C216.343 42.4229 216.853 42.3145 217.415 42.3145C217.861 42.3145 218.268 42.3789 218.637 42.5078C219.006 42.6367 219.322 42.8418 219.586 43.123C219.856 43.4043 220.061 43.7764 220.201 44.2393C220.348 44.7021 220.421 45.2676 220.421 45.9355V52H217.872V45.9268C217.872 45.5049 217.814 45.1768 217.697 44.9424C217.579 44.708 217.406 44.5439 217.178 44.4502C216.955 44.3506 216.68 44.3008 216.352 44.3008C216.012 44.3008 215.716 44.3682 215.464 44.5029C215.218 44.6377 215.013 44.8252 214.849 45.0654C214.691 45.2998 214.571 45.5752 214.489 45.8916C214.406 46.208 214.365 46.5479 214.365 46.9111ZM228.126 42.4902H230.42V51.6836C230.42 52.5508 230.227 53.2861 229.84 53.8896C229.459 54.499 228.926 54.959 228.241 55.2695C227.555 55.5859 226.758 55.7441 225.85 55.7441C225.452 55.7441 225.03 55.6914 224.584 55.5859C224.145 55.4805 223.723 55.3164 223.319 55.0938C222.92 54.8711 222.586 54.5898 222.317 54.25L223.433 52.7559C223.726 53.0957 224.066 53.3594 224.453 53.5469C224.839 53.7402 225.267 53.8369 225.736 53.8369C226.193 53.8369 226.58 53.752 226.896 53.582C227.212 53.418 227.456 53.1748 227.625 52.8525C227.795 52.5361 227.88 52.1523 227.88 51.7012V44.6875L228.126 42.4902ZM221.728 47.3594V47.1748C221.728 46.4482 221.816 45.7891 221.992 45.1973C222.173 44.5996 222.428 44.0869 222.756 43.6592C223.09 43.2314 223.495 42.9004 223.969 42.666C224.444 42.4316 224.98 42.3145 225.578 42.3145C226.21 42.3145 226.741 42.4316 227.168 42.666C227.596 42.9004 227.948 43.2344 228.223 43.668C228.499 44.0957 228.712 44.6025 228.865 45.1885C229.023 45.7686 229.146 46.4043 229.234 47.0957V47.5C229.146 48.1621 229.014 48.7773 228.838 49.3457C228.663 49.9141 228.431 50.4121 228.144 50.8398C227.857 51.2617 227.499 51.5898 227.072 51.8242C226.65 52.0586 226.146 52.1758 225.56 52.1758C224.974 52.1758 224.444 52.0557 223.969 51.8154C223.5 51.5752 223.099 51.2383 222.765 50.8047C222.431 50.3711 222.173 49.8613 221.992 49.2754C221.816 48.6895 221.728 48.0508 221.728 47.3594ZM224.259 47.1748V47.3594C224.259 47.752 224.297 48.1182 224.374 48.458C224.45 48.7979 224.567 49.0996 224.725 49.3633C224.889 49.6211 225.091 49.8232 225.332 49.9697C225.578 50.1104 225.868 50.1807 226.202 50.1807C226.665 50.1807 227.042 50.084 227.335 49.8906C227.628 49.6914 227.848 49.4189 227.995 49.0732C228.141 48.7275 228.226 48.3291 228.249 47.8779V46.7266C228.238 46.3574 228.188 46.0264 228.1 45.7334C228.012 45.4346 227.889 45.1797 227.731 44.9688C227.573 44.7578 227.368 44.5938 227.116 44.4766C226.864 44.3594 226.565 44.3008 226.219 44.3008C225.885 44.3008 225.595 44.377 225.349 44.5293C225.109 44.6758 224.907 44.8779 224.743 45.1357C224.584 45.3936 224.464 45.6982 224.382 46.0498C224.3 46.3955 224.259 46.7705 224.259 47.1748ZM241.753 41.3916L238.272 52H235.469L240.224 39.2031H242.008L241.753 41.3916ZM244.644 52L241.155 41.3916L240.874 39.2031H242.676L247.457 52H244.644ZM244.486 47.2363V49.3018H237.727V47.2363H244.486ZM252.174 50.1982C252.485 50.1982 252.76 50.1396 253 50.0225C253.24 49.8994 253.428 49.7295 253.563 49.5127C253.703 49.29 253.777 49.0293 253.782 48.7305H256.164C256.158 49.3984 255.98 49.9932 255.628 50.5146C255.277 51.0303 254.805 51.4375 254.213 51.7363C253.621 52.0293 252.959 52.1758 252.227 52.1758C251.488 52.1758 250.844 52.0527 250.293 51.8066C249.748 51.5605 249.294 51.2207 248.931 50.7871C248.568 50.3477 248.295 49.8379 248.113 49.2578C247.932 48.6719 247.841 48.0449 247.841 47.377V47.1221C247.841 46.4482 247.932 45.8213 248.113 45.2412C248.295 44.6553 248.568 44.1455 248.931 43.7119C249.294 43.2725 249.748 42.9297 250.293 42.6836C250.838 42.4375 251.477 42.3145 252.209 42.3145C252.988 42.3145 253.671 42.4639 254.257 42.7627C254.849 43.0615 255.312 43.4893 255.646 44.0459C255.986 44.5967 256.158 45.25 256.164 46.0059H253.782C253.777 45.6895 253.709 45.4023 253.58 45.1445C253.457 44.8867 253.276 44.6816 253.035 44.5293C252.801 44.3711 252.511 44.292 252.165 44.292C251.796 44.292 251.494 44.3711 251.26 44.5293C251.026 44.6816 250.844 44.8926 250.715 45.1621C250.586 45.4258 250.495 45.7275 250.443 46.0674C250.396 46.4014 250.372 46.7529 250.372 47.1221V47.377C250.372 47.7461 250.396 48.1006 250.443 48.4404C250.489 48.7803 250.577 49.082 250.706 49.3457C250.841 49.6094 251.026 49.8174 251.26 49.9697C251.494 50.1221 251.799 50.1982 252.174 50.1982ZM262.05 42.4902V44.2832H256.513V42.4902H262.05ZM257.884 40.1436H260.415V49.1348C260.415 49.4102 260.451 49.6211 260.521 49.7676C260.597 49.9141 260.708 50.0166 260.855 50.0752C261.001 50.1279 261.186 50.1543 261.409 50.1543C261.567 50.1543 261.707 50.1484 261.831 50.1367C261.959 50.1191 262.068 50.1016 262.156 50.084L262.164 51.9473C261.948 52.0176 261.713 52.0732 261.461 52.1143C261.209 52.1553 260.931 52.1758 260.626 52.1758C260.07 52.1758 259.583 52.085 259.167 51.9033C258.757 51.7158 258.441 51.417 258.218 51.0068C257.996 50.5967 257.884 50.0576 257.884 49.3896V40.1436ZM265.924 42.4902V52H263.383V42.4902H265.924ZM263.225 40.0117C263.225 39.6426 263.354 39.3379 263.612 39.0977C263.87 38.8574 264.216 38.7373 264.649 38.7373C265.077 38.7373 265.42 38.8574 265.677 39.0977C265.941 39.3379 266.073 39.6426 266.073 40.0117C266.073 40.3809 265.941 40.6855 265.677 40.9258C265.42 41.166 265.077 41.2861 264.649 41.2861C264.216 41.2861 263.87 41.166 263.612 40.9258C263.354 40.6855 263.225 40.3809 263.225 40.0117ZM271.01 50.1543L273.119 42.4902H275.765L272.557 52H270.957L271.01 50.1543ZM269.559 42.4902L271.678 50.1631L271.722 52H270.113L266.905 42.4902H269.559ZM279.33 42.4902V52H276.79V42.4902H279.33ZM276.632 40.0117C276.632 39.6426 276.761 39.3379 277.019 39.0977C277.277 38.8574 277.622 38.7373 278.056 38.7373C278.484 38.7373 278.826 38.8574 279.084 39.0977C279.348 39.3379 279.48 39.6426 279.48 40.0117C279.48 40.3809 279.348 40.6855 279.084 40.9258C278.826 41.166 278.484 41.2861 278.056 41.2861C277.622 41.2861 277.277 41.166 277.019 40.9258C276.761 40.6855 276.632 40.3809 276.632 40.0117ZM285.84 42.4902V44.2832H280.303V42.4902H285.84ZM281.674 40.1436H284.205V49.1348C284.205 49.4102 284.241 49.6211 284.311 49.7676C284.387 49.9141 284.498 50.0166 284.645 50.0752C284.791 50.1279 284.976 50.1543 285.199 50.1543C285.357 50.1543 285.497 50.1484 285.621 50.1367C285.749 50.1191 285.858 50.1016 285.946 50.084L285.954 51.9473C285.738 52.0176 285.503 52.0732 285.251 52.1143C284.999 52.1553 284.721 52.1758 284.416 52.1758C283.86 52.1758 283.373 52.085 282.957 51.9033C282.547 51.7158 282.231 51.417 282.008 51.0068C281.786 50.5967 281.674 50.0576 281.674 49.3896V40.1436ZM289.714 42.4902V52H287.173V42.4902H289.714ZM287.015 40.0117C287.015 39.6426 287.144 39.3379 287.402 39.0977C287.66 38.8574 288.005 38.7373 288.439 38.7373C288.867 38.7373 289.21 38.8574 289.467 39.0977C289.731 39.3379 289.863 39.6426 289.863 40.0117C289.863 40.3809 289.731 40.6855 289.467 40.9258C289.21 41.166 288.867 41.2861 288.439 41.2861C288.005 41.2861 287.66 41.166 287.402 40.9258C287.144 40.6855 287.015 40.3809 287.015 40.0117ZM295.942 52.1758C295.204 52.1758 294.542 52.0586 293.956 51.8242C293.37 51.584 292.872 51.2529 292.462 50.8311C292.057 50.4092 291.747 49.9199 291.53 49.3633C291.313 48.8008 291.205 48.2031 291.205 47.5703V47.2188C291.205 46.498 291.307 45.8389 291.513 45.2412C291.718 44.6436 292.011 44.125 292.391 43.6855C292.778 43.2461 293.247 42.9092 293.798 42.6748C294.349 42.4346 294.97 42.3145 295.661 42.3145C296.335 42.3145 296.932 42.4258 297.454 42.6484C297.975 42.8711 298.412 43.1875 298.764 43.5977C299.121 44.0078 299.391 44.5 299.572 45.0742C299.754 45.6426 299.845 46.2754 299.845 46.9727V48.0273H292.286V46.3398H297.357V46.1465C297.357 45.7949 297.293 45.4814 297.164 45.2061C297.041 44.9248 296.853 44.7021 296.601 44.5381C296.349 44.374 296.027 44.292 295.635 44.292C295.301 44.292 295.014 44.3652 294.773 44.5117C294.533 44.6582 294.337 44.8633 294.184 45.127C294.038 45.3906 293.927 45.7012 293.85 46.0586C293.78 46.4102 293.745 46.7969 293.745 47.2188V47.5703C293.745 47.9512 293.798 48.3027 293.903 48.625C294.015 48.9473 294.17 49.2256 294.369 49.46C294.574 49.6943 294.82 49.876 295.107 50.0049C295.4 50.1338 295.731 50.1982 296.1 50.1982C296.557 50.1982 296.982 50.1104 297.375 49.9346C297.773 49.7529 298.116 49.4805 298.403 49.1172L299.634 50.4531C299.434 50.7402 299.162 51.0156 298.816 51.2793C298.476 51.543 298.066 51.7598 297.586 51.9297C297.105 52.0938 296.557 52.1758 295.942 52.1758ZM306.188 49.3721C306.188 49.1904 306.135 49.0264 306.029 48.8799C305.924 48.7334 305.728 48.5986 305.441 48.4756C305.159 48.3467 304.752 48.2295 304.219 48.124C303.738 48.0186 303.29 47.8867 302.874 47.7285C302.464 47.5645 302.107 47.3682 301.802 47.1396C301.503 46.9111 301.269 46.6416 301.099 46.3311C300.929 46.0146 300.844 45.6543 300.844 45.25C300.844 44.8516 300.929 44.4766 301.099 44.125C301.275 43.7734 301.524 43.4629 301.846 43.1934C302.174 42.918 302.572 42.7041 303.041 42.5518C303.516 42.3936 304.049 42.3145 304.641 42.3145C305.467 42.3145 306.176 42.4463 306.768 42.71C307.365 42.9736 307.822 43.3369 308.139 43.7998C308.461 44.2568 308.622 44.7783 308.622 45.3643H306.091C306.091 45.1182 306.038 44.8984 305.933 44.7051C305.833 44.5059 305.675 44.3506 305.458 44.2393C305.247 44.1221 304.972 44.0635 304.632 44.0635C304.351 44.0635 304.108 44.1133 303.902 44.2129C303.697 44.3066 303.539 44.4355 303.428 44.5996C303.322 44.7578 303.27 44.9336 303.27 45.127C303.27 45.2734 303.299 45.4053 303.358 45.5225C303.422 45.6338 303.525 45.7363 303.665 45.8301C303.806 45.9238 303.987 46.0117 304.21 46.0938C304.439 46.1699 304.72 46.2402 305.054 46.3047C305.739 46.4453 306.352 46.6299 306.891 46.8584C307.43 47.0811 307.858 47.3857 308.174 47.7725C308.49 48.1533 308.649 48.6543 308.649 49.2754C308.649 49.6973 308.555 50.084 308.367 50.4355C308.18 50.7871 307.91 51.0947 307.559 51.3584C307.207 51.6162 306.785 51.8184 306.293 51.9648C305.807 52.1055 305.259 52.1758 304.65 52.1758C303.765 52.1758 303.015 52.0176 302.4 51.7012C301.79 51.3848 301.327 50.9834 301.011 50.4971C300.7 50.0049 300.545 49.501 300.545 48.9854H302.944C302.956 49.3311 303.044 49.6094 303.208 49.8203C303.378 50.0312 303.592 50.1836 303.85 50.2773C304.113 50.3711 304.398 50.418 304.702 50.418C305.03 50.418 305.303 50.374 305.52 50.2861C305.736 50.1924 305.901 50.0693 306.012 49.917C306.129 49.7588 306.188 49.5771 306.188 49.3721ZM310.149 50.7783C310.149 50.4033 310.278 50.0898 310.536 49.8379C310.799 49.5859 311.148 49.46 311.581 49.46C312.015 49.46 312.361 49.5859 312.619 49.8379C312.882 50.0898 313.014 50.4033 313.014 50.7783C313.014 51.1533 312.882 51.4668 312.619 51.7188C312.361 51.9707 312.015 52.0967 311.581 52.0967C311.148 52.0967 310.799 51.9707 310.536 51.7188C310.278 51.4668 310.149 51.1533 310.149 50.7783ZM310.149 43.5273C310.149 43.1523 310.278 42.8389 310.536 42.5869C310.799 42.335 311.148 42.209 311.581 42.209C312.015 42.209 312.361 42.335 312.619 42.5869C312.882 42.8389 313.014 43.1523 313.014 43.5273C313.014 43.9023 312.882 44.2158 312.619 44.4678C312.361 44.7197 312.015 44.8457 311.581 44.8457C311.148 44.8457 310.799 44.7197 310.536 44.4678C310.278 44.2158 310.149 43.9023 310.149 43.5273Z" fill="black"/>
<path d="M7.43262 82.0469L5.70996 92H3.36523L5.09473 82.0469H7.43262ZM10.3379 82.0469L10.0166 83.8994H1.92969L2.25781 82.0469H10.3379ZM12.0051 86.5586L11.0618 92H8.81273L10.0979 84.6035H12.1897L12.0051 86.5586ZM14.425 84.542L14.1311 86.6885C14.0126 86.6702 13.8941 86.6543 13.7756 86.6406C13.6571 86.627 13.5364 86.6178 13.4133 86.6133C13.1627 86.6087 12.9348 86.6383 12.7297 86.7021C12.5292 86.7614 12.3538 86.8548 12.2034 86.9824C12.0575 87.1055 11.9368 87.2604 11.8411 87.4473C11.7454 87.6341 11.6747 87.8506 11.6291 88.0967L11.2532 87.8232C11.2987 87.4769 11.3717 87.11 11.4719 86.7227C11.5767 86.3307 11.7226 85.9616 11.9094 85.6152C12.0963 85.2689 12.3378 84.9886 12.634 84.7744C12.9302 84.5557 13.2948 84.4463 13.7278 84.4463C13.8463 84.4463 13.9625 84.4554 14.0764 84.4736C14.1903 84.4919 14.3065 84.5146 14.425 84.542ZM16.2016 91.0225L19.1411 84.6035H21.6225L17.2886 93.1074C17.1564 93.39 17.006 93.6475 16.8374 93.8799C16.6733 94.1123 16.4865 94.3128 16.2768 94.4814C16.0672 94.6501 15.8302 94.7799 15.5659 94.8711C15.3016 94.9622 15.0031 95.0078 14.6704 95.0078C14.4972 95.0078 14.3286 94.9919 14.1645 94.96C14.0005 94.9326 13.8364 94.8984 13.6723 94.8574L13.8432 93.2031C13.8888 93.2077 13.9344 93.21 13.98 93.21C14.0255 93.2145 14.0688 93.2168 14.1098 93.2168C14.3013 93.2168 14.4721 93.1963 14.6225 93.1553C14.7775 93.1188 14.9142 93.0527 15.0327 92.957C15.1557 92.8613 15.2628 92.7292 15.354 92.5605L16.2016 91.0225ZM16.8237 84.6035L17.3569 89.8945L17.186 92.2188H15.7231L14.4927 84.6035H16.8237ZM28.9287 84.6035L28.6484 86.2031H24.3144L24.5947 84.6035H28.9287ZM25.8183 82.7646H28.0673L26.8916 89.6006C26.8733 89.7601 26.8733 89.8923 26.8916 89.9971C26.9098 90.0973 26.9576 90.1748 27.0351 90.2295C27.1171 90.2796 27.2425 90.3092 27.4111 90.3184C27.5068 90.3229 27.6025 90.3206 27.6982 90.3115C27.7939 90.3024 27.8896 90.2933 27.9853 90.2842L27.8281 91.9521C27.6321 92.016 27.4316 92.0615 27.2265 92.0889C27.026 92.1162 26.8209 92.1299 26.6113 92.1299C26.1464 92.1208 25.7568 92.0273 25.4423 91.8496C25.1324 91.6673 24.9069 91.4098 24.7656 91.0771C24.6289 90.7399 24.581 90.3389 24.622 89.874L25.8183 82.7646ZM28.4494 88.418L28.4631 88.2744C28.5223 87.7412 28.6522 87.2422 28.8527 86.7773C29.0533 86.3125 29.3199 85.9046 29.6525 85.5537C29.9898 85.2028 30.3863 84.9316 30.842 84.7402C31.2977 84.5443 31.8081 84.4531 32.3732 84.4668C32.9156 84.4759 33.385 84.5807 33.7814 84.7812C34.1779 84.9818 34.5038 85.2552 34.759 85.6016C35.0142 85.9434 35.1942 86.3398 35.299 86.791C35.4084 87.2376 35.4403 87.7139 35.3947 88.2197L35.3811 88.3701C35.3218 88.8988 35.1896 89.3932 34.9846 89.8535C34.7795 90.3138 34.5083 90.7171 34.1711 91.0635C33.8384 91.4098 33.4442 91.6787 32.9885 91.8701C32.5327 92.0615 32.0246 92.1504 31.4641 92.1367C30.9309 92.1276 30.4637 92.0251 30.0627 91.8291C29.6662 91.6286 29.3404 91.3597 29.0852 91.0225C28.8299 90.6807 28.6477 90.2887 28.5383 89.8467C28.4335 89.4001 28.4038 88.9238 28.4494 88.418ZM30.7121 88.2744L30.6984 88.418C30.6848 88.6048 30.6757 88.8099 30.6711 89.0332C30.6711 89.252 30.6962 89.4639 30.7463 89.6689C30.7964 89.8695 30.8876 90.0358 31.0197 90.168C31.1564 90.2956 31.3524 90.3639 31.6076 90.373C31.8811 90.3822 32.1089 90.3252 32.2912 90.2021C32.4781 90.0791 32.6284 89.915 32.7424 89.71C32.8563 89.5049 32.9429 89.2839 33.0021 89.0469C33.0659 88.8099 33.1092 88.582 33.132 88.3633L33.1457 88.2197C33.1594 88.0374 33.1662 87.8346 33.1662 87.6113C33.1708 87.3835 33.148 87.167 33.0979 86.9619C33.0477 86.7568 32.9543 86.5882 32.8176 86.4561C32.6809 86.3193 32.4849 86.2464 32.2297 86.2373C31.9562 86.2282 31.7261 86.2874 31.5393 86.415C31.357 86.5426 31.2089 86.7113 31.0949 86.9209C30.981 87.126 30.8944 87.3493 30.8352 87.5908C30.7759 87.8278 30.7349 88.0557 30.7121 88.2744ZM42.7555 90.1406L43.2341 87.0645C43.2523 86.9004 43.25 86.7432 43.2272 86.5928C43.209 86.4424 43.152 86.3193 43.0563 86.2236C42.9652 86.1234 42.8216 86.071 42.6257 86.0664C42.4479 86.0618 42.2975 86.0938 42.1745 86.1621C42.0514 86.2305 41.9535 86.3262 41.8805 86.4492C41.8076 86.5723 41.7552 86.7135 41.7233 86.873L39.4675 86.8867C39.4857 86.4583 39.5996 86.0892 39.8093 85.7793C40.0189 85.4694 40.2878 85.2165 40.6159 85.0205C40.944 84.8245 41.3018 84.681 41.6891 84.5898C42.0811 84.4987 42.4662 84.4577 42.8444 84.4668C43.3639 84.4759 43.8333 84.5853 44.2526 84.7949C44.6764 85 45.0023 85.2985 45.2302 85.6904C45.4626 86.0778 45.5514 86.5495 45.4968 87.1055L45.0114 90.1406C44.9704 90.4141 44.9339 90.7057 44.902 91.0156C44.8701 91.321 44.9157 91.6058 45.0387 91.8701L45.0319 92L42.8376 92.0068C42.7373 91.7106 42.6872 91.403 42.6872 91.084C42.6872 90.765 42.71 90.4505 42.7555 90.1406ZM43.487 87.4814L43.2819 88.7119L42.4001 88.7051C42.2269 88.7096 42.0606 88.7393 41.9011 88.7939C41.7461 88.8441 41.6071 88.917 41.4841 89.0127C41.361 89.1084 41.2585 89.2269 41.1764 89.3682C41.099 89.5094 41.0488 89.6712 41.0261 89.8535C41.0078 89.9766 41.0169 90.0882 41.0534 90.1885C41.0944 90.2842 41.1559 90.3617 41.238 90.4209C41.3246 90.4801 41.4317 90.512 41.5593 90.5166C41.7552 90.5212 41.9443 90.4847 42.1266 90.4072C42.3089 90.3298 42.4662 90.2204 42.5983 90.0791C42.735 89.9378 42.8285 89.7738 42.8786 89.5869L43.2751 90.5508C43.1566 90.7878 43.0199 91.0042 42.8649 91.2002C42.7145 91.3962 42.5436 91.5671 42.3522 91.7129C42.1654 91.8542 41.9557 91.9635 41.7233 92.041C41.4909 92.1185 41.2334 92.1549 40.9509 92.1504C40.5453 92.1413 40.1716 92.0433 39.8298 91.8564C39.488 91.6696 39.2168 91.4144 39.0163 91.0908C38.8158 90.7673 38.7223 90.3936 38.736 89.9697C38.7542 89.4775 38.875 89.0697 39.0983 88.7461C39.3216 88.4225 39.611 88.1696 39.9665 87.9873C40.3265 87.8005 40.7162 87.6683 41.1354 87.5908C41.5593 87.5133 41.9785 87.4746 42.3932 87.4746L43.487 87.4814ZM49.3241 84.6035L48.0458 92H45.79L47.0751 84.6035H49.3241ZM47.2734 82.7373C47.2642 82.3818 47.3827 82.0993 47.6288 81.8896C47.8795 81.68 48.1734 81.5729 48.5107 81.5684C48.8342 81.5638 49.1213 81.6595 49.372 81.8555C49.6226 82.0469 49.7502 82.3135 49.7548 82.6553C49.7639 83.0107 49.6432 83.2933 49.3925 83.5029C49.1464 83.7126 48.8547 83.8197 48.5175 83.8242C48.1939 83.8288 47.9068 83.7354 47.6562 83.5439C47.4101 83.348 47.2825 83.0791 47.2734 82.7373ZM52.4201 86.292L51.4289 92H49.1798L50.465 84.6035H52.5636L52.4201 86.292ZM51.8595 88.0488L51.3742 88.0693C51.4198 87.6273 51.5132 87.1898 51.6545 86.7568C51.8003 86.3239 52.0008 85.932 52.256 85.5811C52.5112 85.2301 52.828 84.9521 53.2062 84.7471C53.5845 84.542 54.0265 84.4463 54.5324 84.46C54.9061 84.4691 55.216 84.5488 55.4621 84.6992C55.7082 84.8451 55.8996 85.041 56.0363 85.2871C56.1776 85.5286 56.2687 85.8044 56.3097 86.1143C56.3553 86.4196 56.3621 86.7363 56.3302 87.0645L55.5099 92H53.2609L54.0334 87.3516C54.0561 87.1602 54.0607 86.9801 54.047 86.8115C54.0334 86.6429 53.9787 86.5062 53.883 86.4014C53.7873 86.292 53.6255 86.235 53.3976 86.2305C53.1515 86.2214 52.9396 86.2738 52.7619 86.3877C52.5841 86.4971 52.4338 86.6429 52.3107 86.8252C52.1922 87.0075 52.0942 87.2057 52.0168 87.4199C51.9438 87.6341 51.8914 87.8438 51.8595 88.0488ZM55.9543 88.0488L55.3595 88.0693C55.4051 87.6273 55.4963 87.1921 55.633 86.7637C55.7742 86.3307 55.9679 85.9388 56.214 85.5879C56.4647 85.237 56.7768 84.959 57.1505 84.7539C57.5242 84.5488 57.9663 84.4508 58.4767 84.46C58.8869 84.4736 59.2241 84.5625 59.4884 84.7266C59.7528 84.8906 59.9533 85.1094 60.09 85.3828C60.2313 85.6562 60.3224 85.9616 60.3634 86.2988C60.4045 86.6361 60.4067 86.9847 60.3703 87.3447L59.591 92H57.3351L58.1144 87.3379C58.1372 87.151 58.1418 86.9756 58.1281 86.8115C58.1144 86.6429 58.0597 86.5062 57.964 86.4014C57.8729 86.292 57.7157 86.235 57.4923 86.2305C57.2371 86.2214 57.0184 86.2715 56.8361 86.3809C56.6584 86.4902 56.5102 86.6361 56.3918 86.8184C56.2733 86.9961 56.1798 87.1943 56.1115 87.4131C56.0431 87.6273 55.9907 87.8392 55.9543 88.0488ZM66.5963 92H64.3336L65.694 84.002C65.7669 83.4414 65.9401 82.9606 66.2135 82.5596C66.487 82.1585 66.8424 81.8532 67.2799 81.6436C67.722 81.4294 68.2278 81.3268 68.7975 81.3359C68.9889 81.3405 69.178 81.3587 69.3649 81.3906C69.5517 81.418 69.7363 81.4521 69.9186 81.4932L69.7477 83.1953C69.6611 83.1725 69.5722 83.1543 69.4811 83.1406C69.3899 83.127 69.2988 83.1178 69.2077 83.1133C69.0071 83.1133 68.8203 83.1452 68.6471 83.209C68.4785 83.2728 68.3349 83.3708 68.2164 83.5029C68.098 83.6305 68.0182 83.7969 67.9772 84.002L66.5963 92ZM69.276 84.6035L68.9889 86.2031H64.3063L64.5866 84.6035H69.276ZM68.9061 88.418L68.9198 88.2744C68.9791 87.7412 69.1089 87.2422 69.3095 86.7773C69.51 86.3125 69.7766 85.9046 70.1093 85.5537C70.4465 85.2028 70.843 84.9316 71.2987 84.7402C71.7544 84.5443 72.2649 84.4531 72.83 84.4668C73.3723 84.4759 73.8417 84.5807 74.2382 84.7812C74.6347 84.9818 74.9605 85.2552 75.2157 85.6016C75.4709 85.9434 75.6509 86.3398 75.7557 86.791C75.8651 87.2376 75.897 87.7139 75.8514 88.2197L75.8378 88.3701C75.7785 88.8988 75.6464 89.3932 75.4413 89.8535C75.2362 90.3138 74.9651 90.7171 74.6278 91.0635C74.2951 91.4098 73.9009 91.6787 73.4452 91.8701C72.9895 92.0615 72.4813 92.1504 71.9208 92.1367C71.3876 92.1276 70.9205 92.0251 70.5194 91.8291C70.1229 91.6286 69.7971 91.3597 69.5419 91.0225C69.2867 90.6807 69.1044 90.2887 68.995 89.8467C68.8902 89.4001 68.8606 88.9238 68.9061 88.418ZM71.1688 88.2744L71.1552 88.418C71.1415 88.6048 71.1324 88.8099 71.1278 89.0332C71.1278 89.252 71.1529 89.4639 71.203 89.6689C71.2531 89.8695 71.3443 90.0358 71.4764 90.168C71.6132 90.2956 71.8091 90.3639 72.0643 90.373C72.3378 90.3822 72.5656 90.3252 72.7479 90.2021C72.9348 90.0791 73.0852 89.915 73.1991 89.71C73.313 89.5049 73.3996 89.2839 73.4589 89.0469C73.5227 88.8099 73.566 88.582 73.5888 88.3633L73.6024 88.2197C73.6161 88.0374 73.6229 87.8346 73.6229 87.6113C73.6275 87.3835 73.6047 87.167 73.5546 86.9619C73.5044 86.7568 73.411 86.5882 73.2743 86.4561C73.1376 86.3193 72.9416 86.2464 72.6864 86.2373C72.413 86.2282 72.1828 86.2874 71.996 86.415C71.8137 86.5426 71.6656 86.7113 71.5516 86.9209C71.4377 87.126 71.3511 87.3493 71.2919 87.5908C71.2326 87.8278 71.1916 88.0557 71.1688 88.2744ZM79.1388 86.5586L78.1954 92H75.9464L77.2316 84.6035H79.3234L79.1388 86.5586ZM81.5587 84.542L81.2648 86.6885C81.1463 86.6702 81.0278 86.6543 80.9093 86.6406C80.7908 86.627 80.67 86.6178 80.547 86.6133C80.2963 86.6087 80.0685 86.6383 79.8634 86.7021C79.6629 86.7614 79.4874 86.8548 79.337 86.9824C79.1912 87.1055 79.0704 87.2604 78.9747 87.4473C78.879 87.6341 78.8084 87.8506 78.7628 88.0967L78.3868 87.8232C78.4324 87.4769 78.5053 87.11 78.6056 86.7227C78.7104 86.3307 78.8562 85.9616 79.0431 85.6152C79.2299 85.2689 79.4715 84.9886 79.7677 84.7744C80.0639 84.5557 80.4285 84.4463 80.8614 84.4463C80.9799 84.4463 81.0961 84.4554 81.2101 84.4736C81.324 84.4919 81.4402 84.5146 81.5587 84.542ZM90.6559 82.04L88.9879 92H86.7389L88.0104 84.6855L85.693 85.3418L86.0074 83.5166L90.4029 82.0469L90.6559 82.04ZM94.4422 87.5498L92.617 87.1055L93.9911 82.0469H99.6649L99.3778 83.8379H95.577L94.9686 85.8271C95.1691 85.6995 95.3901 85.6084 95.6317 85.5537C95.8732 85.4945 96.1102 85.4626 96.3426 85.458C96.8211 85.458 97.2336 85.5469 97.5799 85.7246C97.9263 85.8978 98.2066 86.137 98.4207 86.4424C98.6349 86.7477 98.7853 87.0986 98.8719 87.4951C98.9585 87.8916 98.9836 88.3086 98.9471 88.7461C98.9061 89.2474 98.7831 89.7077 98.578 90.127C98.3729 90.5462 98.1017 90.9085 97.7645 91.2139C97.4273 91.5192 97.0399 91.7539 96.6024 91.918C96.1649 92.0775 95.6955 92.1527 95.1942 92.1436C94.7612 92.1344 94.3556 92.0592 93.9774 91.918C93.6037 91.7721 93.2733 91.5693 92.9862 91.3096C92.6991 91.0452 92.4758 90.7331 92.3163 90.373C92.1567 90.0085 92.0793 89.6051 92.0838 89.1631H94.3329C94.342 89.3682 94.3784 89.5596 94.4422 89.7373C94.506 89.915 94.6063 90.0609 94.743 90.1748C94.8843 90.2842 95.0711 90.3434 95.3036 90.3525C95.5497 90.3571 95.757 90.307 95.9256 90.2021C96.0942 90.0973 96.2332 89.9583 96.3426 89.7852C96.452 89.6074 96.534 89.4137 96.5887 89.2041C96.648 88.9945 96.6867 88.7894 96.7049 88.5889C96.7277 88.3883 96.7277 88.1969 96.7049 88.0146C96.6821 87.8278 96.632 87.6637 96.5545 87.5225C96.4771 87.3766 96.3631 87.2627 96.2127 87.1807C96.0669 87.0941 95.8801 87.0485 95.6522 87.0439C95.4198 87.0439 95.1987 87.085 94.9891 87.167C94.7795 87.249 94.5972 87.3766 94.4422 87.5498ZM107.013 86.1143L106.732 87.9258C106.655 88.4727 106.521 89.0013 106.329 89.5117C106.138 90.0176 105.883 90.471 105.564 90.8721C105.249 91.2731 104.862 91.5876 104.401 91.8154C103.946 92.0433 103.406 92.1504 102.781 92.1367C102.307 92.1276 101.899 92.0433 101.558 91.8838C101.216 91.7197 100.931 91.501 100.703 91.2275C100.48 90.9541 100.307 90.6396 100.184 90.2842C100.065 89.9287 99.9923 89.5505 99.9649 89.1494C99.9376 88.7484 99.949 88.3428 99.9991 87.9326L100.273 86.1143C100.355 85.5674 100.491 85.041 100.683 84.5352C100.874 84.0247 101.129 83.569 101.448 83.168C101.767 82.7669 102.157 82.4548 102.617 82.2314C103.078 82.0036 103.618 81.8965 104.237 81.9102C104.711 81.9193 105.119 82.0059 105.461 82.1699C105.803 82.3294 106.085 82.5459 106.309 82.8193C106.532 83.0928 106.703 83.4072 106.821 83.7627C106.944 84.1182 107.02 84.4964 107.047 84.8975C107.074 85.2985 107.063 85.7041 107.013 86.1143ZM104.456 88.2197L104.812 85.8066C104.825 85.6699 104.841 85.5127 104.859 85.335C104.878 85.1572 104.882 84.9749 104.873 84.7881C104.869 84.5967 104.841 84.4189 104.791 84.2549C104.746 84.0908 104.666 83.9564 104.552 83.8516C104.442 83.7422 104.288 83.6829 104.087 83.6738C103.804 83.6602 103.57 83.7217 103.383 83.8584C103.201 83.9951 103.055 84.1774 102.945 84.4053C102.836 84.6286 102.752 84.8678 102.692 85.123C102.638 85.3737 102.594 85.6038 102.563 85.8135L102.207 88.2197C102.193 88.3564 102.177 88.516 102.159 88.6982C102.141 88.876 102.134 89.0605 102.139 89.252C102.143 89.4434 102.168 89.6211 102.214 89.7852C102.264 89.9492 102.346 90.0859 102.46 90.1953C102.574 90.3001 102.731 90.3594 102.932 90.373C103.214 90.3867 103.447 90.3252 103.629 90.1885C103.816 90.0472 103.964 89.8649 104.073 89.6416C104.183 89.4137 104.265 89.1722 104.319 88.917C104.379 88.6618 104.424 88.4294 104.456 88.2197ZM113.444 86.292L112.453 92H110.204L111.489 84.6035H113.587L113.444 86.292ZM112.883 88.0488L112.398 88.0693C112.444 87.6273 112.537 87.1898 112.678 86.7568C112.824 86.3239 113.025 85.932 113.28 85.5811C113.535 85.2301 113.852 84.9521 114.23 84.7471C114.608 84.542 115.05 84.4463 115.556 84.46C115.93 84.4691 116.24 84.5488 116.486 84.6992C116.732 84.8451 116.923 85.041 117.06 85.2871C117.201 85.5286 117.293 85.8044 117.334 86.1143C117.379 86.4196 117.386 86.7363 117.354 87.0645L116.534 92H114.285L115.057 87.3516C115.08 87.1602 115.085 86.9801 115.071 86.8115C115.057 86.6429 115.003 86.5062 114.907 86.4014C114.811 86.292 114.649 86.235 114.421 86.2305C114.175 86.2214 113.963 86.2738 113.786 86.3877C113.608 86.4971 113.458 86.6429 113.335 86.8252C113.216 87.0075 113.118 87.2057 113.041 87.4199C112.968 87.6341 112.915 87.8438 112.883 88.0488ZM116.978 88.0488L116.383 88.0693C116.429 87.6273 116.52 87.1921 116.657 86.7637C116.798 86.3307 116.992 85.9388 117.238 85.5879C117.489 85.237 117.801 84.959 118.174 84.7539C118.548 84.5488 118.99 84.4508 119.501 84.46C119.911 84.4736 120.248 84.5625 120.512 84.7266C120.777 84.8906 120.977 85.1094 121.114 85.3828C121.255 85.6562 121.346 85.9616 121.387 86.2988C121.428 86.6361 121.431 86.9847 121.394 87.3447L120.615 92H118.359L119.138 87.3379C119.161 87.151 119.166 86.9756 119.152 86.8115C119.138 86.6429 119.084 86.5062 118.988 86.4014C118.897 86.292 118.739 86.235 118.516 86.2305C118.261 86.2214 118.042 86.2715 117.86 86.3809C117.682 86.4902 117.534 86.6361 117.416 86.8184C117.297 86.9961 117.204 87.1943 117.135 87.4131C117.067 87.6273 117.015 87.8392 116.978 88.0488ZM125.304 84.6035L124.025 92H121.769L123.054 84.6035H125.304ZM123.253 82.7373C123.244 82.3818 123.362 82.0993 123.608 81.8896C123.859 81.68 124.153 81.5729 124.49 81.5684C124.814 81.5638 125.101 81.6595 125.351 81.8555C125.602 82.0469 125.73 82.3135 125.734 82.6553C125.743 83.0107 125.623 83.2933 125.372 83.5029C125.126 83.7126 124.834 83.8197 124.497 83.8242C124.173 83.8288 123.886 83.7354 123.636 83.5439C123.389 83.348 123.262 83.0791 123.253 82.7373ZM128.338 86.3057L127.347 92H125.098L126.383 84.6035H128.481L128.338 86.3057ZM127.777 88.0488L127.313 88.0762C127.354 87.6341 127.445 87.1966 127.586 86.7637C127.727 86.3262 127.923 85.932 128.174 85.5811C128.429 85.2301 128.744 84.9544 129.117 84.7539C129.495 84.5488 129.94 84.4508 130.45 84.46C130.865 84.4736 131.204 84.5625 131.469 84.7266C131.738 84.8906 131.943 85.1094 132.084 85.3828C132.225 85.6517 132.314 85.957 132.351 86.2988C132.392 86.6361 132.394 86.9847 132.357 87.3447L131.578 92H129.315L130.102 87.3242C130.124 87.11 130.118 86.9209 130.081 86.7568C130.049 86.5928 129.972 86.4652 129.849 86.374C129.73 86.2829 129.552 86.235 129.315 86.2305C129.051 86.2259 128.828 86.276 128.646 86.3809C128.468 86.4857 128.32 86.6292 128.201 86.8115C128.087 86.9893 127.996 87.1875 127.928 87.4062C127.864 87.6204 127.814 87.8346 127.777 88.0488ZM137.094 90.0859L138.044 84.6035H140.3L139.015 92H136.916L137.094 90.0859ZM137.518 88.6914L138.099 88.6777C138.053 89.097 137.962 89.514 137.825 89.9287C137.689 90.3434 137.5 90.7194 137.258 91.0566C137.017 91.3939 136.716 91.6628 136.356 91.8633C136 92.0592 135.579 92.1527 135.091 92.1436C134.685 92.1344 134.341 92.057 134.059 91.9111C133.781 91.7653 133.558 91.5671 133.389 91.3164C133.22 91.0612 133.106 90.7695 133.047 90.4414C132.988 90.1133 132.977 89.7624 133.013 89.3887L133.813 84.6035H136.062L135.248 89.416C135.235 89.5482 135.235 89.6712 135.248 89.7852C135.267 89.8991 135.301 89.9993 135.351 90.0859C135.406 90.168 135.481 90.234 135.576 90.2842C135.672 90.3343 135.795 90.3617 135.946 90.3662C136.287 90.3799 136.565 90.3092 136.78 90.1543C136.994 89.9948 137.158 89.7852 137.272 89.5254C137.39 89.2656 137.472 88.9876 137.518 88.6914ZM145.078 84.6035L144.797 86.2031H140.463L140.744 84.6035H145.078ZM141.967 82.7646H144.216L143.041 89.6006C143.022 89.7601 143.022 89.8923 143.041 89.9971C143.059 90.0973 143.107 90.1748 143.184 90.2295C143.266 90.2796 143.391 90.3092 143.56 90.3184C143.656 90.3229 143.751 90.3206 143.847 90.3115C143.943 90.3024 144.039 90.2933 144.134 90.2842L143.977 91.9521C143.781 92.016 143.581 92.0615 143.376 92.0889C143.175 92.1162 142.97 92.1299 142.76 92.1299C142.295 92.1208 141.906 92.0273 141.591 91.8496C141.281 91.6673 141.056 91.4098 140.915 91.0771C140.778 90.7399 140.73 90.3389 140.771 89.874L141.967 82.7646ZM148.098 92.1367C147.588 92.1276 147.123 92.0342 146.704 91.8564C146.285 91.6742 145.929 91.4235 145.637 91.1045C145.346 90.7855 145.129 90.4118 144.988 89.9834C144.851 89.5505 144.801 89.0788 144.838 88.5684L144.865 88.3018C144.92 87.764 145.047 87.2627 145.248 86.7979C145.448 86.3285 145.717 85.9183 146.054 85.5674C146.392 85.2119 146.788 84.9362 147.244 84.7402C147.704 84.5443 148.219 84.4531 148.789 84.4668C149.304 84.4759 149.748 84.5785 150.122 84.7744C150.5 84.9704 150.808 85.237 151.045 85.5742C151.282 85.9069 151.446 86.2897 151.537 86.7227C151.633 87.151 151.655 87.6068 151.605 88.0898L151.475 89.0264H145.596L145.829 87.584L149.452 87.5908L149.493 87.3926C149.525 87.1784 149.516 86.9847 149.466 86.8115C149.415 86.6383 149.322 86.5016 149.185 86.4014C149.049 86.2965 148.864 86.2396 148.632 86.2305C148.349 86.2259 148.114 86.2874 147.928 86.415C147.745 86.5426 147.597 86.7113 147.483 86.9209C147.374 87.1305 147.289 87.3584 147.23 87.6045C147.171 87.846 147.128 88.0785 147.1 88.3018L147.073 88.5615C147.055 88.7848 147.062 89.0013 147.094 89.2109C147.125 89.4206 147.189 89.6097 147.285 89.7783C147.385 89.9469 147.52 90.0837 147.688 90.1885C147.857 90.2887 148.069 90.3434 148.324 90.3525C148.666 90.3617 148.985 90.2979 149.281 90.1611C149.577 90.0244 149.844 89.8376 150.081 89.6006L151.017 90.8447C150.812 91.1546 150.548 91.4053 150.224 91.5967C149.901 91.7835 149.552 91.9202 149.178 92.0068C148.809 92.098 148.449 92.1413 148.098 92.1367ZM155.781 89.8809C155.818 89.6895 155.761 89.5436 155.61 89.4434C155.465 89.3385 155.289 89.2611 155.084 89.2109C154.883 89.1562 154.722 89.113 154.599 89.0811C154.321 89.0081 154.045 88.9147 153.771 88.8008C153.498 88.6823 153.25 88.5365 153.026 88.3633C152.808 88.1855 152.632 87.9736 152.5 87.7275C152.372 87.4769 152.315 87.1852 152.329 86.8525C152.343 86.4424 152.445 86.0869 152.637 85.7861C152.833 85.4854 153.086 85.237 153.396 85.041C153.705 84.8405 154.043 84.6924 154.407 84.5967C154.776 84.501 155.143 84.4577 155.508 84.4668C156.009 84.4714 156.481 84.5602 156.923 84.7334C157.369 84.9066 157.732 85.1709 158.01 85.5264C158.292 85.8818 158.436 86.333 158.44 86.8799L156.205 86.873C156.21 86.6953 156.187 86.5404 156.137 86.4082C156.091 86.276 156.011 86.1758 155.897 86.1074C155.784 86.0345 155.629 85.998 155.433 85.998C155.287 85.998 155.143 86.0277 155.002 86.0869C154.861 86.1462 154.738 86.2305 154.633 86.3398C154.533 86.4492 154.469 86.5814 154.441 86.7363C154.414 86.8685 154.432 86.9801 154.496 87.0713C154.56 87.1579 154.646 87.2285 154.756 87.2832C154.865 87.3379 154.979 87.3835 155.098 87.4199C155.221 87.4518 155.33 87.4769 155.426 87.4951C155.84 87.5954 156.242 87.7298 156.629 87.8984C157.021 88.0625 157.34 88.2972 157.586 88.6025C157.837 88.9033 157.955 89.3044 157.941 89.8057C157.928 90.2295 157.814 90.5918 157.6 90.8926C157.385 91.1888 157.11 91.4303 156.772 91.6172C156.44 91.7995 156.08 91.9316 155.692 92.0137C155.31 92.1003 154.938 92.1413 154.578 92.1367C154.077 92.1276 153.603 92.0273 153.156 91.8359C152.71 91.64 152.345 91.3574 152.062 90.9883C151.785 90.6146 151.639 90.1566 151.625 89.6143L153.703 89.6211C153.708 89.8353 153.746 90.0153 153.819 90.1611C153.897 90.3024 154.008 90.4118 154.154 90.4893C154.3 90.5622 154.48 90.5986 154.694 90.5986C154.854 90.5986 155.009 90.5758 155.159 90.5303C155.314 90.4801 155.446 90.4027 155.556 90.2979C155.67 90.1885 155.745 90.0495 155.781 89.8809ZM164.844 86.1484L163.333 94.8438H161.084L162.862 84.6035H164.947L164.844 86.1484ZM168.877 88.1719L168.857 88.3154C168.807 88.762 168.704 89.2132 168.549 89.6689C168.399 90.1247 168.192 90.5417 167.927 90.9199C167.667 91.2982 167.344 91.6012 166.957 91.8291C166.569 92.0524 166.113 92.1572 165.589 92.1436C165.129 92.1299 164.753 92.0023 164.461 91.7607C164.17 91.5146 163.942 91.2048 163.778 90.8311C163.618 90.4528 163.507 90.054 163.443 89.6348C163.384 89.2109 163.359 88.8167 163.368 88.4521L163.388 88.2539C163.457 87.8529 163.57 87.429 163.73 86.9824C163.889 86.5358 164.099 86.1211 164.359 85.7383C164.619 85.3509 164.931 85.0387 165.295 84.8018C165.66 84.5602 166.084 84.4463 166.567 84.46C167.073 84.4736 167.487 84.5944 167.811 84.8223C168.135 85.0456 168.381 85.3395 168.549 85.7041C168.718 86.0641 168.825 86.4606 168.871 86.8936C168.916 87.3265 168.918 87.7526 168.877 88.1719ZM166.615 88.3086L166.628 88.165C166.642 88.001 166.653 87.8118 166.663 87.5977C166.672 87.3835 166.658 87.1738 166.622 86.9688C166.59 86.7637 166.514 86.5928 166.396 86.4561C166.282 86.3148 166.107 86.2396 165.87 86.2305C165.592 86.2168 165.359 86.2601 165.172 86.3604C164.985 86.4606 164.833 86.5996 164.714 86.7773C164.6 86.9551 164.512 87.1556 164.448 87.3789C164.384 87.5977 164.338 87.8232 164.311 88.0557L164.249 88.6162C164.218 88.876 164.211 89.1403 164.229 89.4092C164.247 89.6735 164.325 89.8968 164.461 90.0791C164.603 90.2614 164.84 90.3571 165.172 90.3662C165.437 90.3708 165.655 90.307 165.829 90.1748C166.006 90.0426 166.148 89.8695 166.252 89.6553C166.362 89.4411 166.444 89.2155 166.499 88.9785C166.553 88.737 166.592 88.5137 166.615 88.3086ZM172.623 92.1367C172.112 92.1276 171.648 92.0342 171.228 91.8564C170.809 91.6742 170.454 91.4235 170.162 91.1045C169.87 90.7855 169.654 90.4118 169.512 89.9834C169.376 89.5505 169.326 89.0788 169.362 88.5684L169.389 88.3018C169.444 87.764 169.572 87.2627 169.772 86.7979C169.973 86.3285 170.242 85.9183 170.579 85.5674C170.916 85.2119 171.313 84.9362 171.768 84.7402C172.229 84.5443 172.744 84.4531 173.313 84.4668C173.828 84.4759 174.273 84.5785 174.646 84.7744C175.024 84.9704 175.332 85.237 175.569 85.5742C175.806 85.9069 175.97 86.2897 176.061 86.7227C176.157 87.151 176.18 87.6068 176.13 88.0898L176 89.0264H170.121L170.353 87.584L173.976 87.5908L174.017 87.3926C174.049 87.1784 174.04 86.9847 173.99 86.8115C173.94 86.6383 173.846 86.5016 173.71 86.4014C173.573 86.2965 173.388 86.2396 173.156 86.2305C172.873 86.2259 172.639 86.2874 172.452 86.415C172.27 86.5426 172.121 86.7113 172.008 86.9209C171.898 87.1305 171.814 87.3584 171.755 87.6045C171.695 87.846 171.652 88.0785 171.625 88.3018L171.597 88.5615C171.579 88.7848 171.586 89.0013 171.618 89.2109C171.65 89.4206 171.714 89.6097 171.809 89.7783C171.91 89.9469 172.044 90.0837 172.213 90.1885C172.381 90.2887 172.593 90.3434 172.848 90.3525C173.19 90.3617 173.509 90.2979 173.805 90.1611C174.102 90.0244 174.368 89.8376 174.605 89.6006L175.542 90.8447C175.337 91.1546 175.072 91.4053 174.749 91.5967C174.425 91.7835 174.077 91.9202 173.703 92.0068C173.334 92.098 172.974 92.1413 172.623 92.1367ZM179.342 86.5586L178.398 92H176.149L177.435 84.6035H179.526L179.342 86.5586ZM181.762 84.542L181.468 86.6885C181.349 86.6702 181.231 86.6543 181.112 86.6406C180.994 86.627 180.873 86.6178 180.75 86.6133C180.499 86.6087 180.271 86.6383 180.066 86.7021C179.866 86.7614 179.69 86.8548 179.54 86.9824C179.394 87.1055 179.273 87.2604 179.178 87.4473C179.082 87.6341 179.011 87.8506 178.966 88.0967L178.59 87.8232C178.635 87.4769 178.708 87.11 178.809 86.7227C178.913 86.3307 179.059 85.9616 179.246 85.6152C179.433 85.2689 179.674 84.9886 179.971 84.7744C180.267 84.5557 180.631 84.4463 181.064 84.4463C181.183 84.4463 181.299 84.4554 181.413 84.4736C181.527 84.4919 181.643 84.5146 181.762 84.542ZM186.846 89.6895L189.027 84.6035H190.49L189.505 87.3037L187.407 92H186.231L186.846 89.6895ZM187.202 84.6035L187.126 89.874L186.846 92H185.506L185.089 84.6035H187.202ZM190.777 89.5391L192.445 84.6035H194.646L191.679 92H190.271L190.777 89.5391ZM190.599 84.6035L191.05 89.9082L190.879 92H189.772L189.307 87.126L189.28 84.6035H190.599ZM197.544 92.1367C197.033 92.1276 196.568 92.0342 196.149 91.8564C195.73 91.6742 195.374 91.4235 195.083 91.1045C194.791 90.7855 194.575 90.4118 194.433 89.9834C194.297 89.5505 194.246 89.0788 194.283 88.5684L194.31 88.3018C194.365 87.764 194.493 87.2627 194.693 86.7979C194.894 86.3285 195.162 85.9183 195.5 85.5674C195.837 85.2119 196.233 84.9362 196.689 84.7402C197.149 84.5443 197.664 84.4531 198.234 84.4668C198.749 84.4759 199.193 84.5785 199.567 84.7744C199.945 84.9704 200.253 85.237 200.49 85.5742C200.727 85.9069 200.891 86.2897 200.982 86.7227C201.078 87.151 201.101 87.6068 201.05 88.0898L200.921 89.0264H195.042L195.274 87.584L198.897 87.5908L198.938 87.3926C198.97 87.1784 198.961 86.9847 198.911 86.8115C198.861 86.6383 198.767 86.5016 198.631 86.4014C198.494 86.2965 198.309 86.2396 198.077 86.2305C197.794 86.2259 197.56 86.2874 197.373 86.415C197.19 86.5426 197.042 86.7113 196.928 86.9209C196.819 87.1305 196.735 87.3584 196.675 87.6045C196.616 87.846 196.573 88.0785 196.546 88.3018L196.518 88.5615C196.5 88.7848 196.507 89.0013 196.539 89.2109C196.571 89.4206 196.634 89.6097 196.73 89.7783C196.83 89.9469 196.965 90.0837 197.133 90.1885C197.302 90.2887 197.514 90.3434 197.769 90.3525C198.111 90.3617 198.43 90.2979 198.726 90.1611C199.022 90.0244 199.289 89.8376 199.526 89.6006L200.463 90.8447C200.258 91.1546 199.993 91.4053 199.67 91.5967C199.346 91.7835 198.997 91.9202 198.624 92.0068C198.255 92.098 197.895 92.1413 197.544 92.1367ZM204.714 92.1367C204.203 92.1276 203.739 92.0342 203.319 91.8564C202.9 91.6742 202.545 91.4235 202.253 91.1045C201.961 90.7855 201.745 90.4118 201.603 89.9834C201.467 89.5505 201.417 89.0788 201.453 88.5684L201.48 88.3018C201.535 87.764 201.663 87.2627 201.863 86.7979C202.064 86.3285 202.333 85.9183 202.67 85.5674C203.007 85.2119 203.404 84.9362 203.859 84.7402C204.32 84.5443 204.835 84.4531 205.404 84.4668C205.919 84.4759 206.364 84.5785 206.737 84.7744C207.115 84.9704 207.423 85.237 207.66 85.5742C207.897 85.9069 208.061 86.2897 208.152 86.7227C208.248 87.151 208.271 87.6068 208.221 88.0898L208.091 89.0264H202.212L202.444 87.584L206.067 87.5908L206.108 87.3926C206.14 87.1784 206.131 86.9847 206.081 86.8115C206.031 86.6383 205.937 86.5016 205.801 86.4014C205.664 86.2965 205.479 86.2396 205.247 86.2305C204.964 86.2259 204.73 86.2874 204.543 86.415C204.361 86.5426 204.212 86.7113 204.099 86.9209C203.989 87.1305 203.905 87.3584 203.846 87.6045C203.786 87.846 203.743 88.0785 203.716 88.3018L203.688 88.5615C203.67 88.7848 203.677 89.0013 203.709 89.2109C203.741 89.4206 203.805 89.6097 203.9 89.7783C204.001 89.9469 204.135 90.0837 204.304 90.1885C204.472 90.2887 204.684 90.3434 204.939 90.3525C205.281 90.3617 205.6 90.2979 205.896 90.1611C206.193 90.0244 206.459 89.8376 206.696 89.6006L207.633 90.8447C207.428 91.1546 207.163 91.4053 206.84 91.5967C206.516 91.7835 206.168 91.9202 205.794 92.0068C205.425 92.098 205.065 92.1413 204.714 92.1367ZM212.315 81.4932L210.489 92H208.24L210.066 81.4932H212.315ZM216.444 84.6035L212.643 88.4043L210.736 90.0654L209.949 88.4863L211.583 86.7158L213.593 84.6035H216.444ZM212.732 92L211.371 88.5479L213.142 87.3994L215.206 92H212.732ZM1.60156 101.992L1.62305 101.842C1.69108 101.323 1.80745 100.785 1.97217 100.23C2.13688 99.6755 2.35531 99.1437 2.62744 98.6353C2.89958 98.1232 3.23258 97.6685 3.62646 97.271C4.02035 96.87 4.48226 96.5674 5.01221 96.3633L5.28076 97.2764C4.92269 97.5449 4.61475 97.8529 4.35693 98.2002C4.1027 98.5439 3.88786 98.9146 3.7124 99.312C3.53695 99.7059 3.39372 100.116 3.28271 100.542C3.17529 100.965 3.09115 101.391 3.03027 101.82L3.00879 101.987C2.96224 102.323 2.92285 102.701 2.89062 103.12C2.8584 103.539 2.85661 103.965 2.88525 104.398C2.91748 104.828 3.00342 105.231 3.14307 105.607C3.2863 105.983 3.51188 106.293 3.81982 106.536L3.43311 107.417C2.96403 107.181 2.59163 106.851 2.31592 106.429C2.04378 106.01 1.84684 105.542 1.7251 105.027C1.60335 104.515 1.53711 103.996 1.52637 103.469C1.51921 102.939 1.54427 102.447 1.60156 101.992ZM6.9851 100.725L6.24389 105H4.4768L5.48656 99.1885H7.13012L6.9851 100.725ZM8.88646 99.1401L8.65551 100.827C8.56241 100.812 8.46931 100.8 8.37621 100.789C8.28311 100.778 8.18822 100.771 8.09154 100.768C7.8946 100.764 7.71557 100.787 7.55443 100.837C7.39688 100.884 7.25902 100.957 7.14086 101.058C7.02628 101.154 6.93139 101.276 6.85619 101.423C6.781 101.57 6.72549 101.74 6.68969 101.933L6.39428 101.718C6.43008 101.446 6.48738 101.158 6.56615 100.854C6.64851 100.546 6.76309 100.256 6.9099 99.9834C7.05671 99.7113 7.24649 99.491 7.47924 99.3228C7.71199 99.1509 7.99844 99.0649 8.33861 99.0649C8.43171 99.0649 8.52302 99.0721 8.61254 99.0864C8.70206 99.1007 8.79337 99.1187 8.88646 99.1401ZM11.042 105.107C10.6409 105.1 10.2757 105.027 9.94627 104.887C9.61684 104.744 9.33755 104.547 9.10838 104.296C8.87921 104.046 8.70913 103.752 8.59812 103.416C8.4907 103.075 8.45132 102.705 8.47996 102.304L8.50145 102.094C8.54441 101.672 8.64467 101.278 8.80223 100.913C8.95978 100.544 9.17104 100.222 9.43602 99.9458C9.70099 99.6665 10.0125 99.4499 10.3706 99.2959C10.7322 99.1419 11.1369 99.0703 11.5845 99.0811C11.9891 99.0882 12.3382 99.1688 12.6318 99.3228C12.929 99.4767 13.1707 99.6862 13.3569 99.9512C13.5431 100.213 13.672 100.513 13.7436 100.854C13.8188 101.19 13.8367 101.548 13.7973 101.928L13.6953 102.664H9.07615L9.25877 101.53L12.1054 101.536L12.1377 101.38C12.1627 101.212 12.1556 101.059 12.1162 100.923C12.0768 100.787 12.0034 100.68 11.896 100.601C11.7886 100.519 11.6435 100.474 11.4609 100.467C11.2389 100.463 11.0545 100.512 10.9077 100.612C10.7645 100.712 10.6481 100.845 10.5586 101.009C10.4726 101.174 10.4064 101.353 10.3598 101.546C10.3133 101.736 10.2793 101.919 10.2578 102.094L10.2363 102.298C10.222 102.474 10.2274 102.644 10.2524 102.809C10.2775 102.973 10.3276 103.122 10.4028 103.254C10.4816 103.387 10.5872 103.494 10.7197 103.577C10.8522 103.655 11.0187 103.698 11.2192 103.706C11.4878 103.713 11.7384 103.663 11.9712 103.555C12.2039 103.448 12.4134 103.301 12.5996 103.115L13.3354 104.092C13.1743 104.336 12.9666 104.533 12.7124 104.683C12.4582 104.83 12.1842 104.937 11.8906 105.005C11.6006 105.077 11.3177 105.111 11.042 105.107ZM16.3718 103.716C16.5401 103.72 16.6851 103.689 16.8069 103.625C16.9286 103.557 17.0253 103.464 17.0969 103.346C17.1721 103.224 17.2204 103.084 17.2419 102.927L18.9016 102.921C18.8801 103.38 18.7458 103.774 18.4987 104.103C18.2553 104.432 17.9419 104.685 17.5588 104.86C17.1757 105.036 16.7639 105.118 16.3235 105.107C15.9009 105.1 15.5375 105.018 15.2331 104.86C14.9288 104.699 14.6817 104.484 14.4919 104.216C14.3021 103.944 14.1679 103.632 14.0891 103.281C14.0139 102.93 13.9942 102.56 14.03 102.169L14.0461 102.041C14.0891 101.632 14.1858 101.247 14.3362 100.886C14.4901 100.524 14.6942 100.207 14.9485 99.9351C15.2027 99.6593 15.5035 99.4463 15.8508 99.2959C16.2017 99.1419 16.5956 99.0703 17.0324 99.0811C17.4979 99.0882 17.8936 99.1921 18.2195 99.3926C18.5489 99.5931 18.7977 99.867 18.966 100.214C19.1343 100.562 19.2131 100.963 19.2024 101.417L17.5427 101.412C17.5499 101.258 17.5355 101.111 17.4997 100.972C17.4675 100.828 17.403 100.712 17.3064 100.623C17.2097 100.529 17.07 100.479 16.8874 100.472C16.6762 100.465 16.5043 100.512 16.3718 100.612C16.2393 100.712 16.1337 100.845 16.0549 101.009C15.9797 101.17 15.9242 101.344 15.8884 101.53C15.8526 101.713 15.8257 101.885 15.8078 102.046L15.8025 102.169C15.7881 102.298 15.7738 102.451 15.7595 102.626C15.7487 102.798 15.7541 102.966 15.7756 103.131C15.8007 103.296 15.858 103.433 15.9475 103.544C16.037 103.652 16.1784 103.709 16.3718 103.716ZM19.3491 102.186L19.3598 102.073C19.4064 101.654 19.5084 101.262 19.666 100.896C19.8235 100.531 20.033 100.211 20.2944 99.9351C20.5594 99.6593 20.8709 99.4463 21.229 99.2959C21.587 99.1419 21.9881 99.0703 22.4321 99.0811C22.8582 99.0882 23.227 99.1706 23.5385 99.3281C23.8501 99.4857 24.1061 99.7005 24.3066 99.9727C24.5071 100.241 24.6486 100.553 24.7309 100.907C24.8169 101.258 24.8419 101.632 24.8061 102.03L24.7954 102.148C24.7488 102.563 24.645 102.952 24.4838 103.313C24.3227 103.675 24.1097 103.992 23.8447 104.264C23.5833 104.536 23.2736 104.748 22.9155 104.898C22.5574 105.048 22.1582 105.118 21.7177 105.107C21.2988 105.1 20.9318 105.02 20.6167 104.866C20.3051 104.708 20.0491 104.497 19.8486 104.232C19.6481 103.963 19.5048 103.655 19.4189 103.308C19.3366 102.957 19.3133 102.583 19.3491 102.186ZM21.1269 102.073L21.1162 102.186C21.1054 102.332 21.0983 102.493 21.0947 102.669C21.0947 102.841 21.1144 103.007 21.1538 103.168C21.1932 103.326 21.2648 103.457 21.3686 103.561C21.476 103.661 21.63 103.715 21.8305 103.722C22.0454 103.729 22.2244 103.684 22.3676 103.587C22.5144 103.491 22.6326 103.362 22.7221 103.201C22.8116 103.04 22.8797 102.866 22.9262 102.68C22.9764 102.493 23.0104 102.314 23.0283 102.143L23.039 102.03C23.0498 101.887 23.0551 101.727 23.0551 101.552C23.0587 101.373 23.0408 101.203 23.0014 101.042C22.962 100.88 22.8886 100.748 22.7812 100.644C22.6738 100.537 22.5198 100.479 22.3193 100.472C22.1045 100.465 21.9236 100.512 21.7768 100.612C21.6336 100.712 21.5172 100.845 21.4277 101.009C21.3382 101.17 21.2701 101.346 21.2236 101.536C21.177 101.722 21.1448 101.901 21.1269 102.073ZM27.3752 100.515L26.5964 105H24.8293L25.8391 99.1885H27.488L27.3752 100.515ZM26.9348 101.896L26.5534 101.912C26.5892 101.564 26.6626 101.221 26.7736 100.88C26.8882 100.54 27.0458 100.232 27.2463 99.9565C27.4468 99.6808 27.6957 99.4624 27.9929 99.3013C28.2901 99.1401 28.6374 99.0649 29.0349 99.0757C29.3285 99.0828 29.572 99.1455 29.7653 99.2637C29.9587 99.3783 30.1091 99.5322 30.2165 99.7256C30.3275 99.9154 30.3991 100.132 30.4313 100.375C30.4672 100.615 30.4725 100.864 30.4475 101.122L29.8029 105H28.0358L28.6428 101.348C28.6607 101.197 28.6643 101.056 28.6535 100.923C28.6428 100.791 28.5998 100.683 28.5246 100.601C28.4494 100.515 28.3223 100.47 28.1433 100.467C27.9499 100.46 27.7834 100.501 27.6437 100.59C27.5041 100.676 27.3859 100.791 27.2893 100.934C27.1962 101.077 27.1192 101.233 27.0583 101.401C27.001 101.57 26.9598 101.734 26.9348 101.896ZM30.1521 101.896L29.6848 101.912C29.7206 101.564 29.7922 101.222 29.8996 100.886C30.0106 100.546 30.1628 100.238 30.3562 99.9619C30.5531 99.6862 30.7984 99.4678 31.092 99.3066C31.3856 99.1455 31.7329 99.0685 32.134 99.0757C32.4562 99.0864 32.7212 99.1562 32.9289 99.2852C33.1366 99.4141 33.2941 99.5859 33.4016 99.8008C33.5126 100.016 33.5842 100.256 33.6164 100.521C33.6486 100.785 33.6504 101.059 33.6218 101.342L33.0095 105H31.237L31.8493 101.337C31.8672 101.19 31.8708 101.052 31.8601 100.923C31.8493 100.791 31.8063 100.683 31.7312 100.601C31.6595 100.515 31.536 100.47 31.3605 100.467C31.16 100.46 30.9882 100.499 30.8449 100.585C30.7053 100.671 30.5889 100.785 30.4958 100.929C30.4027 101.068 30.3293 101.224 30.2756 101.396C30.2219 101.564 30.1807 101.731 30.1521 101.896ZM36.3305 100.515L35.5517 105H33.7846L34.7944 99.1885H36.4433L36.3305 100.515ZM35.8901 101.896L35.5087 101.912C35.5445 101.564 35.6179 101.221 35.7289 100.88C35.8435 100.54 36.0011 100.232 36.2016 99.9565C36.4021 99.6808 36.651 99.4624 36.9482 99.3013C37.2454 99.1401 37.5927 99.0649 37.9902 99.0757C38.2838 99.0828 38.5273 99.1455 38.7206 99.2637C38.914 99.3783 39.0644 99.5322 39.1718 99.7256C39.2828 99.9154 39.3544 100.132 39.3867 100.375C39.4225 100.615 39.4278 100.864 39.4028 101.122L38.7582 105H36.9912L37.5981 101.348C37.616 101.197 37.6196 101.056 37.6088 100.923C37.5981 100.791 37.5551 100.683 37.4799 100.601C37.4047 100.515 37.2776 100.47 37.0986 100.467C36.9052 100.46 36.7387 100.501 36.5991 100.59C36.4594 100.676 36.3413 100.791 36.2446 100.934C36.1515 101.077 36.0745 101.233 36.0136 101.401C35.9563 101.57 35.9151 101.734 35.8901 101.896ZM39.1074 101.896L38.6401 101.912C38.6759 101.564 38.7475 101.222 38.8549 100.886C38.9659 100.546 39.1181 100.238 39.3115 99.9619C39.5084 99.6862 39.7537 99.4678 40.0473 99.3066C40.3409 99.1455 40.6883 99.0685 41.0893 99.0757C41.4116 99.0864 41.6765 99.1562 41.8842 99.2852C42.0919 99.4141 42.2495 99.5859 42.3569 99.8008C42.4679 100.016 42.5395 100.256 42.5717 100.521C42.6039 100.785 42.6057 101.059 42.5771 101.342L41.9648 105H40.1923L40.8046 101.337C40.8225 101.19 40.8261 101.052 40.8154 100.923C40.8046 100.791 40.7617 100.683 40.6865 100.601C40.6149 100.515 40.4913 100.47 40.3159 100.467C40.1153 100.46 39.9435 100.499 39.8002 100.585C39.6606 100.671 39.5442 100.785 39.4511 100.929C39.358 101.068 39.2846 101.224 39.2309 101.396C39.1772 101.564 39.136 101.731 39.1074 101.896ZM45.6027 105.107C45.2017 105.1 44.8364 105.027 44.507 104.887C44.1776 104.744 43.8983 104.547 43.6691 104.296C43.44 104.046 43.2699 103.752 43.1589 103.416C43.0514 103.075 43.0121 102.705 43.0407 102.304L43.0622 102.094C43.1052 101.672 43.2054 101.278 43.363 100.913C43.5205 100.544 43.7318 100.222 43.9968 99.9458C44.2617 99.6665 44.5733 99.4499 44.9313 99.2959C45.293 99.1419 45.6976 99.0703 46.1452 99.0811C46.5498 99.0882 46.8989 99.1688 47.1926 99.3228C47.4898 99.4767 47.7315 99.6862 47.9177 99.9512C48.1039 100.213 48.2328 100.513 48.3044 100.854C48.3796 101.19 48.3975 101.548 48.3581 101.928L48.256 102.664H43.6369L43.8195 101.53L46.6662 101.536L46.6984 101.38C46.7235 101.212 46.7163 101.059 46.6769 100.923C46.6375 100.787 46.5641 100.68 46.4567 100.601C46.3493 100.519 46.2043 100.474 46.0217 100.467C45.7997 100.463 45.6152 100.512 45.4684 100.612C45.3252 100.712 45.2088 100.845 45.1193 101.009C45.0334 101.174 44.9671 101.353 44.9206 101.546C44.874 101.736 44.84 101.919 44.8185 102.094L44.7971 102.298C44.7827 102.474 44.7881 102.644 44.8132 102.809C44.8382 102.973 44.8884 103.122 44.9636 103.254C45.0423 103.387 45.148 103.494 45.2804 103.577C45.4129 103.655 45.5794 103.698 45.78 103.706C46.0485 103.713 46.2992 103.663 46.5319 103.555C46.7647 103.448 46.9741 103.301 47.1603 103.115L47.8962 104.092C47.735 104.336 47.5274 104.533 47.2731 104.683C47.0189 104.83 46.745 104.937 46.4513 105.005C46.1613 105.077 45.8784 105.111 45.6027 105.107ZM50.8197 100.526L50.0409 105H48.2738L49.2836 99.1885H50.9325L50.8197 100.526ZM50.3793 101.896L50.0141 101.917C50.0463 101.57 50.1179 101.226 50.2289 100.886C50.3399 100.542 50.4939 100.232 50.6908 99.9565C50.8914 99.6808 51.1384 99.4642 51.4321 99.3066C51.7293 99.1455 52.0784 99.0685 52.4794 99.0757C52.8053 99.0864 53.072 99.1562 53.2797 99.2852C53.491 99.4141 53.6521 99.5859 53.7631 99.8008C53.8741 100.012 53.9439 100.252 53.9726 100.521C54.0048 100.785 54.0066 101.059 53.978 101.342L53.3656 105H51.5878L52.2055 101.326C52.2234 101.158 52.218 101.009 52.1894 100.88C52.1643 100.751 52.1034 100.651 52.0068 100.58C51.9137 100.508 51.774 100.47 51.5878 100.467C51.3801 100.463 51.2047 100.503 51.0614 100.585C50.9218 100.667 50.8054 100.78 50.7123 100.923C50.6228 101.063 50.5512 101.219 50.4975 101.391C50.4474 101.559 50.408 101.727 50.3793 101.896ZM56.9713 105.107C56.5703 105.1 56.2051 105.027 55.8756 104.887C55.5462 104.744 55.2669 104.547 55.0378 104.296C54.8086 104.046 54.6385 103.752 54.5275 103.416C54.4201 103.075 54.3807 102.705 54.4093 102.304L54.4308 102.094C54.4738 101.672 54.574 101.278 54.7316 100.913C54.8892 100.544 55.1004 100.222 55.3654 99.9458C55.6304 99.6665 55.9419 99.4499 56.3 99.2959C56.6616 99.1419 57.0662 99.0703 57.5138 99.0811C57.9185 99.0882 58.2676 99.1688 58.5612 99.3228C58.8584 99.4767 59.1001 99.6862 59.2863 99.9512C59.4725 100.213 59.6014 100.513 59.673 100.854C59.7482 101.19 59.7661 101.548 59.7267 101.928L59.6247 102.664H55.0055L55.1881 101.53L58.0348 101.536L58.0671 101.38C58.0921 101.212 58.085 101.059 58.0456 100.923C58.0062 100.787 57.9328 100.68 57.8254 100.601C57.7179 100.519 57.5729 100.474 57.3903 100.467C57.1683 100.463 56.9839 100.512 56.8371 100.612C56.6938 100.712 56.5775 100.845 56.4879 101.009C56.402 101.174 56.3358 101.353 56.2892 101.546C56.2427 101.736 56.2087 101.919 56.1872 102.094L56.1657 102.298C56.1514 102.474 56.1567 102.644 56.1818 102.809C56.2069 102.973 56.257 103.122 56.3322 103.254C56.411 103.387 56.5166 103.494 56.6491 103.577C56.7816 103.655 56.9481 103.698 57.1486 103.706C57.4171 103.713 57.6678 103.663 57.9005 103.555C58.1333 103.448 58.3428 103.301 58.529 103.115L59.2648 104.092C59.1037 104.336 58.896 104.533 58.6418 104.683C58.3875 104.83 58.1136 104.937 57.82 105.005C57.5299 105.077 57.2471 105.111 56.9713 105.107ZM63.1659 103.566L64.3476 96.75H66.1254L64.6967 105H63.1122L63.1659 103.566ZM59.954 102.207L59.9647 102.089C60.0077 101.734 60.0883 101.376 60.2064 101.015C60.3246 100.653 60.4857 100.324 60.6898 100.026C60.8975 99.7292 61.1535 99.4928 61.4579 99.3174C61.7659 99.1419 62.1311 99.0614 62.5536 99.0757C62.9117 99.09 63.2053 99.1974 63.4345 99.3979C63.6636 99.5985 63.8409 99.8527 63.9662 100.161C64.0915 100.465 64.1775 100.785 64.224 101.122C64.2706 101.459 64.2903 101.768 64.2831 102.051L64.267 102.196C64.2133 102.501 64.1202 102.825 63.9877 103.168C63.8588 103.509 63.6887 103.829 63.4774 104.13C63.2698 104.427 63.0227 104.669 62.7362 104.855C62.4498 105.038 62.1257 105.124 61.7641 105.113C61.3702 105.102 61.0479 105.007 60.7973 104.828C60.5466 104.649 60.3533 104.416 60.2172 104.13C60.0847 103.843 59.9988 103.532 59.9594 103.195C59.9236 102.859 59.9218 102.529 59.954 102.207ZM61.7372 102.083L61.7265 102.196C61.7157 102.325 61.7068 102.474 61.6996 102.642C61.6924 102.81 61.7014 102.975 61.7265 103.136C61.7551 103.297 61.8142 103.433 61.9037 103.544C61.9968 103.652 62.1347 103.711 62.3173 103.722C62.5823 103.732 62.7989 103.67 62.9672 103.534C63.1391 103.398 63.2698 103.224 63.3593 103.013C63.4524 102.798 63.5115 102.578 63.5365 102.352L63.5849 101.922C63.6028 101.776 63.6117 101.62 63.6117 101.455C63.6153 101.29 63.5974 101.135 63.558 100.988C63.5186 100.841 63.447 100.719 63.3432 100.623C63.2393 100.526 63.0889 100.476 62.892 100.472C62.6843 100.465 62.5089 100.513 62.3656 100.617C62.226 100.721 62.1132 100.857 62.0272 101.025C61.9449 101.19 61.8804 101.367 61.8339 101.557C61.7909 101.743 61.7587 101.919 61.7372 102.083ZM69.3676 96.75H71.1347L69.9315 103.668L69.5287 105H67.9335L69.3676 96.75ZM73.6644 101.998L73.6537 102.116C73.6107 102.477 73.5319 102.839 73.4174 103.201C73.3028 103.559 73.1434 103.885 72.9393 104.178C72.7388 104.468 72.4846 104.699 72.1766 104.871C71.8723 105.043 71.5088 105.124 71.0863 105.113C70.7211 105.102 70.4221 105 70.1893 104.807C69.9566 104.613 69.7776 104.368 69.6522 104.071C69.5269 103.77 69.441 103.453 69.3944 103.12C69.3514 102.784 69.3335 102.468 69.3407 102.175L69.3514 102.035C69.4087 101.724 69.5 101.394 69.6254 101.047C69.7543 100.7 69.9208 100.375 70.1249 100.075C70.329 99.7703 70.5743 99.5251 70.8607 99.3389C71.1472 99.1527 71.4766 99.0649 71.849 99.0757C72.2536 99.0828 72.5831 99.1759 72.8373 99.355C73.0915 99.5304 73.2849 99.7614 73.4174 100.048C73.5499 100.334 73.6322 100.648 73.6644 100.988C73.7002 101.328 73.7002 101.665 73.6644 101.998ZM71.892 102.11L71.8973 101.992C71.9117 101.86 71.9224 101.708 71.9296 101.536C71.9403 101.364 71.9332 101.199 71.9081 101.042C71.883 100.88 71.8239 100.746 71.7308 100.639C71.6377 100.531 71.4945 100.474 71.3012 100.467C71.0899 100.456 70.9109 100.49 70.764 100.569C70.6172 100.648 70.4973 100.755 70.4042 100.891C70.3111 101.027 70.2395 101.181 70.1893 101.353C70.1392 101.525 70.1034 101.7 70.0819 101.879L70.0336 102.309C70.0121 102.517 70.0049 102.728 70.0121 102.943C70.0228 103.158 70.0819 103.339 70.1893 103.485C70.2968 103.632 70.4865 103.709 70.7587 103.716C70.9807 103.723 71.1615 103.677 71.3012 103.577C71.4408 103.476 71.55 103.346 71.6288 103.185C71.7076 103.02 71.7649 102.843 71.8007 102.653C71.8401 102.463 71.8705 102.282 71.892 102.11ZM75.4816 104.232L77.7911 99.1885H79.7408L76.3356 105.87C76.2317 106.092 76.1136 106.294 75.9811 106.477C75.8522 106.66 75.7054 106.817 75.5406 106.95C75.3759 107.082 75.1897 107.184 74.982 107.256C74.7744 107.327 74.5398 107.363 74.2784 107.363C74.1424 107.363 74.0099 107.351 73.881 107.326C73.7521 107.304 73.6232 107.277 73.4943 107.245L73.6285 105.945C73.6643 105.949 73.7001 105.951 73.736 105.951C73.7718 105.954 73.8058 105.956 73.838 105.956C73.9884 105.956 74.1227 105.94 74.2408 105.908C74.3626 105.879 74.47 105.827 74.5631 105.752C74.6598 105.677 74.7439 105.573 74.8155 105.44L75.4816 104.232ZM75.9703 99.1885L76.3893 103.346L76.255 105.172H75.1056L74.1388 99.1885H75.9703ZM86.2057 102.357L88.005 102.336C87.9549 102.93 87.7633 103.437 87.4303 103.856C87.1008 104.271 86.6837 104.586 86.1788 104.801C85.6775 105.016 85.1422 105.118 84.5729 105.107C84.0322 105.097 83.5774 104.986 83.2086 104.774C82.8398 104.56 82.5497 104.273 82.3385 103.915C82.1272 103.553 81.9876 103.149 81.9195 102.701C81.8515 102.25 81.8479 101.785 81.9088 101.305L81.9679 100.88C82.0395 100.383 82.172 99.9046 82.3653 99.4463C82.5587 98.9844 82.8111 98.5726 83.1227 98.2109C83.4378 97.8493 83.8119 97.5664 84.2452 97.3623C84.6785 97.1546 85.169 97.0562 85.7169 97.0669C86.3006 97.0776 86.7965 97.1994 87.2047 97.4321C87.6165 97.6649 87.9352 97.9907 88.1607 98.4097C88.3899 98.8286 88.5188 99.3228 88.5475 99.8921L86.7159 99.8867C86.7267 99.611 86.6998 99.3747 86.6354 99.1777C86.5709 98.9808 86.4563 98.8286 86.2916 98.7212C86.1305 98.6102 85.9031 98.5493 85.6095 98.5386C85.2908 98.5278 85.024 98.5941 84.8092 98.7373C84.5979 98.877 84.426 99.0649 84.2936 99.3013C84.1611 99.5376 84.059 99.7936 83.9874 100.069C83.9194 100.345 83.8674 100.612 83.8316 100.87L83.7779 101.31C83.7529 101.521 83.7296 101.759 83.7081 102.024C83.6866 102.286 83.6956 102.538 83.735 102.782C83.7744 103.022 83.8657 103.222 84.0089 103.383C84.1521 103.544 84.3759 103.63 84.6803 103.641C84.9667 103.648 85.2156 103.604 85.4269 103.507C85.6381 103.407 85.8082 103.26 85.9371 103.066C86.0696 102.869 86.1591 102.633 86.2057 102.357ZM90.805 105H89.0164L89.2796 103.55L90.8641 103.561C91.3117 103.561 91.6805 103.45 91.9706 103.228C92.2642 103.006 92.4915 102.717 92.6527 102.363C92.8174 102.008 92.9284 101.634 92.9857 101.24L93.0233 100.907C93.0555 100.671 93.0698 100.424 93.0663 100.166C93.0627 99.9046 93.0251 99.6611 92.9535 99.4355C92.8818 99.21 92.7601 99.0238 92.5882 98.877C92.4199 98.7301 92.1836 98.6514 91.8792 98.6406L90.0907 98.6353L90.3431 97.1797L91.9383 97.1851C92.4611 97.1958 92.9194 97.3032 93.3133 97.5073C93.7072 97.7078 94.0313 97.9818 94.2855 98.3291C94.5397 98.6729 94.7188 99.0667 94.8226 99.5107C94.9264 99.9548 94.9497 100.422 94.8924 100.913L94.8548 101.251C94.7868 101.774 94.64 102.264 94.4144 102.723C94.1888 103.177 93.8988 103.577 93.5443 103.92C93.1898 104.261 92.7798 104.527 92.3143 104.721C91.8524 104.91 91.3493 105.004 90.805 105ZM91.4334 97.1797L90.0746 105H88.2376L89.5912 97.1797H91.4334ZM99.6368 102.357L101.436 102.336C101.386 102.93 101.194 103.437 100.861 103.856C100.532 104.271 100.115 104.586 99.6099 104.801C99.1086 105.016 98.5733 105.118 98.004 105.107C97.4633 105.097 97.0085 104.986 96.6397 104.774C96.2709 104.56 95.9809 104.273 95.7696 103.915C95.5583 103.553 95.4187 103.149 95.3507 102.701C95.2826 102.25 95.279 101.785 95.3399 101.305L95.399 100.88C95.4706 100.383 95.6031 99.9046 95.7965 99.4463C95.9898 98.9844 96.2423 98.5726 96.5538 98.2109C96.8689 97.8493 97.2431 97.5664 97.6763 97.3623C98.1096 97.1546 98.6002 97.0562 99.148 97.0669C99.7317 97.0776 100.228 97.1994 100.636 97.4321C101.048 97.6649 101.366 97.9907 101.592 98.4097C101.821 98.8286 101.95 99.3228 101.979 99.8921L100.147 99.8867C100.158 99.611 100.131 99.3747 100.066 99.1777C100.002 98.9808 99.8874 98.8286 99.7227 98.7212C99.5616 98.6102 99.3342 98.5493 99.0406 98.5386C98.7219 98.5278 98.4552 98.5941 98.2403 98.7373C98.029 98.877 97.8572 99.0649 97.7247 99.3013C97.5922 99.5376 97.4901 99.7936 97.4185 100.069C97.3505 100.345 97.2986 100.612 97.2628 100.87L97.2091 101.31C97.184 101.521 97.1607 101.759 97.1392 102.024C97.1178 102.286 97.1267 102.538 97.1661 102.782C97.2055 103.022 97.2968 103.222 97.44 103.383C97.5832 103.544 97.807 103.63 98.1114 103.641C98.3979 103.648 98.6467 103.604 98.858 103.507C99.0692 103.407 99.2393 103.26 99.3682 103.066C99.5007 102.869 99.5902 102.633 99.6368 102.357ZM104.768 101.793L104.752 101.944C104.68 102.467 104.557 103.007 104.381 103.566C104.206 104.121 103.975 104.654 103.688 105.167C103.405 105.682 103.06 106.137 102.652 106.531C102.247 106.928 101.778 107.227 101.244 107.428L100.965 106.515C101.323 106.246 101.629 105.938 101.884 105.591C102.141 105.247 102.358 104.878 102.534 104.484C102.709 104.087 102.85 103.677 102.958 103.254C103.069 102.828 103.155 102.402 103.216 101.976L103.237 101.804C103.284 101.475 103.323 101.101 103.355 100.682C103.388 100.259 103.389 99.8312 103.361 99.3979C103.332 98.9647 103.246 98.5601 103.103 98.1841C102.963 97.8081 102.739 97.502 102.431 97.2656L102.829 96.374C103.298 96.6068 103.674 96.9326 103.957 97.3516C104.243 97.7669 104.455 98.2324 104.591 98.748C104.727 99.2637 104.804 99.7865 104.822 100.316C104.843 100.846 104.825 101.339 104.768 101.793Z" fill="#676767"/>
</svg>
