<svg width="119" height="19" viewBox="0 0 119 19" fill="none" xmlns="http://www.w3.org/2000/svg">
<path d="M9.835 13.3828C9.90531 13.0156 9.87797 12.7031 9.75297 12.4453C9.63578 12.1875 9.45609 11.9688 9.21391 11.7891C8.97953 11.6094 8.71 11.457 8.40531 11.332C8.10844 11.1992 7.81937 11.0781 7.53812 10.9688C6.92875 10.7266 6.32719 10.4531 5.73344 10.1484C5.13969 9.83594 4.60062 9.46875 4.11625 9.04688C3.63187 8.625 3.25297 8.13281 2.97953 7.57031C2.71391 7.00781 2.60062 6.34766 2.63969 5.58984C2.69437 4.72266 2.94047 3.97656 3.37797 3.35156C3.81547 2.72656 4.37406 2.21875 5.05375 1.82812C5.74125 1.42969 6.47953 1.14062 7.26859 0.960938C8.06547 0.773438 8.84281 0.6875 9.60062 0.703125C10.6787 0.71875 11.6397 0.9375 12.4834 1.35938C13.335 1.78125 14.003 2.38672 14.4873 3.17578C14.9717 3.95703 15.2061 4.90234 15.1905 6.01172H11.2178C11.2334 5.57422 11.1748 5.19531 11.042 4.875C10.917 4.54688 10.71 4.29297 10.4209 4.11328C10.1319 3.92578 9.75687 3.82813 9.29594 3.82031C8.91312 3.8125 8.53031 3.875 8.1475 4.00781C7.76469 4.13281 7.43266 4.32812 7.15141 4.59375C6.87016 4.85938 6.69047 5.20312 6.61234 5.625C6.55766 5.94531 6.60844 6.22656 6.76469 6.46875C6.92094 6.70312 7.13578 6.90625 7.40922 7.07812C7.68266 7.24219 7.96781 7.38281 8.26469 7.5C8.56937 7.61719 8.835 7.71875 9.06156 7.80469C9.70219 8.04688 10.3155 8.33203 10.9014 8.66016C11.4952 8.98047 12.0186 9.35938 12.4717 9.79688C12.9327 10.2344 13.2842 10.7461 13.5264 11.332C13.7764 11.9102 13.878 12.582 13.8311 13.3477C13.7686 14.2305 13.5342 14.9844 13.128 15.6094C12.7217 16.2344 12.1983 16.7422 11.5577 17.1328C10.917 17.5234 10.2139 17.8086 9.44828 17.9883C8.68266 18.168 7.90531 18.2539 7.11625 18.2461C6.23344 18.2305 5.40922 18.0977 4.64359 17.8477C3.87797 17.5898 3.21 17.2188 2.63969 16.7344C2.06937 16.2422 1.62797 15.6406 1.31547 14.9297C1.00297 14.2109 0.85453 13.3867 0.870155 12.457L4.88969 12.4688C4.86625 12.9062 4.89359 13.293 4.97172 13.6289C5.05766 13.957 5.19828 14.2344 5.39359 14.4609C5.59672 14.6797 5.85844 14.8477 6.17875 14.9648C6.49906 15.0742 6.88578 15.1289 7.33891 15.1289C7.72172 15.1289 8.08891 15.0703 8.44047 14.9531C8.79984 14.8281 9.10453 14.6367 9.35453 14.3789C9.60453 14.1211 9.76469 13.7891 9.835 13.3828ZM22.4153 14.7188L24.0442 5.32031H27.9114L25.7083 18H22.1106L22.4153 14.7188ZM23.1419 12.3281L24.138 12.3047C24.0598 13.0234 23.9036 13.7383 23.6692 14.4492C23.4348 15.1602 23.1106 15.8047 22.6966 16.3828C22.2825 16.9609 21.7669 17.4219 21.1497 17.7656C20.5403 18.1016 19.8177 18.2617 18.9817 18.2461C18.2864 18.2305 17.6966 18.0977 17.2122 17.8477C16.7356 17.5977 16.3528 17.2578 16.0637 16.8281C15.7747 16.3906 15.5794 15.8906 15.4778 15.3281C15.3762 14.7656 15.3567 14.1641 15.4192 13.5234L16.7903 5.32031H20.6458L19.2512 13.5703C19.2278 13.7969 19.2278 14.0078 19.2512 14.2031C19.2825 14.3984 19.3411 14.5703 19.427 14.7188C19.5208 14.8594 19.6497 14.9727 19.8137 15.0586C19.9778 15.1445 20.1887 15.1914 20.4466 15.1992C21.0325 15.2227 21.5091 15.1016 21.8762 14.8359C22.2434 14.5625 22.5247 14.2031 22.72 13.7578C22.9231 13.3125 23.0637 12.8359 23.1419 12.3281ZM33.1558 8.21484L31.4566 18H27.6011L29.8042 5.32031H33.4019L33.1558 8.21484ZM32.1948 11.2266L31.3628 11.2617C31.4409 10.5039 31.6011 9.75391 31.8433 9.01172C32.0933 8.26953 32.437 7.59766 32.8745 6.99609C33.312 6.39453 33.855 5.91797 34.5034 5.56641C35.1519 5.21484 35.9097 5.05078 36.7769 5.07422C37.4175 5.08984 37.9487 5.22656 38.3706 5.48438C38.7925 5.73438 39.1206 6.07031 39.355 6.49219C39.5972 6.90625 39.7534 7.37891 39.8237 7.91016C39.9019 8.43359 39.9136 8.97656 39.8589 9.53906L38.4527 18H34.5972L35.9214 10.0312C35.9605 9.70312 35.9683 9.39453 35.9448 9.10547C35.9214 8.81641 35.8277 8.58203 35.6636 8.40234C35.4995 8.21484 35.2222 8.11719 34.8316 8.10938C34.4097 8.09375 34.0464 8.18359 33.7417 8.37891C33.437 8.56641 33.1792 8.81641 32.9683 9.12891C32.7652 9.44141 32.5972 9.78125 32.4644 10.1484C32.3394 10.5156 32.2495 10.875 32.1948 11.2266ZM39.2144 11.2266L38.1948 11.2617C38.273 10.5039 38.4292 9.75781 38.6636 9.02344C38.9058 8.28125 39.2378 7.60938 39.6597 7.00781C40.0894 6.40625 40.6245 5.92969 41.2652 5.57812C41.9058 5.22656 42.6636 5.05859 43.5386 5.07422C44.2417 5.09766 44.8198 5.25 45.273 5.53125C45.7261 5.8125 46.0698 6.1875 46.3042 6.65625C46.5464 7.125 46.7027 7.64844 46.773 8.22656C46.8433 8.80469 46.8472 9.40234 46.7847 10.0195L45.4487 18H41.5816L42.9175 10.0078C42.9566 9.6875 42.9644 9.38672 42.9409 9.10547C42.9175 8.81641 42.8237 8.58203 42.6597 8.40234C42.5034 8.21484 42.2339 8.11719 41.8511 8.10938C41.4136 8.09375 41.0386 8.17969 40.7261 8.36719C40.4214 8.55469 40.1675 8.80469 39.9644 9.11719C39.7612 9.42188 39.6011 9.76172 39.4839 10.1367C39.3667 10.5039 39.2769 10.8672 39.2144 11.2266ZM52.9783 8.21484L51.2791 18H47.4236L49.6267 5.32031H53.2244L52.9783 8.21484ZM52.0173 11.2266L51.1853 11.2617C51.2634 10.5039 51.4236 9.75391 51.6658 9.01172C51.9158 8.26953 52.2595 7.59766 52.697 6.99609C53.1345 6.39453 53.6775 5.91797 54.3259 5.56641C54.9744 5.21484 55.7322 5.05078 56.5994 5.07422C57.24 5.08984 57.7712 5.22656 58.1931 5.48438C58.615 5.73438 58.9431 6.07031 59.1775 6.49219C59.4197 6.90625 59.5759 7.37891 59.6462 7.91016C59.7244 8.43359 59.7361 8.97656 59.6814 9.53906L58.2752 18H54.4197L55.7439 10.0312C55.783 9.70312 55.7908 9.39453 55.7673 9.10547C55.7439 8.81641 55.6502 8.58203 55.4861 8.40234C55.322 8.21484 55.0447 8.11719 54.6541 8.10938C54.2322 8.09375 53.8689 8.18359 53.5642 8.37891C53.2595 8.56641 53.0017 8.81641 52.7908 9.12891C52.5877 9.44141 52.4197 9.78125 52.2869 10.1484C52.1619 10.5156 52.072 10.875 52.0173 11.2266ZM59.0369 11.2266L58.0173 11.2617C58.0955 10.5039 58.2517 9.75781 58.4861 9.02344C58.7283 8.28125 59.0603 7.60938 59.4822 7.00781C59.9119 6.40625 60.447 5.92969 61.0877 5.57812C61.7283 5.22656 62.4861 5.05859 63.3611 5.07422C64.0642 5.09766 64.6423 5.25 65.0955 5.53125C65.5486 5.8125 65.8923 6.1875 66.1267 6.65625C66.3689 7.125 66.5252 7.64844 66.5955 8.22656C66.6658 8.80469 66.6697 9.40234 66.6072 10.0195L65.2712 18H61.4041L62.74 10.0078C62.7791 9.6875 62.7869 9.38672 62.7634 9.10547C62.74 8.81641 62.6462 8.58203 62.4822 8.40234C62.3259 8.21484 62.0564 8.11719 61.6736 8.10938C61.2361 8.09375 60.8611 8.17969 60.5486 8.36719C60.2439 8.55469 59.99 8.80469 59.7869 9.11719C59.5837 9.42188 59.4236 9.76172 59.3064 10.1367C59.1892 10.5039 59.0994 10.8672 59.0369 11.2266ZM74.1836 14.8125L75.0039 9.53906C75.0352 9.25781 75.0312 8.98828 74.9922 8.73047C74.9609 8.47266 74.8633 8.26172 74.6992 8.09766C74.543 7.92578 74.2969 7.83594 73.9609 7.82812C73.6562 7.82031 73.3984 7.875 73.1875 7.99219C72.9766 8.10938 72.8086 8.27344 72.6836 8.48438C72.5586 8.69531 72.4688 8.9375 72.4141 9.21094L68.5469 9.23438C68.5781 8.5 68.7734 7.86719 69.1328 7.33594C69.4922 6.80469 69.9531 6.37109 70.5156 6.03516C71.0781 5.69922 71.6914 5.45312 72.3555 5.29688C73.0273 5.14062 73.6875 5.07031 74.3359 5.08594C75.2266 5.10156 76.0312 5.28906 76.75 5.64844C77.4766 6 78.0352 6.51172 78.4258 7.18359C78.8242 7.84766 78.9766 8.65625 78.8828 9.60938L78.0508 14.8125C77.9805 15.2812 77.918 15.7812 77.8633 16.3125C77.8086 16.8359 77.8867 17.3242 78.0977 17.7773L78.0859 18L74.3242 18.0117C74.1523 17.5039 74.0664 16.9766 74.0664 16.4297C74.0664 15.8828 74.1055 15.3438 74.1836 14.8125ZM75.4375 10.2539L75.0859 12.3633L73.5742 12.3516C73.2773 12.3594 72.9922 12.4102 72.7188 12.5039C72.4531 12.5898 72.2148 12.7148 72.0039 12.8789C71.793 13.043 71.6172 13.2461 71.4766 13.4883C71.3438 13.7305 71.2578 14.0078 71.2188 14.3203C71.1875 14.5312 71.2031 14.7227 71.2656 14.8945C71.3359 15.0586 71.4414 15.1914 71.582 15.293C71.7305 15.3945 71.9141 15.4492 72.1328 15.457C72.4688 15.4648 72.793 15.4023 73.1055 15.2695C73.418 15.1367 73.6875 14.9492 73.9141 14.707C74.1484 14.4648 74.3086 14.1836 74.3945 13.8633L75.0742 15.5156C74.8711 15.9219 74.6367 16.293 74.3711 16.6289C74.1133 16.9648 73.8203 17.2578 73.4922 17.5078C73.1719 17.75 72.8125 17.9375 72.4141 18.0703C72.0156 18.2031 71.5742 18.2656 71.0898 18.2578C70.3945 18.2422 69.7539 18.0742 69.168 17.7539C68.582 17.4336 68.1172 16.9961 67.7734 16.4414C67.4297 15.8867 67.2695 15.2461 67.293 14.5195C67.3242 13.6758 67.5312 12.9766 67.9141 12.4219C68.2969 11.8672 68.793 11.4336 69.4023 11.1211C70.0195 10.8008 70.6875 10.5742 71.4062 10.4414C72.1328 10.3086 72.8516 10.2422 73.5625 10.2422L75.4375 10.2539ZM84.8538 8.67188L83.2366 18H79.3811L81.5842 5.32031H85.1702L84.8538 8.67188ZM89.0022 5.21484L88.4983 8.89453C88.2952 8.86328 88.092 8.83594 87.8889 8.8125C87.6858 8.78906 87.4788 8.77344 87.2678 8.76562C86.8381 8.75781 86.4475 8.80859 86.0959 8.91797C85.7522 9.01953 85.4514 9.17969 85.1936 9.39844C84.9436 9.60938 84.7366 9.875 84.5725 10.1953C84.4084 10.5156 84.2873 10.8867 84.2092 11.3086L83.5647 10.8398C83.6428 10.2461 83.7678 9.61719 83.9397 8.95312C84.1194 8.28125 84.3694 7.64844 84.6897 7.05469C85.01 6.46094 85.4241 5.98047 85.9319 5.61328C86.4397 5.23828 87.0647 5.05078 87.8069 5.05078C88.01 5.05078 88.2092 5.06641 88.4045 5.09766C88.5998 5.12891 88.7991 5.16797 89.0022 5.21484ZM94.2114 5.32031L92.02 18H88.1528L90.3559 5.32031H94.2114ZM90.6958 2.12109C90.6802 1.51172 90.8833 1.02734 91.3052 0.667969C91.7348 0.308594 92.2387 0.125 92.8169 0.117188C93.3716 0.109375 93.8637 0.273437 94.2934 0.609375C94.7231 0.9375 94.9419 1.39453 94.9497 1.98047C94.9653 2.58984 94.7583 3.07422 94.3286 3.43359C93.9067 3.79297 93.4067 3.97656 92.8286 3.98438C92.2739 3.99219 91.7817 3.83203 91.352 3.50391C90.9302 3.16797 90.7114 2.70703 90.6958 2.12109ZM104.776 14.9531L104.249 18H94.698L95.2253 14.9531H104.776ZM105.936 7.62891L96.5612 18H93.7839L94.1941 15.6328L103.546 5.32031H106.335L105.936 7.62891ZM105.069 5.32031L104.542 8.36719H95.6823L96.2097 5.32031H105.069ZM111.954 18.2344C111.079 18.2188 110.282 18.0586 109.563 17.7539C108.845 17.4414 108.235 17.0117 107.735 16.4648C107.235 15.918 106.864 15.2773 106.622 14.543C106.388 13.8008 106.302 12.9922 106.364 12.1172L106.411 11.6602C106.505 10.7383 106.724 9.87891 107.067 9.08203C107.411 8.27734 107.872 7.57422 108.45 6.97266C109.028 6.36328 109.708 5.89062 110.489 5.55469C111.278 5.21875 112.161 5.0625 113.138 5.08594C114.02 5.10156 114.782 5.27734 115.423 5.61328C116.071 5.94922 116.599 6.40625 117.005 6.98438C117.411 7.55469 117.692 8.21094 117.849 8.95312C118.013 9.6875 118.052 10.4688 117.966 11.2969L117.743 12.9023H107.665L108.063 10.4297L114.274 10.4414L114.345 10.1016C114.399 9.73438 114.384 9.40234 114.298 9.10547C114.212 8.80859 114.052 8.57422 113.817 8.40234C113.583 8.22266 113.267 8.125 112.868 8.10938C112.384 8.10156 111.981 8.20703 111.661 8.42578C111.349 8.64453 111.095 8.93359 110.899 9.29297C110.712 9.65234 110.567 10.043 110.466 10.4648C110.364 10.8789 110.29 11.2773 110.243 11.6602L110.196 12.1055C110.165 12.4883 110.177 12.8594 110.231 13.2188C110.286 13.5781 110.395 13.9023 110.56 14.1914C110.731 14.4805 110.962 14.7148 111.251 14.8945C111.54 15.0664 111.903 15.1602 112.341 15.1758C112.927 15.1914 113.474 15.082 113.981 14.8477C114.489 14.6133 114.946 14.293 115.353 13.8867L116.958 16.0195C116.606 16.5508 116.153 16.9805 115.599 17.3086C115.044 17.6289 114.446 17.8633 113.806 18.0117C113.173 18.168 112.556 18.2422 111.954 18.2344Z" fill="black"/>
</svg>
