<svg width="310" height="24" viewBox="0 0 310 24" fill="none" xmlns="http://www.w3.org/2000/svg">
<path d="M9.64734 13.3828C9.71765 13.0156 9.69031 12.7031 9.56531 12.4453C9.44812 12.1875 9.26843 11.9688 9.02625 11.7891C8.79187 11.6094 8.52234 11.457 8.21765 11.332C7.92078 11.1992 7.63171 11.0781 7.35046 10.9688C6.74109 10.7266 6.13953 10.4531 5.54578 10.1484C4.95203 9.83594 4.41296 9.46875 3.92859 9.04688C3.44421 8.625 3.06531 8.13281 2.79187 7.57031C2.52625 7.00781 2.41296 6.34766 2.45203 5.58984C2.50671 4.72266 2.75281 3.97656 3.19031 3.35156C3.62781 2.72656 4.1864 2.21875 4.86609 1.82812C5.55359 1.42969 6.29187 1.14062 7.08093 0.960938C7.87781 0.773438 8.65515 0.6875 9.41296 0.703125C10.4911 0.71875 11.452 0.9375 12.2958 1.35938C13.1473 1.78125 13.8153 2.38672 14.2997 3.17578C14.7841 3.95703 15.0184 4.90234 15.0028 6.01172H11.0302C11.0458 5.57422 10.9872 5.19531 10.8544 4.875C10.7294 4.54688 10.5223 4.29297 10.2333 4.11328C9.94421 3.92578 9.56921 3.82813 9.10828 3.82031C8.72546 3.8125 8.34265 3.875 7.95984 4.00781C7.57703 4.13281 7.245 4.32812 6.96375 4.59375C6.6825 4.85938 6.50281 5.20312 6.42468 5.625C6.37 5.94531 6.42078 6.22656 6.57703 6.46875C6.73328 6.70312 6.94812 6.90625 7.22156 7.07812C7.495 7.24219 7.78015 7.38281 8.07703 7.5C8.38171 7.61719 8.64734 7.71875 8.8739 7.80469C9.51453 8.04688 10.1278 8.33203 10.7137 8.66016C11.3075 8.98047 11.8309 9.35938 12.2841 9.79688C12.745 10.2344 13.0966 10.7461 13.3387 11.332C13.5887 11.9102 13.6903 12.582 13.6434 13.3477C13.5809 14.2305 13.3466 14.9844 12.9403 15.6094C12.5341 16.2344 12.0106 16.7422 11.37 17.1328C10.7294 17.5234 10.0262 17.8086 9.26062 17.9883C8.495 18.168 7.71765 18.2539 6.92859 18.2461C6.04578 18.2305 5.22156 18.0977 4.45593 17.8477C3.69031 17.5898 3.02234 17.2188 2.45203 16.7344C1.88171 16.2422 1.44031 15.6406 1.12781 14.9297C0.815308 14.2109 0.66687 13.3867 0.682495 12.457L4.70203 12.4688C4.67859 12.9062 4.70593 13.293 4.78406 13.6289C4.87 13.957 5.01062 14.2344 5.20593 14.4609C5.40906 14.6797 5.67078 14.8477 5.99109 14.9648C6.3114 15.0742 6.69812 15.1289 7.15125 15.1289C7.53406 15.1289 7.90125 15.0703 8.25281 14.9531C8.61218 14.8281 8.91687 14.6367 9.16687 14.3789C9.41687 14.1211 9.57703 13.7891 9.64734 13.3828ZM22.2277 14.7188L23.8566 5.32031H27.7237L25.5206 18H21.923L22.2277 14.7188ZM22.9542 12.3281L23.9503 12.3047C23.8722 13.0234 23.7159 13.7383 23.4816 14.4492C23.2472 15.1602 22.923 15.8047 22.5089 16.3828C22.0948 16.9609 21.5792 17.4219 20.962 17.7656C20.3527 18.1016 19.63 18.2617 18.7941 18.2461C18.0987 18.2305 17.5089 18.0977 17.0245 17.8477C16.548 17.5977 16.1652 17.2578 15.8761 16.8281C15.587 16.3906 15.3917 15.8906 15.2902 15.3281C15.1886 14.7656 15.1691 14.1641 15.2316 13.5234L16.6027 5.32031H20.4581L19.0636 13.5703C19.0402 13.7969 19.0402 14.0078 19.0636 14.2031C19.0948 14.3984 19.1534 14.5703 19.2394 14.7188C19.3331 14.8594 19.462 14.9727 19.6261 15.0586C19.7902 15.1445 20.0011 15.1914 20.2589 15.1992C20.8448 15.2227 21.3214 15.1016 21.6886 14.8359C22.0558 14.5625 22.337 14.2031 22.5323 13.7578C22.7355 13.3125 22.8761 12.8359 22.9542 12.3281ZM32.9681 8.21484L31.2689 18H27.4134L29.6166 5.32031H33.2142L32.9681 8.21484ZM32.0072 11.2266L31.1752 11.2617C31.2533 10.5039 31.4134 9.75391 31.6556 9.01172C31.9056 8.26953 32.2494 7.59766 32.6869 6.99609C33.1244 6.39453 33.6673 5.91797 34.3158 5.56641C34.9642 5.21484 35.722 5.05078 36.5892 5.07422C37.2298 5.08984 37.7611 5.22656 38.183 5.48438C38.6048 5.73438 38.933 6.07031 39.1673 6.49219C39.4095 6.90625 39.5658 7.37891 39.6361 7.91016C39.7142 8.43359 39.7259 8.97656 39.6712 9.53906L38.265 18H34.4095L35.7337 10.0312C35.7728 9.70312 35.7806 9.39453 35.7572 9.10547C35.7337 8.81641 35.64 8.58203 35.4759 8.40234C35.3119 8.21484 35.0345 8.11719 34.6439 8.10938C34.222 8.09375 33.8587 8.18359 33.5541 8.37891C33.2494 8.56641 32.9916 8.81641 32.7806 9.12891C32.5775 9.44141 32.4095 9.78125 32.2767 10.1484C32.1517 10.5156 32.0619 10.875 32.0072 11.2266ZM39.0267 11.2266L38.0072 11.2617C38.0853 10.5039 38.2416 9.75781 38.4759 9.02344C38.7181 8.28125 39.0502 7.60938 39.472 7.00781C39.9017 6.40625 40.4369 5.92969 41.0775 5.57812C41.7181 5.22656 42.4759 5.05859 43.3509 5.07422C44.0541 5.09766 44.6322 5.25 45.0853 5.53125C45.5384 5.8125 45.8822 6.1875 46.1166 6.65625C46.3587 7.125 46.515 7.64844 46.5853 8.22656C46.6556 8.80469 46.6595 9.40234 46.597 10.0195L45.2611 18H41.3939L42.7298 10.0078C42.7689 9.6875 42.7767 9.38672 42.7533 9.10547C42.7298 8.81641 42.6361 8.58203 42.472 8.40234C42.3158 8.21484 42.0462 8.11719 41.6634 8.10938C41.2259 8.09375 40.8509 8.17969 40.5384 8.36719C40.2337 8.55469 39.9798 8.80469 39.7767 9.11719C39.5736 9.42188 39.4134 9.76172 39.2962 10.1367C39.1791 10.5039 39.0892 10.8672 39.0267 11.2266ZM52.7906 8.21484L51.0914 18H47.2359L49.4391 5.32031H53.0367L52.7906 8.21484ZM51.8297 11.2266L50.9977 11.2617C51.0758 10.5039 51.2359 9.75391 51.4781 9.01172C51.7281 8.26953 52.0719 7.59766 52.5094 6.99609C52.9469 6.39453 53.4898 5.91797 54.1383 5.56641C54.7867 5.21484 55.5445 5.05078 56.4117 5.07422C57.0523 5.08984 57.5836 5.22656 58.0055 5.48438C58.4273 5.73438 58.7555 6.07031 58.9898 6.49219C59.232 6.90625 59.3883 7.37891 59.4586 7.91016C59.5367 8.43359 59.5484 8.97656 59.4937 9.53906L58.0875 18H54.232L55.5562 10.0312C55.5953 9.70312 55.6031 9.39453 55.5797 9.10547C55.5562 8.81641 55.4625 8.58203 55.2984 8.40234C55.1344 8.21484 54.857 8.11719 54.4664 8.10938C54.0445 8.09375 53.6812 8.18359 53.3766 8.37891C53.0719 8.56641 52.8141 8.81641 52.6031 9.12891C52.4 9.44141 52.232 9.78125 52.0992 10.1484C51.9742 10.5156 51.8844 10.875 51.8297 11.2266ZM58.8492 11.2266L57.8297 11.2617C57.9078 10.5039 58.0641 9.75781 58.2984 9.02344C58.5406 8.28125 58.8727 7.60938 59.2945 7.00781C59.7242 6.40625 60.2594 5.92969 60.9 5.57812C61.5406 5.22656 62.2984 5.05859 63.1734 5.07422C63.8766 5.09766 64.4547 5.25 64.9078 5.53125C65.3609 5.8125 65.7047 6.1875 65.9391 6.65625C66.1812 7.125 66.3375 7.64844 66.4078 8.22656C66.4781 8.80469 66.482 9.40234 66.4195 10.0195L65.0836 18H61.2164L62.5523 10.0078C62.5914 9.6875 62.5992 9.38672 62.5758 9.10547C62.5523 8.81641 62.4586 8.58203 62.2945 8.40234C62.1383 8.21484 61.8687 8.11719 61.4859 8.10938C61.0484 8.09375 60.6734 8.17969 60.3609 8.36719C60.0562 8.55469 59.8023 8.80469 59.5992 9.11719C59.3961 9.42188 59.2359 9.76172 59.1187 10.1367C59.0016 10.5039 58.9117 10.8672 58.8492 11.2266ZM73.9959 14.8125L74.8162 9.53906C74.8475 9.25781 74.8436 8.98828 74.8045 8.73047C74.7733 8.47266 74.6756 8.26172 74.5116 8.09766C74.3553 7.92578 74.1092 7.83594 73.7733 7.82812C73.4686 7.82031 73.2108 7.875 72.9998 7.99219C72.7889 8.10938 72.6209 8.27344 72.4959 8.48438C72.3709 8.69531 72.2811 8.9375 72.2264 9.21094L68.3592 9.23438C68.3905 8.5 68.5858 7.86719 68.9452 7.33594C69.3045 6.80469 69.7655 6.37109 70.328 6.03516C70.8905 5.69922 71.5037 5.45312 72.1678 5.29688C72.8397 5.14062 73.4998 5.07031 74.1483 5.08594C75.0389 5.10156 75.8436 5.28906 76.5623 5.64844C77.2889 6 77.8475 6.51172 78.2381 7.18359C78.6366 7.84766 78.7889 8.65625 78.6952 9.60938L77.8631 14.8125C77.7928 15.2812 77.7303 15.7812 77.6756 16.3125C77.6209 16.8359 77.6991 17.3242 77.91 17.7773L77.8983 18L74.1366 18.0117C73.9647 17.5039 73.8787 16.9766 73.8787 16.4297C73.8787 15.8828 73.9178 15.3438 73.9959 14.8125ZM75.2498 10.2539L74.8983 12.3633L73.3866 12.3516C73.0897 12.3594 72.8045 12.4102 72.5311 12.5039C72.2655 12.5898 72.0272 12.7148 71.8162 12.8789C71.6053 13.043 71.4295 13.2461 71.2889 13.4883C71.1561 13.7305 71.0702 14.0078 71.0311 14.3203C70.9998 14.5312 71.0155 14.7227 71.078 14.8945C71.1483 15.0586 71.2537 15.1914 71.3944 15.293C71.5428 15.3945 71.7264 15.4492 71.9452 15.457C72.2811 15.4648 72.6053 15.4023 72.9178 15.2695C73.2303 15.1367 73.4998 14.9492 73.7264 14.707C73.9608 14.4648 74.1209 14.1836 74.2069 13.8633L74.8866 15.5156C74.6834 15.9219 74.4491 16.293 74.1834 16.6289C73.9256 16.9648 73.6327 17.2578 73.3045 17.5078C72.9842 17.75 72.6248 17.9375 72.2264 18.0703C71.828 18.2031 71.3866 18.2656 70.9022 18.2578C70.2069 18.2422 69.5662 18.0742 68.9803 17.7539C68.3944 17.4336 67.9295 16.9961 67.5858 16.4414C67.242 15.8867 67.0819 15.2461 67.1053 14.5195C67.1366 13.6758 67.3436 12.9766 67.7264 12.4219C68.1092 11.8672 68.6053 11.4336 69.2147 11.1211C69.8319 10.8008 70.4998 10.5742 71.2186 10.4414C71.9452 10.3086 72.6639 10.2422 73.3748 10.2422L75.2498 10.2539ZM84.6661 8.67188L83.0489 18H79.1934L81.3966 5.32031H84.9825L84.6661 8.67188ZM88.8145 5.21484L88.3106 8.89453C88.1075 8.86328 87.9044 8.83594 87.7012 8.8125C87.4981 8.78906 87.2911 8.77344 87.0802 8.76562C86.6505 8.75781 86.2598 8.80859 85.9083 8.91797C85.5645 9.01953 85.2637 9.17969 85.0059 9.39844C84.7559 9.60938 84.5489 9.875 84.3848 10.1953C84.2208 10.5156 84.0997 10.8867 84.0216 11.3086L83.377 10.8398C83.4552 10.2461 83.5802 9.61719 83.752 8.95312C83.9317 8.28125 84.1817 7.64844 84.502 7.05469C84.8223 6.46094 85.2364 5.98047 85.7442 5.61328C86.252 5.23828 86.877 5.05078 87.6192 5.05078C87.8223 5.05078 88.0216 5.06641 88.2169 5.09766C88.4122 5.12891 88.6114 5.16797 88.8145 5.21484ZM94.0237 5.32031L91.8323 18H87.9651L90.1683 5.32031H94.0237ZM90.5081 2.12109C90.4925 1.51172 90.6956 1.02734 91.1175 0.667969C91.5472 0.308594 92.0511 0.125 92.6292 0.117188C93.1839 0.109375 93.6761 0.273437 94.1058 0.609375C94.5355 0.9375 94.7542 1.39453 94.762 1.98047C94.7776 2.58984 94.5706 3.07422 94.1409 3.43359C93.7191 3.79297 93.2191 3.97656 92.6409 3.98438C92.0862 3.99219 91.5941 3.83203 91.1644 3.50391C90.7425 3.16797 90.5237 2.70703 90.5081 2.12109ZM104.588 14.9531L104.061 18H94.5103L95.0377 14.9531H104.588ZM105.749 7.62891L96.3736 18H93.5962L94.0064 15.6328L103.358 5.32031H106.147L105.749 7.62891ZM104.881 5.32031L104.354 8.36719H95.4947L96.022 5.32031H104.881ZM111.766 18.2344C110.891 18.2188 110.095 18.0586 109.376 17.7539C108.657 17.4414 108.048 17.0117 107.548 16.4648C107.048 15.918 106.677 15.2773 106.434 14.543C106.2 13.8008 106.114 12.9922 106.177 12.1172L106.223 11.6602C106.317 10.7383 106.536 9.87891 106.88 9.08203C107.223 8.27734 107.684 7.57422 108.262 6.97266C108.841 6.36328 109.52 5.89062 110.302 5.55469C111.091 5.21875 111.973 5.0625 112.95 5.08594C113.833 5.10156 114.595 5.27734 115.235 5.61328C115.884 5.94922 116.411 6.40625 116.817 6.98438C117.223 7.55469 117.505 8.21094 117.661 8.95312C117.825 9.6875 117.864 10.4688 117.778 11.2969L117.555 12.9023H107.477L107.876 10.4297L114.087 10.4414L114.157 10.1016C114.212 9.73438 114.196 9.40234 114.11 9.10547C114.024 8.80859 113.864 8.57422 113.63 8.40234C113.395 8.22266 113.079 8.125 112.68 8.10938C112.196 8.10156 111.794 8.20703 111.473 8.42578C111.161 8.64453 110.907 8.93359 110.712 9.29297C110.524 9.65234 110.38 10.043 110.278 10.4648C110.177 10.8789 110.102 11.2773 110.055 11.6602L110.009 12.1055C109.977 12.4883 109.989 12.8594 110.044 13.2188C110.098 13.5781 110.208 13.9023 110.372 14.1914C110.544 14.4805 110.774 14.7148 111.063 14.8945C111.352 15.0664 111.716 15.1602 112.153 15.1758C112.739 15.1914 113.286 15.082 113.794 14.8477C114.302 14.6133 114.759 14.293 115.165 13.8867L116.77 16.0195C116.419 16.5508 115.966 16.9805 115.411 17.3086C114.856 17.6289 114.259 17.8633 113.618 18.0117C112.985 18.168 112.368 18.2422 111.766 18.2344ZM131.654 12.2227L127.318 12.2109L127.868 9.03516L131.794 9.04688C132.302 9.04688 132.767 8.95703 133.189 8.77734C133.611 8.58984 133.958 8.32031 134.232 7.96875C134.505 7.61719 134.681 7.17969 134.759 6.65625C134.829 6.22656 134.818 5.82422 134.724 5.44922C134.63 5.07422 134.447 4.76562 134.173 4.52344C133.9 4.28125 133.525 4.14844 133.048 4.125L130.247 4.11328L127.833 18H123.825L126.779 0.9375L133.177 0.949219C134.294 0.972656 135.294 1.21484 136.177 1.67578C137.06 2.13672 137.743 2.78516 138.228 3.62109C138.712 4.45703 138.907 5.46094 138.814 6.63281C138.712 7.89844 138.31 8.94531 137.607 9.77344C136.911 10.6016 136.036 11.2188 134.982 11.625C133.935 12.0234 132.825 12.2227 131.654 12.2227ZM145.757 0L142.64 18H138.773L141.89 0H145.757ZM151.693 14.8125L152.513 9.53906C152.545 9.25781 152.541 8.98828 152.502 8.73047C152.47 8.47266 152.373 8.26172 152.209 8.09766C152.052 7.92578 151.806 7.83594 151.47 7.82812C151.166 7.82031 150.908 7.875 150.697 7.99219C150.486 8.10938 150.318 8.27344 150.193 8.48438C150.068 8.69531 149.978 8.9375 149.924 9.21094L146.056 9.23438C146.088 8.5 146.283 7.86719 146.642 7.33594C147.002 6.80469 147.463 6.37109 148.025 6.03516C148.588 5.69922 149.201 5.45312 149.865 5.29688C150.537 5.14062 151.197 5.07031 151.845 5.08594C152.736 5.10156 153.541 5.28906 154.26 5.64844C154.986 6 155.545 6.51172 155.935 7.18359C156.334 7.84766 156.486 8.65625 156.392 9.60938L155.56 14.8125C155.49 15.2812 155.427 15.7812 155.373 16.3125C155.318 16.8359 155.396 17.3242 155.607 17.7773L155.595 18L151.834 18.0117C151.662 17.5039 151.576 16.9766 151.576 16.4297C151.576 15.8828 151.615 15.3438 151.693 14.8125ZM152.947 10.2539L152.595 12.3633L151.084 12.3516C150.787 12.3594 150.502 12.4102 150.228 12.5039C149.963 12.5898 149.724 12.7148 149.513 12.8789C149.302 13.043 149.127 13.2461 148.986 13.4883C148.853 13.7305 148.767 14.0078 148.728 14.3203C148.697 14.5312 148.713 14.7227 148.775 14.8945C148.845 15.0586 148.951 15.1914 149.092 15.293C149.24 15.3945 149.424 15.4492 149.642 15.457C149.978 15.4648 150.302 15.4023 150.615 15.2695C150.927 15.1367 151.197 14.9492 151.424 14.707C151.658 14.4648 151.818 14.1836 151.904 13.8633L152.584 15.5156C152.381 15.9219 152.146 16.293 151.881 16.6289C151.623 16.9648 151.33 17.2578 151.002 17.5078C150.681 17.75 150.322 17.9375 149.924 18.0703C149.525 18.2031 149.084 18.2656 148.599 18.2578C147.904 18.2422 147.263 18.0742 146.677 17.7539C146.092 17.4336 145.627 16.9961 145.283 16.4414C144.939 15.8867 144.779 15.2461 144.802 14.5195C144.834 13.6758 145.041 12.9766 145.424 12.4219C145.806 11.8672 146.302 11.4336 146.912 11.1211C147.529 10.8008 148.197 10.5742 148.916 10.4414C149.642 10.3086 150.361 10.2422 151.072 10.2422L152.947 10.2539ZM162.34 8.23828L160.641 18H156.785L158.988 5.32031H162.586L162.34 8.23828ZM161.379 11.2266L160.582 11.2734C160.652 10.5156 160.809 9.76562 161.051 9.02344C161.293 8.27344 161.629 7.59766 162.059 6.99609C162.496 6.39453 163.035 5.92188 163.676 5.57812C164.324 5.22656 165.086 5.05859 165.961 5.07422C166.672 5.09766 167.254 5.25 167.707 5.53125C168.168 5.8125 168.52 6.1875 168.762 6.65625C169.004 7.11719 169.156 7.64062 169.219 8.22656C169.289 8.80469 169.293 9.40234 169.23 10.0195L167.895 18H164.016L165.363 9.98438C165.402 9.61719 165.391 9.29297 165.328 9.01172C165.273 8.73047 165.141 8.51172 164.93 8.35547C164.727 8.19922 164.422 8.11719 164.016 8.10938C163.562 8.10156 163.18 8.1875 162.867 8.36719C162.562 8.54688 162.309 8.79297 162.105 9.10547C161.91 9.41016 161.754 9.75 161.637 10.125C161.527 10.4922 161.441 10.8594 161.379 11.2266ZM175.248 8.23828L173.549 18H169.694L171.897 5.32031H175.494L175.248 8.23828ZM174.287 11.2266L173.49 11.2734C173.561 10.5156 173.717 9.76562 173.959 9.02344C174.201 8.27344 174.537 7.59766 174.967 6.99609C175.405 6.39453 175.944 5.92188 176.584 5.57812C177.233 5.22656 177.994 5.05859 178.869 5.07422C179.58 5.09766 180.162 5.25 180.615 5.53125C181.076 5.8125 181.428 6.1875 181.67 6.65625C181.912 7.11719 182.065 7.64062 182.127 8.22656C182.197 8.80469 182.201 9.40234 182.139 10.0195L180.803 18H176.924L178.272 9.98438C178.311 9.61719 178.299 9.29297 178.237 9.01172C178.182 8.73047 178.049 8.51172 177.838 8.35547C177.635 8.19922 177.33 8.11719 176.924 8.10938C176.471 8.10156 176.088 8.1875 175.776 8.36719C175.471 8.54688 175.217 8.79297 175.014 9.10547C174.819 9.41016 174.662 9.75 174.545 10.125C174.436 10.4922 174.35 10.8594 174.287 11.2266ZM188.942 5.32031L186.75 18H182.883L185.086 5.32031H188.942ZM185.426 2.12109C185.411 1.51172 185.614 1.02734 186.036 0.667969C186.465 0.308594 186.969 0.125 187.547 0.117188C188.102 0.109375 188.594 0.273437 189.024 0.609375C189.454 0.9375 189.672 1.39453 189.68 1.98047C189.696 2.58984 189.489 3.07422 189.059 3.43359C188.637 3.79297 188.137 3.97656 187.559 3.98438C187.004 3.99219 186.512 3.83203 186.082 3.50391C185.661 3.16797 185.442 2.70703 185.426 2.12109ZM194.315 8.23828L192.616 18H188.76L190.964 5.32031H194.561L194.315 8.23828ZM193.354 11.2266L192.557 11.2734C192.628 10.5156 192.784 9.76562 193.026 9.02344C193.268 8.27344 193.604 7.59766 194.034 6.99609C194.471 6.39453 195.01 5.92188 195.651 5.57812C196.3 5.22656 197.061 5.05859 197.936 5.07422C198.647 5.09766 199.229 5.25 199.682 5.53125C200.143 5.8125 200.495 6.1875 200.737 6.65625C200.979 7.11719 201.132 7.64062 201.194 8.22656C201.264 8.80469 201.268 9.40234 201.206 10.0195L199.87 18H195.991L197.339 9.98438C197.378 9.61719 197.366 9.29297 197.303 9.01172C197.249 8.73047 197.116 8.51172 196.905 8.35547C196.702 8.19922 196.397 8.11719 195.991 8.10938C195.538 8.10156 195.155 8.1875 194.842 8.36719C194.538 8.54688 194.284 8.79297 194.081 9.10547C193.885 9.41016 193.729 9.75 193.612 10.125C193.503 10.4922 193.417 10.8594 193.354 11.2266ZM211.642 5.32031H215.181L213.106 17.4961C212.942 18.7148 212.528 19.7344 211.864 20.5547C211.208 21.3828 210.38 22.0039 209.38 22.418C208.38 22.832 207.286 23.0234 206.099 22.9922C205.536 22.9844 204.981 22.9062 204.435 22.7578C203.895 22.6094 203.384 22.3906 202.899 22.1016C202.415 21.8203 201.985 21.4648 201.61 21.0352L203.438 18.7617C203.774 19.1836 204.165 19.5078 204.61 19.7344C205.063 19.9609 205.56 20.0781 206.099 20.0859C206.653 20.1016 207.145 20.0039 207.575 19.793C208.013 19.582 208.372 19.2812 208.653 18.8906C208.935 18.5 209.126 18.0312 209.227 17.4844L210.821 8.12109L211.642 5.32031ZM202.384 11.8945L202.419 11.6484C202.513 10.8516 202.7 10.0586 202.981 9.26953C203.263 8.48047 203.642 7.76562 204.118 7.125C204.602 6.48438 205.188 5.98047 205.876 5.61328C206.571 5.23828 207.38 5.0625 208.302 5.08594C209.153 5.10938 209.833 5.32812 210.341 5.74219C210.856 6.15625 211.243 6.6875 211.501 7.33594C211.759 7.98438 211.927 8.68359 212.005 9.43359C212.083 10.1758 212.11 10.8906 212.087 11.5781L212.063 11.8828C211.938 12.5625 211.731 13.2773 211.442 14.0273C211.161 14.7773 210.794 15.4766 210.341 16.125C209.895 16.7734 209.356 17.2969 208.724 17.6953C208.099 18.0859 207.38 18.2695 206.567 18.2461C205.716 18.2305 205.005 18.0312 204.435 17.6484C203.864 17.2578 203.415 16.7539 203.087 16.1367C202.767 15.5117 202.552 14.832 202.442 14.0977C202.333 13.3555 202.313 12.6211 202.384 11.8945ZM206.274 11.6484L206.251 11.8945C206.22 12.1992 206.204 12.5391 206.204 12.9141C206.212 13.2812 206.263 13.6367 206.356 13.9805C206.45 14.3242 206.61 14.6094 206.837 14.8359C207.063 15.0625 207.38 15.1836 207.786 15.1992C208.388 15.2305 208.884 15.1055 209.274 14.8242C209.665 14.543 209.966 14.1719 210.177 13.7109C210.388 13.2422 210.524 12.7461 210.587 12.2227L210.692 11.2852C210.731 10.9336 210.751 10.5781 210.751 10.2188C210.759 9.85156 210.712 9.51172 210.61 9.19922C210.517 8.88672 210.349 8.63281 210.106 8.4375C209.864 8.23438 209.517 8.12891 209.063 8.12109C208.602 8.10547 208.204 8.21094 207.868 8.4375C207.54 8.65625 207.267 8.94531 207.048 9.30469C206.829 9.66406 206.657 10.0508 206.532 10.4648C206.407 10.8789 206.321 11.2734 206.274 11.6484ZM230.111 13.3828C230.181 13.0156 230.154 12.7031 230.029 12.4453C229.912 12.1875 229.732 11.9688 229.49 11.7891C229.255 11.6094 228.986 11.457 228.681 11.332C228.384 11.1992 228.095 11.0781 227.814 10.9688C227.205 10.7266 226.603 10.4531 226.009 10.1484C225.415 9.83594 224.876 9.46875 224.392 9.04688C223.908 8.625 223.529 8.13281 223.255 7.57031C222.99 7.00781 222.876 6.34766 222.915 5.58984C222.97 4.72266 223.216 3.97656 223.654 3.35156C224.091 2.72656 224.65 2.21875 225.33 1.82812C226.017 1.42969 226.755 1.14062 227.544 0.960938C228.341 0.773438 229.119 0.6875 229.876 0.703125C230.955 0.71875 231.915 0.9375 232.759 1.35938C233.611 1.78125 234.279 2.38672 234.763 3.17578C235.247 3.95703 235.482 4.90234 235.466 6.01172H231.494C231.509 5.57422 231.451 5.19531 231.318 4.875C231.193 4.54688 230.986 4.29297 230.697 4.11328C230.408 3.92578 230.033 3.82813 229.572 3.82031C229.189 3.8125 228.806 3.875 228.423 4.00781C228.04 4.13281 227.708 4.32812 227.427 4.59375C227.146 4.85938 226.966 5.20312 226.888 5.625C226.833 5.94531 226.884 6.22656 227.04 6.46875C227.197 6.70312 227.412 6.90625 227.685 7.07812C227.958 7.24219 228.244 7.38281 228.54 7.5C228.845 7.61719 229.111 7.71875 229.337 7.80469C229.978 8.04688 230.591 8.33203 231.177 8.66016C231.771 8.98047 232.294 9.35938 232.747 9.79688C233.208 10.2344 233.56 10.7461 233.802 11.332C234.052 11.9102 234.154 12.582 234.107 13.3477C234.044 14.2305 233.81 14.9844 233.404 15.6094C232.997 16.2344 232.474 16.7422 231.833 17.1328C231.193 17.5234 230.49 17.8086 229.724 17.9883C228.958 18.168 228.181 18.2539 227.392 18.2461C226.509 18.2305 225.685 18.0977 224.919 17.8477C224.154 17.5898 223.486 17.2188 222.915 16.7344C222.345 16.2422 221.904 15.6406 221.591 14.9297C221.279 14.2109 221.13 13.3867 221.146 12.457L225.165 12.4688C225.142 12.9062 225.169 13.293 225.247 13.6289C225.333 13.957 225.474 14.2344 225.669 14.4609C225.872 14.6797 226.134 14.8477 226.455 14.9648C226.775 15.0742 227.162 15.1289 227.615 15.1289C227.997 15.1289 228.365 15.0703 228.716 14.9531C229.076 14.8281 229.38 14.6367 229.63 14.3789C229.88 14.1211 230.04 13.7891 230.111 13.3828ZM243.64 5.32031L243.16 8.0625H235.73L236.211 5.32031H243.64ZM238.308 2.16797H242.164L240.148 13.8867C240.117 14.1602 240.117 14.3867 240.148 14.5664C240.179 14.7383 240.261 14.8711 240.394 14.9648C240.535 15.0508 240.75 15.1016 241.039 15.1172C241.203 15.125 241.367 15.1211 241.531 15.1055C241.695 15.0898 241.859 15.0742 242.023 15.0586L241.754 17.918C241.418 18.0273 241.074 18.1055 240.722 18.1523C240.379 18.1992 240.027 18.2227 239.668 18.2227C238.871 18.207 238.203 18.0469 237.664 17.7422C237.132 17.4297 236.746 16.9883 236.504 16.418C236.269 15.8398 236.187 15.1523 236.257 14.3555L238.308 2.16797ZM248.217 8.67188L246.6 18H242.744L244.947 5.32031H248.533L248.217 8.67188ZM252.365 5.21484L251.861 8.89453C251.658 8.86328 251.455 8.83594 251.252 8.8125C251.049 8.78906 250.842 8.77344 250.631 8.76562C250.201 8.75781 249.81 8.80859 249.459 8.91797C249.115 9.01953 248.814 9.17969 248.557 9.39844C248.307 9.60938 248.1 9.875 247.935 10.1953C247.771 10.5156 247.65 10.8867 247.572 11.3086L246.928 10.8398C247.006 10.2461 247.131 9.61719 247.303 8.95312C247.482 8.28125 247.732 7.64844 248.053 7.05469C248.373 6.46094 248.787 5.98047 249.295 5.61328C249.803 5.23828 250.428 5.05078 251.17 5.05078C251.373 5.05078 251.572 5.06641 251.768 5.09766C251.963 5.12891 252.162 5.16797 252.365 5.21484ZM257.926 14.8125L258.746 9.53906C258.777 9.25781 258.774 8.98828 258.735 8.73047C258.703 8.47266 258.606 8.26172 258.442 8.09766C258.285 7.92578 258.039 7.83594 257.703 7.82812C257.399 7.82031 257.141 7.875 256.93 7.99219C256.719 8.10938 256.551 8.27344 256.426 8.48438C256.301 8.69531 256.211 8.9375 256.156 9.21094L252.289 9.23438C252.32 8.5 252.516 7.86719 252.875 7.33594C253.235 6.80469 253.695 6.37109 254.258 6.03516C254.82 5.69922 255.434 5.45312 256.098 5.29688C256.77 5.14062 257.43 5.07031 258.078 5.08594C258.969 5.10156 259.774 5.28906 260.492 5.64844C261.219 6 261.777 6.51172 262.168 7.18359C262.567 7.84766 262.719 8.65625 262.625 9.60938L261.793 14.8125C261.723 15.2812 261.66 15.7812 261.606 16.3125C261.551 16.8359 261.629 17.3242 261.84 17.7773L261.828 18L258.067 18.0117C257.895 17.5039 257.809 16.9766 257.809 16.4297C257.809 15.8828 257.848 15.3438 257.926 14.8125ZM259.18 10.2539L258.828 12.3633L257.317 12.3516C257.02 12.3594 256.735 12.4102 256.461 12.5039C256.195 12.5898 255.957 12.7148 255.746 12.8789C255.535 13.043 255.36 13.2461 255.219 13.4883C255.086 13.7305 255 14.0078 254.961 14.3203C254.93 14.5312 254.945 14.7227 255.008 14.8945C255.078 15.0586 255.184 15.1914 255.324 15.293C255.473 15.3945 255.656 15.4492 255.875 15.457C256.211 15.4648 256.535 15.4023 256.848 15.2695C257.16 15.1367 257.43 14.9492 257.656 14.707C257.891 14.4648 258.051 14.1836 258.137 13.8633L258.817 15.5156C258.613 15.9219 258.379 16.293 258.113 16.6289C257.856 16.9648 257.563 17.2578 257.235 17.5078C256.914 17.75 256.555 17.9375 256.156 18.0703C255.758 18.2031 255.317 18.2656 254.832 18.2578C254.137 18.2422 253.496 18.0742 252.91 17.7539C252.324 17.4336 251.86 16.9961 251.516 16.4414C251.172 15.8867 251.012 15.2461 251.035 14.5195C251.067 13.6758 251.274 12.9766 251.656 12.4219C252.039 11.8672 252.535 11.4336 253.145 11.1211C253.762 10.8008 254.43 10.5742 255.149 10.4414C255.875 10.3086 256.594 10.2422 257.305 10.2422L259.18 10.2539ZM271.795 5.32031L271.315 8.0625H263.885L264.366 5.32031H271.795ZM266.463 2.16797H270.319L268.303 13.8867C268.272 14.1602 268.272 14.3867 268.303 14.5664C268.334 14.7383 268.416 14.8711 268.549 14.9648C268.69 15.0508 268.905 15.1016 269.194 15.1172C269.358 15.125 269.522 15.1211 269.686 15.1055C269.85 15.0898 270.014 15.0742 270.178 15.0586L269.909 17.918C269.573 18.0273 269.229 18.1055 268.877 18.1523C268.534 18.1992 268.182 18.2227 267.823 18.2227C267.026 18.207 266.358 18.0469 265.819 17.7422C265.288 17.4297 264.901 16.9883 264.659 16.418C264.424 15.8398 264.342 15.1523 264.413 14.3555L266.463 2.16797ZM277.145 18.2344C276.27 18.2188 275.473 18.0586 274.755 17.7539C274.036 17.4414 273.426 17.0117 272.926 16.4648C272.426 15.918 272.055 15.2773 271.813 14.543C271.579 13.8008 271.493 12.9922 271.555 12.1172L271.602 11.6602C271.696 10.7383 271.915 9.87891 272.258 9.08203C272.602 8.27734 273.063 7.57422 273.641 6.97266C274.219 6.36328 274.899 5.89062 275.68 5.55469C276.469 5.21875 277.352 5.0625 278.329 5.08594C279.212 5.10156 279.973 5.27734 280.614 5.61328C281.262 5.94922 281.79 6.40625 282.196 6.98438C282.602 7.55469 282.883 8.21094 283.04 8.95312C283.204 9.6875 283.243 10.4688 283.157 11.2969L282.934 12.9023H272.856L273.255 10.4297L279.465 10.4414L279.536 10.1016C279.59 9.73438 279.575 9.40234 279.489 9.10547C279.403 8.80859 279.243 8.57422 279.008 8.40234C278.774 8.22266 278.458 8.125 278.059 8.10938C277.575 8.10156 277.172 8.20703 276.852 8.42578C276.54 8.64453 276.286 8.93359 276.09 9.29297C275.903 9.65234 275.758 10.043 275.657 10.4648C275.555 10.8789 275.481 11.2773 275.434 11.6602L275.387 12.1055C275.356 12.4883 275.368 12.8594 275.422 13.2188C275.477 13.5781 275.587 13.9023 275.751 14.1914C275.922 14.4805 276.153 14.7148 276.442 14.8945C276.731 15.0664 277.094 15.1602 277.532 15.1758C278.118 15.1914 278.665 15.082 279.172 14.8477C279.68 14.6133 280.137 14.293 280.544 13.8867L282.149 16.0195C281.797 16.5508 281.344 16.9805 280.79 17.3086C280.235 17.6289 279.637 17.8633 278.997 18.0117C278.364 18.168 277.747 18.2422 277.145 18.2344ZM293.229 5.32031H296.768L294.694 17.4961C294.53 18.7148 294.116 19.7344 293.452 20.5547C292.796 21.3828 291.968 22.0039 290.968 22.418C289.968 22.832 288.874 23.0234 287.686 22.9922C287.124 22.9844 286.569 22.9062 286.022 22.7578C285.483 22.6094 284.972 22.3906 284.487 22.1016C284.003 21.8203 283.573 21.4648 283.198 21.0352L285.026 18.7617C285.362 19.1836 285.753 19.5078 286.198 19.7344C286.651 19.9609 287.147 20.0781 287.686 20.0859C288.241 20.1016 288.733 20.0039 289.163 19.793C289.6 19.582 289.96 19.2812 290.241 18.8906C290.522 18.5 290.714 18.0312 290.815 17.4844L292.409 8.12109L293.229 5.32031ZM283.972 11.8945L284.007 11.6484C284.1 10.8516 284.288 10.0586 284.569 9.26953C284.85 8.48047 285.229 7.76562 285.706 7.125C286.19 6.48438 286.776 5.98047 287.464 5.61328C288.159 5.23828 288.968 5.0625 289.89 5.08594C290.741 5.10938 291.421 5.32812 291.929 5.74219C292.444 6.15625 292.831 6.6875 293.089 7.33594C293.347 7.98438 293.515 8.68359 293.593 9.43359C293.671 10.1758 293.698 10.8906 293.675 11.5781L293.651 11.8828C293.526 12.5625 293.319 13.2773 293.03 14.0273C292.749 14.7773 292.382 15.4766 291.929 16.125C291.483 16.7734 290.944 17.2969 290.311 17.6953C289.686 18.0859 288.968 18.2695 288.155 18.2461C287.304 18.2305 286.593 18.0312 286.022 17.6484C285.452 17.2578 285.003 16.7539 284.675 16.1367C284.354 15.5117 284.14 14.832 284.03 14.0977C283.921 13.3555 283.901 12.6211 283.972 11.8945ZM287.862 11.6484L287.839 11.8945C287.807 12.1992 287.792 12.5391 287.792 12.9141C287.8 13.2812 287.85 13.6367 287.944 13.9805C288.038 14.3242 288.198 14.6094 288.425 14.8359C288.651 15.0625 288.968 15.1836 289.374 15.1992C289.975 15.2305 290.472 15.1055 290.862 14.8242C291.253 14.543 291.554 14.1719 291.765 13.7109C291.975 13.2422 292.112 12.7461 292.175 12.2227L292.28 11.2852C292.319 10.9336 292.339 10.5781 292.339 10.2188C292.347 9.85156 292.3 9.51172 292.198 9.19922C292.104 8.88672 291.936 8.63281 291.694 8.4375C291.452 8.23438 291.104 8.12891 290.651 8.12109C290.19 8.10547 289.792 8.21094 289.456 8.4375C289.128 8.65625 288.854 8.94531 288.636 9.30469C288.417 9.66406 288.245 10.0508 288.12 10.4648C287.995 10.8789 287.909 11.2734 287.862 11.6484ZM300.56 16.3242L305.599 5.32031H309.853L302.423 19.8984C302.196 20.3828 301.939 20.8242 301.65 21.2227C301.368 21.6211 301.048 21.9648 300.689 22.2539C300.329 22.543 299.923 22.7656 299.47 22.9219C299.017 23.0781 298.505 23.1562 297.935 23.1562C297.638 23.1562 297.349 23.1289 297.068 23.0742C296.786 23.0273 296.505 22.9688 296.224 22.8984L296.517 20.0625C296.595 20.0703 296.673 20.0742 296.751 20.0742C296.829 20.082 296.903 20.0859 296.974 20.0859C297.302 20.0859 297.595 20.0508 297.853 19.9805C298.118 19.918 298.353 19.8047 298.556 19.6406C298.767 19.4766 298.95 19.25 299.107 18.9609L300.56 16.3242ZM301.626 5.32031L302.54 14.3906L302.247 18.375H299.739L297.63 5.32031H301.626Z" fill="black"/>
</svg>
